<?xml version="1.0" standalone="no"?>
<!DOCTYPE svg PUBLIC "-//W3C//DTD SVG 1.1//EN" "http://www.w3.org/Graphics/SVG/1.1/DTD/svg11.dtd" >
<svg>
<metadata>
Created by FontForge 20090914 at Sun Mar 31 18:47:07 2019
 By www-data
Copyright 2014 Indian Type Foundry. All rights reserved.
</metadata>
<defs>
<font id="Teko-Light" horiz-adv-x="179" >
  <font-face 
    font-family="Teko Light"
    font-weight="300"
    font-stretch="normal"
    units-per-em="1000"
    panose-1="2 0 0 0 0 0 0 0 0 0"
    ascent="800"
    descent="-200"
    x-height="485"
    cap-height="622"
    bbox="-356 -373 1518 860"
    underline-thickness="50"
    underline-position="-50"
    unicode-range="U+000D-U+FB02"
  />
<missing-glyph horiz-adv-x="510" 
d="M251 302h-4l-100 -209h-60l134 260l-134 255h60l105 -206h4l100 206h60l-135 -261l135 -254h-60zM51 652v-603h400v603h-400zM0 0v701h502v-701h-502z" />
    <glyph glyph-name=".notdef" horiz-adv-x="510" 
d="M251 302h-4l-100 -209h-60l134 260l-134 255h60l105 -206h4l100 206h60l-135 -261l135 -254h-60zM51 652v-603h400v603h-400zM0 0v701h502v-701h-502z" />
    <glyph glyph-name="NULL" horiz-adv-x="0" 
 />
    <glyph glyph-name="NULL" horiz-adv-x="0" 
 />
    <glyph glyph-name="CR" unicode="&#xd;" horiz-adv-x="0" 
 />
    <glyph glyph-name="space" unicode=" " horiz-adv-x="130" 
 />
    <glyph glyph-name="exclam" unicode="!" horiz-adv-x="185" 
d="M51 0v112h82v-112h-82zM50 622h85l-13 -426h-59z" />
    <glyph glyph-name="quotedbl" unicode="&#x22;" horiz-adv-x="254" 
d="M155 622h64v-212h-64v212zM35 622h64v-212h-64v212z" />
    <glyph glyph-name="numbersign" unicode="#" horiz-adv-x="448" 
d="M418 398h-58l-29 -174h57v-58h-67l-27 -166h-63l27 166h-117l-27 -166h-63l27 166h-48v58h58l29 174h-57v58h67l27 166h63l-27 -166h117l27 166h63l-27 -166h48v-58zM268 224l29 174h-117l-29 -174h117z" />
    <glyph glyph-name="dollar" unicode="$" horiz-adv-x="327" 
d="M140 350h68c52.667 0 79 -26.333 79 -79v-192c0 -52.667 -26.333 -79 -79 -79h-12v-75h-65v75h-10c-52.667 -0 -79 26.333 -79 79v96h69v-85c0 -13.333 1.83301 -21.833 5.5 -25.5s12.167 -5.5 25.5 -5.5h45c12.667 0 21 1.83301 25 5.5s6 12.167 6 25.5v170
c0 13.333 -2 21.833 -6 25.5s-12.333 5.5 -25 5.5h-68c-52.667 0 -79 26.333 -79 79v173c0 52.667 26.333 79 79 79h12v75h65v-75h11c52.667 0 79 -26.333 79 -79v-96h-69v85c0 13.333 -1.83301 21.833 -5.5 25.5s-12.167 5.5 -25.5 5.5h-46
c-13.333 0 -21.833 -1.83301 -25.5 -5.5s-5.5 -12.167 -5.5 -25.5v-151c0 -12.667 1.83301 -21 5.5 -25s12.167 -6 25.5 -6z" />
    <glyph glyph-name="percent" unicode="%" horiz-adv-x="573" 
d="M392 622h61l-273 -622h-60zM487 80v166c0 12.667 -1.66699 20.834 -5 24.501s-11 5.5 -23 5.5h-23c-12 0 -19.667 -1.83301 -23 -5.5s-5 -11.834 -5 -24.501v-166c0 -12.667 1.66699 -20.834 5 -24.501s11 -5.5 23 -5.5h23c12 0 19.667 1.83301 23 5.5s5 11.834 5 24.501
zM165 376v166c0 12.667 -1.66699 20.834 -5 24.501s-11 5.5 -23 5.5h-23c-12 0 -19.667 -1.83301 -23 -5.5s-5 -11.834 -5 -24.501v-166c0 -12.667 1.66699 -20.834 5 -24.501s11 -5.5 23 -5.5h23c12 0 19.667 1.83301 23 5.5s5 11.834 5 24.501zM543 255v-184
c0 -47.333 -22.333 -71 -67 -71h-57c-44.667 0 -67 23.667 -67 71v184c0 47.333 22.333 71 67 71h57c44.667 0 67 -23.667 67 -71zM221 551v-184c0 -47.333 -22.333 -71 -67 -71h-57c-44.667 0 -67 23.667 -67 71v184c0 47.333 22.333 71 67 71h57
c44.667 0 67 -23.667 67 -71z" />
    <glyph glyph-name="ampersand" unicode="&#x26;" horiz-adv-x="418" 
d="M311 0l-192 -0.000976562c-52.667 0 -79 26.333 -79 79v116c0 18.667 3.83301 34.334 11.5 47.001s21.167 25.667 40.5 39l34 26c-15.333 20 -26.5 35 -33.5 45s-14.167 23.5 -21.5 40.5s-11 32.833 -11 47.5v103c0 52.667 26.333 79 79 79h92
c52.667 0 79 -26.333 79 -79v-99c0 -33.333 -5.5 -60 -16.5 -80s-28.5 -37.667 -52.5 -53l-24 -17l117 -149v79h56v-151l85 -108h-75l-38 48c-12.667 -8.66699 -29.667 -13 -51 -13zM128 531.999l-0.000976562 -98.0029c0 -21.333 16 -50.666 48 -87.999l9 7
c20.667 14.667 35.334 28.334 44.001 41.001s13 29.334 13 50.001v88c0 13.333 -2 21.833 -6 25.5s-12.333 5.5 -25 5.5h-52c-12.667 0 -21 -1.83301 -25 -5.5s-6 -12.167 -6 -25.5zM138.999 58.9961h163.999c6.66699 0 13.334 0.666992 20.001 2l-157 196l-27 -19
c-12 -8 -20.167 -16 -24.5 -24s-6.5 -20.333 -6.5 -37v-87c0 -13.333 2 -21.833 6 -25.5s12.333 -5.5 25 -5.5z" />
    <glyph glyph-name="quotesingle" unicode="'" horiz-adv-x="139" 
d="M35 622h69v-212h-69v212z" />
    <glyph glyph-name="parenleft" unicode="(" horiz-adv-x="245" 
d="M49 342c0 299.333 68.667 449 206 449h16v-57l-14 -1c-52 -4 -88.5 -40 -109.5 -108s-31.5 -162 -31.5 -282v-73c0 -120 10.5 -214 31.5 -282s57.5 -104 109.5 -108l14 -1v-57h-16c-137.333 0 -206 149.667 -206 449v71z" />
    <glyph glyph-name="parenright" unicode=")" horiz-adv-x="245" 
d="M193 271c0 -299.333 -68.667 -449 -206 -449h-16v57l14 1c52 4 88.5 40 109.5 108s31.5 162 31.5 282v73c0 120 -10.5 214 -31.5 282s-57.5 104 -109.5 108l-14 1v57h16c137.333 0 206 -149.667 206 -449v-71z" />
    <glyph glyph-name="asterisk" unicode="*" horiz-adv-x="302" 
d="M120 581l0.00195312 41.001h62v-41c0 -22 -1.66699 -40.667 -5 -56c18 9.33301 48 20.666 90 33.999l20 -59c-46 -14 -77.333 -22 -94 -24c13.333 -12 25.666 -26.333 36.999 -43l24 -33l-50 -37c-29.333 42 -47 69.333 -53 82c-8 -17.333 -17.667 -33.666 -29 -48.999
l-24 -33l-51 37c29.333 38.667 50 63.667 62 75c-20 3.33301 -51.333 12 -94 26l19 59l39 -13c15.333 -4.66699 32.666 -12.334 51.999 -23.001c-3.33301 16.667 -5 35.667 -5 57z" />
    <glyph glyph-name="plus" unicode="+" horiz-adv-x="380" 
d="M355 341v-60h-130v-150h-70v150h-130v60h130v150h70v-150h130z" />
    <glyph glyph-name="comma" unicode="," horiz-adv-x="142" 
d="M30 112h82v-58l-55 -191h-27v249z" />
    <glyph glyph-name="hyphen" unicode="-" horiz-adv-x="307" 
d="M55 263v58h196v-58h-196z" />
    <glyph glyph-name="period" unicode="." horiz-adv-x="142" 
d="M30 0v112h82v-112h-82z" />
    <glyph glyph-name="slash" unicode="/" horiz-adv-x="384" 
d="M272 699h68l-264 -835h-68z" />
    <glyph glyph-name="zero" unicode="0" horiz-adv-x="361" 
d="M242 90v442c0 13.333 -2 21.833 -6 25.5s-12.333 5.5 -25 5.5h-61c-13.333 0 -21.833 -1.83301 -25.5 -5.5s-5.5 -12.167 -5.5 -25.5v-442c0 -13.333 1.83301 -21.833 5.5 -25.5s12.167 -5.5 25.5 -5.5h61c12.667 0 21 1.83301 25 5.5s6 12.167 6 25.5zM311 543v-464
c0 -52.667 -26.333 -79 -79 -79h-103c-52.667 -0 -79 26.333 -79 79v464c0 52.667 26.333 79 79 79h103c52.667 0 79 -26.333 79 -79z" />
    <glyph glyph-name="one" unicode="1" horiz-adv-x="211" 
d="M156 622v-622h-68v563h-68v59h136z" />
    <glyph glyph-name="two" unicode="2" horiz-adv-x="290" 
d="M93 532v-110h-68v121c0 52.667 26.333 79 79 79h77c52.667 0 79 -26.333 79 -79v-55c0 -46 -8.66699 -89.333 -26 -130l-137 -299h168v-59h-239v58l142 311c15.333 36 23 77 23 123v40c0 13.333 -1.83301 21.833 -5.5 25.5s-12.167 5.5 -25.5 5.5h-36
c-13.333 0 -21.833 -1.83301 -25.5 -5.5s-5.5 -12.167 -5.5 -25.5z" />
    <glyph glyph-name="three" unicode="3" horiz-adv-x="322" 
d="M98 532v-102h-68v113c0 52.667 26.333 79 79 79h84c52.667 0 79 -26.333 79 -79v-179c0 -30 -12.333 -46 -37 -48c24.667 -4 37 -19.667 37 -47v-190c0 -52.667 -26.333 -79 -79 -79h-84c-52.667 -0 -79 26.333 -79 79v112h68v-101c0 -13.333 2 -21.833 6 -25.5
s12.333 -5.5 25 -5.5h44c12.667 0 21 1.83301 25 5.5s6 12.167 6 25.5v164c0 13.333 -2 21.833 -6 25.5s-12.333 5.5 -25 5.5h-73v60h73c12.667 0 21 1.83301 25 5.5s6 12.167 6 25.5v156c0 13.333 -2 21.833 -6 25.5s-12.333 5.5 -25 5.5h-44
c-12.667 0 -21 -1.83301 -25 -5.5s-6 -12.167 -6 -25.5z" />
    <glyph glyph-name="four" unicode="4" horiz-adv-x="325" 
d="M325 186v-59h-53v-127h-66v127h-201v53l164 442h67l-161 -436h131v118h66v-118h53z" />
    <glyph glyph-name="five" unicode="5" horiz-adv-x="321" 
d="M284 563h-175v-180h96c52.667 0 79 -26.333 79 -79v-225c0 -52.667 -26.333 -79 -79 -79h-86c-52.667 -0 -79 26.333 -79 79v113h69v-102c0 -13.333 1.83301 -21.833 5.5 -25.5s12.167 -5.5 25.5 -5.5h44c13.333 0 21.833 1.83301 25.5 5.5s5.5 12.167 5.5 25.5v203
c0 12.667 -1.83301 21 -5.5 25s-12.167 6 -25.5 6h-144v298h244v-59z" />
    <glyph glyph-name="six" unicode="6" horiz-adv-x="352" 
d="M119 353h109c52.667 0 79 -26.333 79 -79v-195c0 -52.667 -26.333 -79 -79 -79h-99c-52.667 -0 -79 26.333 -79 79v464c0 52.667 26.333 79 79 79h98c52.667 0 79 -26.333 79 -79v-117h-68v106c0 13.333 -2 21.833 -6 25.5s-12.333 5.5 -25 5.5h-57
c-13.333 0 -21.833 -1.83301 -25.5 -5.5s-5.5 -12.167 -5.5 -25.5v-179zM238 90v173c0 12.667 -2 21 -6 25s-12.333 6 -25 6h-88v-204c0 -13.333 1.83301 -21.833 5.5 -25.5s12.167 -5.5 25.5 -5.5h57c12.667 0 21 1.83301 25 5.5s6 12.167 6 25.5z" />
    <glyph glyph-name="seven" unicode="7" horiz-adv-x="256" 
d="M251 622v-46l-161 -576h-68l155 563h-172v59h246z" />
    <glyph glyph-name="eight" unicode="8" horiz-adv-x="360" 
d="M310 543v-183c0 -30 -12.333 -46 -37 -48c24.667 -4 37 -19.667 37 -47v-186c0 -52.667 -26.333 -79 -79 -79h-102c-52.667 -0 -79 26.333 -79 79v186c0 27.333 12.333 43 37 47c-24.667 2 -37 18 -37 48v183c0 52.667 26.333 79 79 79h102c52.667 0 79 -26.333 79 -79z
M242 90v162c0 13.333 -2 21.833 -6 25.5s-12.333 5.5 -25 5.5h-62c-12.667 0 -21 -1.83301 -25 -5.5s-6 -12.167 -6 -25.5v-162c0 -13.333 2 -21.833 6 -25.5s12.333 -5.5 25 -5.5h62c12.667 0 21 1.83301 25 5.5s6 12.167 6 25.5zM242 374v158c0 13.333 -2 21.833 -6 25.5
s-12.333 5.5 -25 5.5h-62c-12.667 0 -21 -1.83301 -25 -5.5s-6 -12.167 -6 -25.5v-158c0 -13.333 2 -21.833 6 -25.5s12.333 -5.5 25 -5.5h62c12.667 0 21 1.83301 25 5.5s6 12.167 6 25.5z" />
    <glyph glyph-name="nine" unicode="9" horiz-adv-x="347" 
d="M119 622h99c52.667 0 79 -26.333 79 -79v-464c0 -52.667 -26.333 -79 -79 -79h-98c-52.667 -0 -79 26.333 -79 79v117h68v-106c0 -13.333 1.83301 -21.833 5.5 -25.5s12.167 -5.5 25.5 -5.5h57c12.667 0 21 1.83301 25 5.5s6 12.167 6 25.5v169h-109
c-52.667 0 -79 26.333 -79 79v205c0 52.667 26.333 79 79 79zM140 318h88v214c0 13.333 -2 21.833 -6 25.5s-12.333 5.5 -25 5.5h-57c-13.333 0 -21.833 -1.83301 -25.5 -5.5s-5.5 -12.167 -5.5 -25.5v-183c0 -12.667 1.83301 -21 5.5 -25s12.167 -6 25.5 -6z" />
    <glyph glyph-name="colon" unicode=":" horiz-adv-x="142" 
d="M30 373v112h82v-112h-82zM30 0v112h82v-112h-82z" />
    <glyph glyph-name="semicolon" unicode=";" horiz-adv-x="142" 
d="M30 373v112h82v-112h-82zM30 112h82v-58l-55 -191h-27v249z" />
    <glyph glyph-name="less" unicode="&#x3c;" horiz-adv-x="390" 
d="M360 399l-267 -88l267 -88v-66l-330 115v78l330 115v-66z" />
    <glyph glyph-name="equal" unicode="=" horiz-adv-x="390" 
d="M30 194v62h330v-62h-330zM30 366v62h330v-62h-330z" />
    <glyph glyph-name="greater" unicode="&#x3e;" horiz-adv-x="390" 
d="M297 311l-267 88v66l330 -115v-78l-330 -115v66z" />
    <glyph glyph-name="question" unicode="?" horiz-adv-x="308" 
d="M99 622h85c52.667 0 79 -25.667 79 -77v-204c0 -52 -26.333 -78 -79 -78h-18l-3 -67h-57l-6 126h66c12 0 19.667 2.16699 23 6.5s5 12.833 5 25.5v177c0 12.667 -1.66699 21.334 -5 26.001s-11 7 -23 7h-48c-12.667 0 -20.667 -2.33301 -24 -7s-5 -13.334 -5 -26.001v-72
h-69v86c0 51.333 26.333 77 79 77zM93 0v112h82v-112h-82z" />
    <glyph glyph-name="at" unicode="@" horiz-adv-x="651" 
d="M298 337v-165.998c0 -12.667 2 -21 6 -25s12.333 -6 25 -6h30c12 0 20.667 2.66699 26 8s8 14.666 8 27.999v156c0 13.333 -2.66699 22.666 -8 27.999s-14 8 -26 8h-30c-12.667 0 -21 -2 -25 -6s-6 -12.333 -6 -25zM229 348.002c0 52.667 26.334 79 79.001 79h30
c29.333 0 47.666 -11.333 54.999 -34v34h68v-287h45c13.333 0 21.833 2 25.5 6s5.5 12.333 5.5 25v300c0 13.333 -2 22 -6 26s-12.333 6 -25 6h-321c-12.667 0 -21 -2 -25 -6s-6 -12.667 -6 -26v-440c0 -12.667 2 -21 6 -25s12.333 -6 25 -6h277v-61h-298
c-52.667 0 -79 26.333 -79 79v467c0 52.667 26.333 79 79 79h362c52.667 0 79 -26.333 79 -79v-325c0 -52.667 -26.333 -79 -79 -79h-126v49c-3.33301 -32.667 -24 -49 -62 -49h-30c-52.667 0 -79 26.333 -79 79v188z" />
    <glyph glyph-name="A" unicode="A" horiz-adv-x="343" 
d="M259 0l-26 158h-126l-23 -158h-69l97 622h109l107 -622h-69zM115 217h109l-58 357z" />
    <glyph glyph-name="B" unicode="B" horiz-adv-x="381" 
d="M262 378v154c0 13.333 -2 21.833 -6 25.5s-12.333 5.5 -25 5.5h-107v-216h107c12.667 0 21 1.83301 25 5.5s6 12.167 6 25.5zM262 90v167c0 12.667 -2 21 -6 25s-12.333 6 -25 6h-107v-229h107c12.667 0 21 1.83301 25 5.5s6 12.167 6 25.5zM55 622h197
c52.667 0 79 -26.333 79 -79v-179c0 -30.667 -12.333 -47 -37 -49c24.667 -4 37 -19.333 37 -46v-190c0 -52.667 -26.333 -79 -79 -79h-197v622z" />
    <glyph glyph-name="C" unicode="C" horiz-adv-x="345" 
d="M305 438h-69v94c0 13.333 -2 21.833 -6 25.5s-12.333 5.5 -25 5.5h-55c-13.333 0 -21.833 -1.83301 -25.5 -5.5s-5.5 -12.167 -5.5 -25.5v-443c0 -12.667 1.83301 -21 5.5 -25s12.167 -6 25.5 -6h55c12.667 0 21 2 25 6s6 12.333 6 25v94h69v-105
c0 -52.667 -26.333 -79 -79 -79h-97c-52.667 0 -79 26.333 -79 79v465c0 52.667 26.333 79 79 79h97c52.667 0 79 -26.333 79 -79v-105z" />
    <glyph glyph-name="D" unicode="D" horiz-adv-x="381" 
d="M55 622h197c52.667 0 79 -26.333 79 -79v-464c0 -52.667 -26.333 -79 -79 -79h-197v622zM262 90v442c0 13.333 -2 21.833 -6 25.5s-12.333 5.5 -25 5.5h-107v-504h107c12.667 0 21 1.83301 25 5.5s6 12.167 6 25.5z" />
    <glyph glyph-name="E" unicode="E" horiz-adv-x="315" 
d="M124 59h171v-59h-240v622h233v-59h-164v-210h134v-59h-134v-235z" />
    <glyph glyph-name="F" unicode="F" horiz-adv-x="303" 
d="M298 563h-174v-220h134v-59h-134v-284h-69v622h243v-59z" />
    <glyph glyph-name="G" unicode="G" horiz-adv-x="350" 
d="M305 448h-69v84c0 13.333 -2 21.833 -6 25.5s-12.333 5.5 -25 5.5h-55c-13.333 0 -21.833 -1.83301 -25.5 -5.5s-5.5 -12.167 -5.5 -25.5v-443c0 -12.667 1.83301 -21 5.5 -25s12.167 -6 25.5 -6h55c12.667 0 21 2 25 6s6 12.333 6 25v165h-50v59h119v-235
c0 -52.667 -26.333 -79 -79 -79h-97c-52.667 0 -79 26.333 -79 79v465c0 52.667 26.333 79 79 79h97c52.667 0 79 -26.333 79 -79v-95z" />
    <glyph glyph-name="H" unicode="H" horiz-adv-x="382" 
d="M258 622h69v-622h-69v281h-134v-281h-69v622h69v-282h134v282z" />
    <glyph glyph-name="I" unicode="I" horiz-adv-x="198" 
d="M65 622h68v-622h-68v622z" />
    <glyph glyph-name="J" unicode="J" horiz-adv-x="301" 
d="M15 192h69v-102c0 -13.333 2 -21.833 6 -25.5s12.333 -5.5 25 -5.5h34c12.667 0 21 1.83301 25 5.5s6 12.167 6 25.5v532h69v-543c0 -52.667 -26.333 -79 -79 -79h-76c-52.667 -0 -79 26.333 -79 79v113z" />
    <glyph glyph-name="K" unicode="K" horiz-adv-x="345" 
d="M335 622l-134 -314l132 -308h-74l-129 308l131 314h74zM55 0v622h68v-622h-68z" />
    <glyph glyph-name="L" unicode="L" horiz-adv-x="271" 
d="M123 59h143v-59h-211v622h68v-563z" />
    <glyph glyph-name="M" unicode="M" horiz-adv-x="475" 
d="M114 0h-59v622h75l107 -400l108 400h75v-622h-59v471l-87 -336h-73l-87 336v-471z" />
    <glyph glyph-name="N" unicode="N" horiz-adv-x="377" 
d="M259 622h63v-622h-75l-129 482v-482h-63v622h80l124 -465v465z" />
    <glyph glyph-name="O" unicode="O" horiz-adv-x="360" 
d="M129 622h102c52.667 0 79 -26.333 79 -79v-464c0 -52.667 -26.333 -79 -79 -79h-102c-52.667 -0 -79 26.333 -79 79v464c0 52.667 26.333 79 79 79zM242 90v442c0 13.333 -2 21.833 -6 25.5s-12.333 5.5 -25 5.5h-62c-12.667 0 -21 -1.83301 -25 -5.5
s-6 -12.167 -6 -25.5v-442c0 -13.333 2 -21.833 6 -25.5s12.333 -5.5 25 -5.5h62c12.667 0 21 1.83301 25 5.5s6 12.167 6 25.5z" />
    <glyph glyph-name="P" unicode="P" horiz-adv-x="345" 
d="M55 622h181c52.667 0 79 -26.333 79 -79v-214c0 -52.667 -26.333 -79 -79 -79h-113v-250h-68v622zM247 340v192c0 13.333 -1.83301 21.833 -5.5 25.5s-12.167 5.5 -25.5 5.5h-93v-254h93c13.333 0 21.833 1.83301 25.5 5.5s5.5 12.167 5.5 25.5z" />
    <glyph glyph-name="Q" unicode="Q" horiz-adv-x="360" 
d="M129 0c-52.667 0 -79 26.333 -79 79v464c0 52.667 26.333 79 79 79h102c52.667 0 79 -26.333 79 -79v-464c0 -47.333 -20.667 -73.333 -62 -78l65 -98h-68l-63 97h-53zM118 532v-442c0 -13.333 2 -21.833 6 -25.5s12.333 -5.5 25 -5.5h62c12.667 0 21 1.83301 25 5.5
s6 12.167 6 25.5v442c0 13.333 -2 21.833 -6 25.5s-12.333 5.5 -25 5.5h-62c-12.667 0 -21 -1.83301 -25 -5.5s-6 -12.167 -6 -25.5z" />
    <glyph glyph-name="R" unicode="R" horiz-adv-x="364" 
d="M123 260v-260h-68v622h181c52.667 0 79 -26.333 79 -79v-204c0 -47.333 -20.667 -73.333 -62 -78l94 -261h-74l-91 260h-59zM123 563v-244h93c13.333 0 21.833 1.83301 25.5 5.5s5.5 12.167 5.5 25.5v182c0 13.333 -1.83301 21.833 -5.5 25.5s-12.167 5.5 -25.5 5.5h-93z
" />
    <glyph glyph-name="S" unicode="S" horiz-adv-x="327" 
d="M218 90v170c0 13.333 -2 21.833 -6 25.5s-12.333 5.5 -25 5.5h-68c-52.667 0 -79 26.333 -79 79v173c0 52.667 26.333 79 79 79h88c52.667 0 79 -26.333 79 -79v-96h-69v85c0 13.333 -1.83301 21.833 -5.5 25.5s-12.167 5.5 -25.5 5.5h-46
c-13.333 0 -21.833 -1.83301 -25.5 -5.5s-5.5 -12.167 -5.5 -25.5v-151c0 -12.667 1.83301 -21 5.5 -25s12.167 -6 25.5 -6h68c52.667 0 79 -26.333 79 -79v-192c0 -52.667 -26.333 -79 -79 -79h-87c-52.667 -0 -79 26.333 -79 79v96h69v-85
c0 -13.333 1.83301 -21.833 5.5 -25.5s12.167 -5.5 25.5 -5.5h45c12.667 0 21 1.83301 25 5.5s6 12.167 6 25.5z" />
    <glyph glyph-name="T" unicode="T" horiz-adv-x="278" 
d="M273 622v-59h-100v-563h-68v563h-100v59h268z" />
    <glyph glyph-name="U" unicode="U" horiz-adv-x="364" 
d="M244 622h68v-543c0 -52.667 -26.333 -79 -79 -79h-102c-52.667 -0 -79 26.333 -79 79v543h68v-532c0 -13.333 2 -21.833 6 -25.5s12.333 -5.5 25 -5.5h62c12.667 0 21 1.83301 25 5.5s6 12.167 6 25.5v532z" />
    <glyph glyph-name="V" unicode="V" horiz-adv-x="319" 
d="M245 622h69l-100 -622h-109l-100 622h69l85 -574z" />
    <glyph glyph-name="W" unicode="W" horiz-adv-x="549" 
d="M470 622h69l-91 -622h-104l-70 493l-69 -493h-104l-91 622h69l75 -574l79 574h82l79 -574z" />
    <glyph glyph-name="X" unicode="X" horiz-adv-x="334" 
d="M203 318l126 -318h-74l-88 253l-88 -253h-74l126 318l-116 304h74l78 -242l78 242h74z" />
    <glyph glyph-name="Y" unicode="Y" horiz-adv-x="319" 
d="M196 0h-68v190l-123 432h69l88 -365l83 365h69l-118 -432v-190z" />
    <glyph glyph-name="Z" unicode="Z" horiz-adv-x="273" 
d="M268 623v-59l-195 -505h190v-59h-258v59l195 505h-185v59h253z" />
    <glyph glyph-name="bracketleft" unicode="[" horiz-adv-x="309" 
d="M233 722h-101v-830h101v-59h-170v948h170v-59z" />
    <glyph glyph-name="backslash" unicode="\" horiz-adv-x="385" 
d="M44 699h69l264 -835h-69z" />
    <glyph glyph-name="bracketright" unicode="]" horiz-adv-x="309" 
d="M223 781v-948h-170v59h101v830h-101v59h170z" />
    <glyph glyph-name="asciicircum" unicode="^" horiz-adv-x="443" 
d="M180 671h83l135 -344h-72l-105 277l-104 -277h-72z" />
    <glyph glyph-name="underscore" unicode="_" horiz-adv-x="474" 
d="M0 -103v59h474v-59h-474z" />
    <glyph glyph-name="grave" unicode="`" horiz-adv-x="400" 
d="M203 643l78 -127h-62l-98 127h82z" />
    <glyph glyph-name="a" unicode="a" horiz-adv-x="328" 
d="M214 485h69v-485h-69v33c-7.33301 -22 -25.666 -33 -54.999 -33h-40c-52.667 -0 -79 26.333 -79 79v327c0 52.667 26.333 79 79 79h40c29.333 0 47.666 -11 54.999 -33v33zM140 59l40 0.00195312c12 0 20.667 2.66699 26 8s8 14.666 8 27.999v295
c0 13.333 -2.66699 22.666 -8 27.999s-14 8 -26 8h-40c-13.333 0 -21.833 -2 -25.5 -6s-5.5 -12.333 -5.5 -25v-305c0 -13.333 1.83301 -21.833 5.5 -25.5s12.167 -5.5 25.5 -5.5z" />
    <glyph glyph-name="b" unicode="b" horiz-adv-x="328" 
d="M169 486h40c52.667 0 79 -26.333 79 -79v-328c0 -52.667 -26.333 -79 -79 -79h-40c-29.333 0 -47.666 11 -54.999 33v-33h-69v669h69v-216c7.33301 22 25.666 33 54.999 33zM219 90v305.998c0 13.333 -1.83301 21.833 -5.5 25.5s-12.167 5.5 -25.5 5.5h-40
c-12 0 -20.667 -2.66699 -26 -8s-8 -14.666 -8 -27.999v-296c0 -13.333 2.66699 -22.666 8 -27.999s14 -8 26 -8h40c13.333 0 21.833 1.83301 25.5 5.5s5.5 12.167 5.5 25.5z" />
    <glyph glyph-name="c" unicode="c" horiz-adv-x="325" 
d="M290 341h-69v54c0 12.667 -1.83301 21 -5.5 25s-12.167 6 -25.5 6h-50c-13.333 0 -21.833 -2 -25.5 -6s-5.5 -12.333 -5.5 -25v-305c0 -13.333 1.83301 -21.833 5.5 -25.5s12.167 -5.5 25.5 -5.5h50c13.333 0 21.833 1.83301 25.5 5.5s5.5 12.167 5.5 25.5v54h69v-65
c0 -52.667 -26.333 -79 -79 -79h-92c-52.667 -0 -79 26.333 -79 79v327c0 52.667 26.333 79 79 79h92c52.667 0 79 -26.333 79 -79v-65z" />
    <glyph glyph-name="d" unicode="d" horiz-adv-x="328" 
d="M214 669h69v-669h-69v33c-7.33301 -22 -25.666 -33 -54.999 -33h-40c-52.667 -0 -79 26.333 -79 79v328c0 52.667 26.333 79 79 79h40c29.333 0 47.666 -11 54.999 -33v216zM140 59l40 0.00195312c12 0 20.667 2.66699 26 8s8 14.666 8 27.999v296
c0 13.333 -2.66699 22.666 -8 27.999s-14 8 -26 8h-40c-13.333 0 -21.833 -1.83301 -25.5 -5.5s-5.5 -12.167 -5.5 -25.5v-306c0 -13.333 1.83301 -21.833 5.5 -25.5s12.167 -5.5 25.5 -5.5z" />
    <glyph glyph-name="e" unicode="e" horiz-adv-x="330" 
d="M124 485h92c52.667 0 79 -26.333 79 -79v-187h-181v-129c0 -13.333 2 -21.833 6 -25.5s12.333 -5.5 25 -5.5h47c13.333 0 21.833 1.83301 25.5 5.5s5.5 12.167 5.5 25.5v44h69v-55c0 -52.667 -26.333 -79 -79 -79h-89c-52.667 -0 -79 26.333 -79 79v327
c0 52.667 26.333 79 79 79zM114 278h112v117c0 12.667 -2 21 -6 25s-12.333 6 -25 6h-50c-12.667 0 -21 -2 -25 -6s-6 -12.333 -6 -25v-117z" />
    <glyph glyph-name="f" unicode="f" horiz-adv-x="197" 
d="M192 605h-39c-12.667 0 -21 -1.83301 -25 -5.5s-6 -12.167 -6 -25.5v-89h70v-59h-70v-426h-69v426h-48v59h48v105c0 52.667 26.333 79 79 79h60v-64z" />
    <glyph glyph-name="g" unicode="g" horiz-adv-x="328" 
d="M214 485h69v-547c0 -52.667 -26.333 -79 -79 -79h-149v59h128c12.667 0 21 2 25 6s6 12.333 6 25v84c-7.33301 -22 -25.666 -33 -54.999 -33h-40c-52.667 -0 -79 26.333 -79 79v327c0 52.667 26.333 79 79 79h40c29.333 0 47.666 -11 54.999 -33v33zM140 59
l40 0.00195312c12 0 20.667 2.66699 26 8s8 14.666 8 27.999v295c0 13.333 -2.66699 22.666 -8 27.999s-14 8 -26 8h-40c-13.333 0 -21.833 -2 -25.5 -6s-5.5 -12.333 -5.5 -25v-305c0 -13.333 1.83301 -21.833 5.5 -25.5s12.167 -5.5 25.5 -5.5z" />
    <glyph glyph-name="h" unicode="h" horiz-adv-x="333" 
d="M169 485l40.001 -0.000976562c52.667 0 79 -26.333 79 -79v-406h-69v395c0 12.667 -1.83301 21 -5.5 25s-12.167 6 -25.5 6h-40c-12 0 -20.667 -2.66699 -26 -8s-8 -14.666 -8 -27.999v-390h-69v669h69v-217c7.33301 22 25.666 33 54.999 33z" />
    <glyph glyph-name="i" unicode="i" horiz-adv-x="159" 
d="M43 589v81h73v-81h-73zM114 0h-69v485h69v-485z" />
    <glyph glyph-name="j" unicode="j" horiz-adv-x="159" 
d="M43 589v81h73v-81h-73zM45 -51v536h69v-547c0 -52.667 -26.333 -79 -79 -79h-35v59h14c13.333 0 21.833 2 25.5 6s5.5 12.333 5.5 25z" />
    <glyph glyph-name="k" unicode="k" horiz-adv-x="325" 
d="M320 485l-113 -229l113 -256h-74l-110 256l110 229h74zM45 0v669h69v-669h-69z" />
    <glyph glyph-name="l" unicode="l" horiz-adv-x="159" 
d="M114 0h-69v669h69v-669z" />
    <glyph glyph-name="m" unicode="m" horiz-adv-x="502" 
d="M343 485l40.001 -0.00195312c52.667 0 79 -26.333 79 -79v-406h-69v395c0 12.667 -1.83301 21 -5.5 25s-12.167 6 -25.5 6h-40c-12 0 -20.667 -2.66699 -26 -8s-8 -14.666 -8 -27.999v-390h-69v395c0 12.667 -1.83301 21 -5.5 25s-12.167 6 -25.5 6h-40
c-12 0 -20.667 -2.66699 -26 -8s-8 -14.666 -8 -27.999v-390h-69v485h69v-33c7.33301 22 25.666 33 54.999 33h40c38 0 62.333 -13.333 73 -40c6.66699 26.667 27 40 61 40z" />
    <glyph glyph-name="n" unicode="n" horiz-adv-x="333" 
d="M169 485l40.001 -0.000976562c52.667 0 79 -26.333 79 -79v-406h-69v395c0 12.667 -1.83301 21 -5.5 25s-12.167 6 -25.5 6h-40c-12 0 -20.667 -2.66699 -26 -8s-8 -14.666 -8 -27.999v-390h-69v485h69v-33c7.33301 22 25.666 33 54.999 33z" />
    <glyph glyph-name="o" unicode="o" horiz-adv-x="340" 
d="M119 485h102c52.667 0 79 -26.333 79 -79v-327c0 -52.667 -26.333 -79 -79 -79h-102c-52.667 -0 -79 26.333 -79 79v327c0 52.667 26.333 79 79 79zM232 90v305c0 12.667 -2 21 -6 25s-12.333 6 -25 6h-62c-12.667 0 -21 -2 -25 -6s-6 -12.333 -6 -25v-305
c0 -13.333 2 -21.833 6 -25.5s12.333 -5.5 25 -5.5h62c12.667 0 21 1.83301 25 5.5s6 12.167 6 25.5z" />
    <glyph glyph-name="p" unicode="p" horiz-adv-x="328" 
d="M169 485h40c52.667 0 79 -26.333 79 -79v-327c0 -52.667 -26.333 -79 -79 -79h-40c-29.333 0 -47.666 11 -54.999 33v-174h-69v626h69v-33c7.33301 22 25.666 33 54.999 33zM219 90v304.998c0 12.667 -1.83301 21 -5.5 25s-12.167 6 -25.5 6h-40
c-12 0 -20.667 -2.66699 -26 -8s-8 -14.666 -8 -27.999v-295c0 -13.333 2.66699 -22.666 8 -27.999s14 -8 26 -8h40c13.333 0 21.833 1.83301 25.5 5.5s5.5 12.167 5.5 25.5z" />
    <glyph glyph-name="q" unicode="q" horiz-adv-x="328" 
d="M214 485h69v-626h-69v174c-7.33301 -22 -25.666 -33 -54.999 -33h-40c-52.667 -0 -79 26.333 -79 79v327c0 52.667 26.333 79 79 79h40c29.333 0 47.666 -11 54.999 -33v33zM140 59l40 0.00195312c12 0 20.667 2.66699 26 8s8 14.666 8 27.999v295
c0 13.333 -2.66699 22.666 -8 27.999s-14 8 -26 8h-40c-13.333 0 -21.833 -2 -25.5 -6s-5.5 -12.333 -5.5 -25v-305c0 -13.333 1.83301 -21.833 5.5 -25.5s12.167 -5.5 25.5 -5.5z" />
    <glyph glyph-name="r" unicode="r" horiz-adv-x="212" 
d="M186 485h21.001v-60h-30c-42 0 -63 -25 -63 -75v-350h-69v485h69v-56c5.33301 15.333 14.166 28.5 26.499 39.5s27.5 16.5 45.5 16.5z" />
    <glyph glyph-name="s" unicode="s" horiz-adv-x="297" 
d="M194 89v92c0 12.667 -2 21 -6 25s-12.333 6 -25 6h-49c-52.667 0 -79 26.333 -79 79v115c0 52.667 26.333 79 79 79h68c52.667 0 79 -26.333 79 -79v-49h-68v39c0 13.333 -1.83301 21.833 -5.5 25.5s-12.167 5.5 -25.5 5.5h-28c-13.333 0 -21.833 -1.83301 -25.5 -5.5
s-5.5 -12.167 -5.5 -25.5v-95c0 -12.667 1.83301 -21 5.5 -25s12.167 -6 25.5 -6h49c52.667 0 79 -26.333 79 -79v-112c0 -52.667 -26.333 -79 -79 -79h-67c-52.667 -0 -79 26.333 -79 79v49h68v-39c0 -12.667 1.83301 -21 5.5 -25s12.167 -6 25.5 -6h27c12.667 0 21 2 25 6
s6 12.333 6 25z" />
    <glyph glyph-name="t" unicode="t" horiz-adv-x="197" 
d="M187 426h-69v-331c0 -12.667 2 -21 6 -25s12.333 -6 25 -6h38v-64h-59c-52.667 -0 -79 26.333 -79 79v347h-44v59h44v79h69v-79h69v-59z" />
    <glyph glyph-name="u" unicode="u" horiz-adv-x="333" 
d="M219 485l68.999 0.000976562v-485h-69v33c-7.33301 -22 -25.666 -33 -54.999 -33h-40c-52.667 0 -79 26.333 -79 79v406h69v-395c0 -13.333 2 -21.833 6 -25.5s12.333 -5.5 25 -5.5h40c12 0 20.667 2.66699 26 8s8 14.666 8 27.999v390z" />
    <glyph glyph-name="v" unicode="v" horiz-adv-x="279" 
d="M74 485l65 -437l66 437h69l-80 -485h-109l-80 485h69z" />
    <glyph glyph-name="w" unicode="w" horiz-adv-x="507" 
d="M436 485h66l-86 -485h-105l-58 389l-57 -389h-105l-86 485h66l72 -437l63 437h95l62 -437z" />
    <glyph glyph-name="x" unicode="x" horiz-adv-x="314" 
d="M188 248l121 -248h-74l-78 175l-78 -175h-74l121 248l-111 237h74l69 -165l67 165h74z" />
    <glyph glyph-name="y" unicode="y" horiz-adv-x="309" 
d="M107 -141h-54.001v59h33c28.667 0 45.334 10.333 50.001 31l12 51h-45l-93 485h69l78 -437l73 437h69l-97 -547c-10 -52.667 -41.667 -79 -95 -79z" />
    <glyph glyph-name="z" unicode="z" horiz-adv-x="266" 
d="M251 485v-59l-167 -367h167v-59h-236v59l167 367h-157v59h226z" />
    <glyph glyph-name="braceleft" unicode="{" horiz-adv-x="271" 
d="M180 689l0.000976562 -261c0 -74 -25 -114 -75 -120c50 -6.66699 75 -46.334 75 -119.001v-263c0 -12 2.5 -20.5 7.5 -25.5s13.833 -7.5 26.5 -7.5h50v-59h-83c-26.667 0 -44.834 6.5 -54.501 19.5s-14.5 32.5 -14.5 58.5v251c0 40 -7 69.333 -21 88s-36.333 28 -67 28
h-19v58h19c30.667 0 53 9.33301 67 28s21 48.334 21 89.001v249c0 26 5 45.5 15 58.5s28 19.5 54 19.5h83v-59h-50c-12.667 0 -21.5 -2.5 -26.5 -7.5s-7.5 -13.5 -7.5 -25.5z" />
    <glyph glyph-name="bar" unicode="|" 
d="M55 719h69v-817h-69v817z" />
    <glyph glyph-name="braceright" unicode="}" horiz-adv-x="271" 
d="M90 428l0.000976562 261c0 12 -2.5 20.5 -7.5 25.5s-13.833 7.5 -26.5 7.5h-50v59h83c26 0 44 -6.5 54 -19.5s15 -32.5 15 -58.5v-249c0 -40.667 7 -70.334 21 -89.001s36.333 -28 67 -28h19v-58h-19c-30.667 0 -53 -9.33301 -67 -28s-21 -48 -21 -88v-251
c0 -26 -4.83301 -45.5 -14.5 -58.5s-27.834 -19.5 -54.501 -19.5h-83v59h50c12.667 0 21.5 2.5 26.5 7.5s7.5 13.5 7.5 25.5v263c0 72.667 25 112.334 75 119.001c-50 6 -75 46 -75 120z" />
    <glyph glyph-name="asciitilde" unicode="~" horiz-adv-x="472" 
d="M318 216c-21.333 0 -40.3291 4.33301 -56.9961 13s-29.667 18 -39 28c-24 27.333 -49.333 41 -76 41c-12 0 -20 -2.83301 -24 -8.5s-6 -14.167 -6 -25.5v-47h-64v60c0 50.667 25.667 76 77 76h29c18 0 34.667 -4.33301 50 -13s27.666 -18 36.999 -28
s21.666 -19.333 36.999 -28s30.166 -13 44.499 -13s23.166 2.66699 26.499 8s5 14.333 5 27v46h64v-60c0 -50.667 -26 -76 -78 -76h-26z" />
    <glyph glyph-name="uni00A0" unicode="&#xa0;" horiz-adv-x="130" 
 />
    <glyph glyph-name="exclamdown" unicode="&#xa1;" horiz-adv-x="185" 
d="M135 -137h-85l13 426h59zM51 373v112h82v-112h-82z" />
    <glyph glyph-name="cent" unicode="&#xa2;" horiz-adv-x="325" 
d="M290 341h-69v54c0 12.667 -1.83301 21 -5.5 25s-12.167 6 -25.5 6h-50c-13.333 0 -21.833 -2 -25.5 -6s-5.5 -12.333 -5.5 -25v-305c0 -13.333 1.83301 -21.833 5.5 -25.5s12.167 -5.5 25.5 -5.5h50c13.333 0 21.833 1.83301 25.5 5.5s5.5 12.167 5.5 25.5v54h69v-65
c0 -52.667 -26.333 -79 -79 -79h-10v-75h-65v75h-17c-52.667 -0 -79 26.333 -79 79v327c0 52.667 26.333 79 79 79h17v76h65v-76h10c52.667 0 79 -26.333 79 -79v-65z" />
    <glyph glyph-name="sterling" unicode="&#xa3;" horiz-adv-x="355" 
d="M330 59v-58.999h-295v59c17.333 0 29.833 7.83301 37.5 23.5s11.5 40.5 11.5 74.5v116h-49v59h49v211c0 52.667 26.333 79 79 79h84c52.667 0 79 -26.333 79 -79v-91h-68v80c0 13.333 -2 21.833 -6 25.5s-12.333 5.5 -25 5.5h-43c-13.333 0 -21.833 -1.83301 -25.5 -5.5
s-5.5 -12.167 -5.5 -25.5v-200h127v-59h-127v-131c0 -44.667 -8.66699 -72.334 -26 -83.001h203z" />
    <glyph glyph-name="currency" unicode="&#xa4;" horiz-adv-x="454" 
d="M368 407l-0.000976562 -217c0 -14.667 -2 -27 -6 -37l41 -40l-46 -46l-46 46c-9.33301 -1.33301 -16.666 -2 -21.999 -2h-102c-10.667 0 -20 1 -28 3l-48 -47l-46 46l47 46c-2.66699 8 -4 18.333 -4 31v217c0 13.333 1.33301 24 4 32l-47 47l46 46l49 -49c8 2 17 3 27 3
h102c9.33301 0 16 -0.333008 20 -1l48 47l46 -46l-41 -41c4 -10 6 -22.667 6 -38zM206.999 170h62c12.667 0 21 2 25 6s6 12.333 6 25v195c0 13.333 -2 21.833 -6 25.5s-12.333 5.5 -25 5.5h-62c-12.667 0 -21 -1.83301 -25 -5.5s-6 -12.167 -6 -25.5v-195
c0 -12.667 2 -21 6 -25s12.333 -6 25 -6z" />
    <glyph glyph-name="yen" unicode="&#xa5;" horiz-adv-x="344" 
d="M327 340v-59h-95l-19 -66h114v-56h-121v-159h-68v159h-121v56h114l-19 66h-95v59h78l-80 282h68l89 -347l89 347h68l-80 -282h78z" />
    <glyph glyph-name="brokenbar" unicode="&#xa6;" 
d="M124 374h-69v345h69v-345zM55 247h69v-345h-69v345z" />
    <glyph glyph-name="section" unicode="&#xa7;" horiz-adv-x="387" 
d="M190 454h68c52.667 0 79 -26.333 79 -79v-83c0 -50 -16 -79 -48 -87c5.33301 -12 8 -26 8 -42v-115c0 -52.667 -26.333 -79 -79 -79h-88c-52.667 0 -79 26.333 -79 79v49h69v-38c0 -12.667 2 -21 6 -25s12.333 -6 25 -6h46c12.667 0 21 2 25 6s6 12.333 6 25v93
c0 13.333 -2 21.833 -6 25.5s-12.333 5.5 -25 5.5h-68c-52.667 0 -79 26.333 -79 79v83c0 50 16 79 48 87c-5.33301 12 -8 26 -8 42v115c0 52.667 26.333 79 79 79h88c52.667 0 79 -26.333 79 -79v-49h-69v38c0 13.333 -1.83301 21.833 -5.5 25.5s-12.167 5.5 -25.5 5.5h-46
c-13.333 0 -21.833 -1.83301 -25.5 -5.5s-5.5 -12.167 -5.5 -25.5v-93c0 -12.667 1.83301 -21 5.5 -25s12.167 -6 25.5 -6zM150 242h87c12.667 0 21 2 25 6s6 12.333 6 25v91c0 13.333 -2 21.833 -6 25.5s-12.333 5.5 -25 5.5h-87c-13.333 0 -21.833 -1.83301 -25.5 -5.5
s-5.5 -12.167 -5.5 -25.5v-91c0 -12.667 1.83301 -21 5.5 -25s12.167 -6 25.5 -6z" />
    <glyph glyph-name="dieresis" unicode="&#xa8;" horiz-adv-x="400" 
d="M244 541v84h88v-84h-88zM68 541v84h88v-84h-88z" />
    <glyph glyph-name="copyright" unicode="&#xa9;" horiz-adv-x="682" 
d="M406 240v24h69v-35c0 -52.667 -26.333 -79 -79 -79h-92c-52.667 0 -79 26.333 -79 79v177c0 52.667 26.333 79 79 79h92c52.667 0 79 -26.333 79 -79v-35h-69v24c0 12.667 -2 21 -6 25s-12.333 6 -25 6h-50c-12.667 0 -21 -2 -25 -6s-6 -12.333 -6 -25v-155
c0 -13.333 2 -21.833 6 -25.5s12.333 -5.5 25 -5.5h50c12.667 0 21 1.83301 25 5.5s6 12.167 6 25.5zM257 60h186c94 0 141 70 141 210v73c0 147.333 -47 221 -141 221h-186c-94 0 -141 -73.667 -141 -221v-73c0 -140 47 -210 141 -210zM651 342v-71
c0 -92.667 -16.5 -161 -49.5 -205s-85.167 -66 -156.5 -66h-190c-71.333 0 -123.5 22 -156.5 66s-49.5 112.333 -49.5 205v71c0 94 16.667 164.167 50 210.5s85.333 69.5 156 69.5h190c70.667 0 122.667 -23.167 156 -69.5s50 -116.5 50 -210.5z" />
    <glyph glyph-name="ordfeminine" unicode="&#xaa;" horiz-adv-x="236" 
d="M157 622h49v-342h-49v24c-5.33301 -16 -18.333 -24 -39 -24h-37c-37.333 0 -56 18.667 -56 56v230c0 37.333 18.667 56 56 56h37c20.667 0 33.667 -8 39 -24v24zM96 323h36.999c8.66699 0 14.834 1.83301 18.501 5.5s5.5 10.167 5.5 19.5v206c0 17.333 -8 26 -24 26h-37
c-9.33301 0 -15.5 -1.33301 -18.5 -4s-4.5 -8.66699 -4.5 -18v-213c0 -9.33301 1.5 -15.333 4.5 -18s9.16699 -4 18.5 -4z" />
    <glyph glyph-name="guillemotleft" unicode="&#xab;" horiz-adv-x="487" 
d="M364 106l-121 156l121 156h77l-124 -157l124 -155h-77zM164 106l-121 156l121 156h77l-124 -157l124 -155h-77z" />
    <glyph glyph-name="logicalnot" unicode="&#xac;" horiz-adv-x="432" 
d="M392 395v-218h-59v150h-303v68h362z" />
    <glyph glyph-name="uni00AD" unicode="&#xad;" horiz-adv-x="307" 
d="M55 263v58h196v-58h-196z" />
    <glyph glyph-name="registered" unicode="&#xae;" horiz-adv-x="397" 
d="M216 527v60c0 4.66699 -2 7 -6 7h-27v-73h27c4 0 6 2 6 6zM152 620h64c20.667 0 31 -10 31 -30v-66c0 -17.333 -7 -27.333 -21 -30l32 -87h-32l-31 86h-12v-86h-31v213zM148 376h102c50.667 0 76 37.667 76 113v40c0 80.667 -25.333 121 -76 121h-102
c-50.667 0 -76 -40.333 -76 -121v-40c0 -75.333 25.333 -113 76 -113zM362 529v-39c0 -50 -9 -87 -27 -111s-46.333 -36 -85 -36h-103c-38.667 0 -67 12 -85 36s-27 61 -27 111v39c0 101.333 37.333 152 112 152h103c74.667 0 112 -50.667 112 -152z" />
    <glyph glyph-name="macron" unicode="&#xaf;" horiz-adv-x="400" 
d="M82 550v58h236v-58h-236z" />
    <glyph glyph-name="degree" unicode="&#xb0;" horiz-adv-x="356" 
d="M228 439v97c0 12.667 -2 20.834 -6 24.501s-12.333 5.5 -25 5.5h-44c-12.667 0 -21 -1.83301 -25 -5.5s-6 -11.834 -6 -24.501v-97c0 -12.667 2 -20.834 6 -24.501s12.333 -5.5 25 -5.5h44c12.667 0 21 1.83301 25 5.5s6 11.834 6 24.501zM292 545v-115
c0 -51.333 -25.667 -77 -77 -77h-80c-51.333 0 -77 25.667 -77 77v115c0 51.333 25.667 77 77 77h80c51.333 0 77 -25.667 77 -77z" />
    <glyph glyph-name="plusminus" unicode="&#xb1;" horiz-adv-x="390" 
d="M230 409h130v-60h-130v-80h-70v80h-130v60h130v80h70v-80zM30 179v60h330v-60h-330z" />
    <glyph glyph-name="twosuperior" unicode="&#xb2;" 
d="M61 563v-50.999h-47v67c0 28.667 14.333 43 43 43h63c28.667 0 43 -14.333 43 -43v-31c0 -30.667 -5.33301 -56.334 -16 -77.001l-79 -146h98v-45h-152v44l86 158c10 18.667 15 41.667 15 69v12c0 7.33301 -1.16699 12 -3.5 14s-6.83301 3 -13.5 3h-20
c-6.66699 0 -11.167 -1 -13.5 -3s-3.5 -6.66699 -3.5 -14z" />
    <glyph glyph-name="threesuperior" unicode="&#xb3;" horiz-adv-x="196" 
d="M64 563v-46h-48v62c0 28.667 14.667 43 44 43h66c29.333 0 44 -14.333 44 -43v-99c0 -16 -7 -24.667 -21 -26c14 -2 21 -10.667 21 -26v-105c0 -28.667 -14.667 -43 -44 -43h-66c-29.333 0 -44 14.333 -44 43v62h48v-45c0 -7.33301 1 -12.166 3 -14.499
s6.66699 -3.5 14 -3.5h24c7.33301 0 12 1.16699 14 3.5s3 7.16602 3 14.499v75c0 7.33301 -1 12 -3 14s-6.66699 3 -14 3h-30v43h30c7.33301 0 12 1.16699 14 3.5s3 6.83301 3 13.5v71c0 7.33301 -1 12 -3 14s-6.66699 3 -14 3h-24c-7.33301 0 -12 -1 -14 -3
s-3 -6.66699 -3 -14z" />
    <glyph glyph-name="acute" unicode="&#xb4;" horiz-adv-x="400" 
d="M118 516l78 127h82l-98 -127h-62z" />
    <glyph glyph-name="uni00B5" unicode="&#xb5;" horiz-adv-x="339" 
d="M214 485l68.999 0.000976562v-485h-69v33c-7.33301 -22 -25.666 -33 -54.999 -33h-50v-141h-69v626h69v-395c0 -13.333 1.83301 -21.833 5.5 -25.5s12.167 -5.5 25.5 -5.5h40c12 0 20.667 2.66699 26 8s8 14.666 8 27.999v390z" />
    <glyph glyph-name="paragraph" unicode="&#xb6;" horiz-adv-x="490" 
d="M357 622h68v-763h-68v763zM275 622v-763h-68v371h-73c-52.667 0 -79 26.333 -79 79v234c0 52.667 26.333 79 79 79h141z" />
    <glyph glyph-name="periodcentered" unicode="&#xb7;" horiz-adv-x="202" 
d="M30 259v112h82v-112h-82z" />
    <glyph glyph-name="cedilla" unicode="&#xb8;" horiz-adv-x="400" 
d="M208 -73v22h65v-28c0 -29.333 -7.83301 -51.5 -23.5 -66.5s-37.5 -22.5 -65.5 -22.5h-48v58h37c12.667 0 21.667 2.83301 27 8.5s8 15.167 8 28.5z" />
    <glyph glyph-name="onesuperior" unicode="&#xb9;" horiz-adv-x="126" 
d="M96 622v-342h-48v300h-37v42h85z" />
    <glyph glyph-name="ordmasculine" unicode="&#xba;" horiz-adv-x="226" 
d="M82 622h62c37.333 0 56 -18.667 56 -56v-230c0 -37.333 -18.667 -56 -56 -56h-62c-37.333 0 -56 18.667 -56 56v230c0 37.333 18.667 56 56 56zM152 344v214c0 9.33301 -1.5 15.333 -4.5 18s-9.16699 4 -18.5 4h-33c-9.33301 0 -15.333 -1.33301 -18 -4
s-4 -8.66699 -4 -18v-214c0 -9.33301 1.33301 -15.333 4 -18s8.66699 -4 18 -4h33c9.33301 0 15.5 1.33301 18.5 4s4.5 8.66699 4.5 18z" />
    <glyph glyph-name="guillemotright" unicode="&#xbb;" horiz-adv-x="487" 
d="M441 262l-121 -156h-77l124 155l-124 157h77zM241 262l-121 -156h-77l124 155l-124 157h77z" />
    <glyph glyph-name="questiondown" unicode="&#xbf;" horiz-adv-x="308" 
d="M194 26h69v-86c0 -51.333 -26.333 -77 -79 -77h-85c-52.667 0 -79 25.667 -79 77v204c0 52 26.333 78 79 78h18l3 67h57l6 -126h-66c-12 0 -19.667 -2.16699 -23 -6.5s-5 -12.833 -5 -25.5v-177c0 -12.667 1.66699 -21.334 5 -26.001s11 -7 23 -7h48
c12.667 0 20.667 2.33301 24 7s5 13.334 5 26.001v72zM190 485v-112h-82v112h82z" />
    <glyph glyph-name="Agrave" unicode="&#xc0;" horiz-adv-x="343" 
d="M259 0l-26 158h-126l-23 -158h-69l97 622h109l107 -622h-69zM115 217h109l-58 357zM191 653h-62l-98 127h82z" />
    <glyph glyph-name="Aacute" unicode="&#xc1;" horiz-adv-x="343" 
d="M259 0l-26 158h-126l-23 -158h-69l97 622h109l107 -622h-69zM115 217h109l-58 357zM295 780l-98 -127h-62l78 127h82z" />
    <glyph glyph-name="Acircumflex" unicode="&#xc2;" horiz-adv-x="343" 
d="M259 0l-26 158h-126l-23 -158h-69l97 622h109l107 -622h-69zM115 217h109l-58 357zM166 737l-52 -84h-76l85 127h87l85 -127h-76z" />
    <glyph glyph-name="Atilde" unicode="&#xc3;" horiz-adv-x="343" 
d="M259 0l-26 158h-126l-23 -158h-69l97 622h109l107 -622h-69zM115 217h109l-58 357zM103 664l0.000976562 -11h-62v14c0 24.667 5.5 43.5 16.5 56.5s29.5 19.5 55.5 19.5h6c15.333 0 32.666 -5.83301 51.999 -17.5s32.5 -17.5 39.5 -17.5s11.833 1.66699 14.5 5s4 10 4 20
v10h62v-14c0 -24.667 -5.16699 -43.5 -15.5 -56.5s-28.833 -19.5 -55.5 -19.5h-5c-16 0 -34.167 5.83301 -54.5 17.5s-33.833 17.5 -40.5 17.5c-11.333 0 -17 -8 -17 -24z" />
    <glyph glyph-name="Adieresis" unicode="&#xc4;" horiz-adv-x="343" 
d="M259 0l-26 158h-126l-23 -158h-69l97 622h109l107 -622h-69zM115 217h109l-58 357zM122 737v-84h-88v84h88zM298 737v-84h-88v84h88z" />
    <glyph glyph-name="Aring" unicode="&#xc5;" horiz-adv-x="343" 
d="M259 0l-26 158h-126l-23 -158h-69l97 622h109l107 -622h-69zM115 217h109l-58 357zM196 653h-60c-43.333 0 -65 21.667 -65 65v17c0 43.333 21.667 65 65 65h60c43.333 0 65 -21.667 65 -65v-17c0 -43.333 -21.667 -65 -65 -65zM122 729v-5
c0 -11.333 1.66699 -18.666 5 -21.999s11 -5 23 -5h32c12 0 19.667 1.66699 23 5s5 10.666 5 21.999v5c0 11.333 -1.66699 18.666 -5 21.999s-11 5 -23 5h-32c-12 0 -19.667 -1.66699 -23 -5s-5 -10.666 -5 -21.999z" />
    <glyph glyph-name="AE" unicode="&#xc6;" horiz-adv-x="528" 
d="M333 59h171v-59h-240v158h-125l-56 -158h-69l226 622h257v-59h-164v-210h134v-59h-134v-235zM264 217v292l-104 -292h104z" />
    <glyph glyph-name="Ccedilla" unicode="&#xc7;" horiz-adv-x="345" 
d="M305 438h-69v94c0 13.333 -2 21.833 -6 25.5s-12.333 5.5 -25 5.5h-55c-13.333 0 -21.833 -1.83301 -25.5 -5.5s-5.5 -12.167 -5.5 -25.5v-443c0 -12.667 1.83301 -21 5.5 -25s12.167 -6 25.5 -6h55c12.667 0 21 2 25 6s6 12.333 6 25v94h69v-105
c0 -52.667 -26.333 -79 -79 -79h-97c-52.667 0 -79 26.333 -79 79v465c0 52.667 26.333 79 79 79h97c52.667 0 79 -26.333 79 -79v-105zM149 -73v22h65v-28c0 -29.333 -7.83301 -51.5 -23.5 -66.5s-37.5 -22.5 -65.5 -22.5h-48v58h37c12.667 0 21.667 2.83301 27 8.5
s8 15.167 8 28.5z" />
    <glyph glyph-name="Egrave" unicode="&#xc8;" horiz-adv-x="315" 
d="M124 59h171v-59h-240v622h233v-59h-164v-210h134v-59h-134v-235zM202 653h-62l-98 127h82z" />
    <glyph glyph-name="Eacute" unicode="&#xc9;" horiz-adv-x="315" 
d="M124 294v-235h171v-59h-240v622h233v-59h-164v-210h134v-59h-134zM296 780l-98 -127h-62l78 127h82z" />
    <glyph glyph-name="Ecircumflex" unicode="&#xca;" horiz-adv-x="315" 
d="M124 294v-235h171v-59h-240v622h233v-59h-164v-210h134v-59h-134zM172 737l-52 -84h-76l85 127h87l85 -127h-76z" />
    <glyph glyph-name="Edieresis" unicode="&#xcb;" horiz-adv-x="315" 
d="M213 737h88v-84h-88v84zM124 294v-235h171v-59h-240v622h233v-59h-164v-210h134v-59h-134zM125 737v-84h-88v84h88z" />
    <glyph glyph-name="Igrave" unicode="&#xcc;" horiz-adv-x="198" 
d="M52 780l78 -127h-62l-98 127h82zM65 622h68v-622h-68v622z" />
    <glyph glyph-name="Iacute" unicode="&#xcd;" horiz-adv-x="198" 
d="M72 653l78 127h82l-98 -127h-62zM65 622h68v-622h-68v622z" />
    <glyph glyph-name="Icircumflex" unicode="&#xce;" horiz-adv-x="198" 
d="M-28 653l85 127h87l85 -127h-76l-53 84l-52 -84h-76zM65 622h68v-622h-68v622z" />
    <glyph glyph-name="Idieresis" unicode="&#xcf;" horiz-adv-x="198" 
d="M65 622h68v-622h-68v622zM141 653v84h88v-84h-88zM-35 653v84h88v-84h-88z" />
    <glyph glyph-name="Eth" unicode="&#xd0;" horiz-adv-x="381" 
d="M55 622h197c52.667 0 79 -26.333 79 -79v-464c0 -52.667 -26.333 -79 -79 -79h-197v283h-50v59h50v280zM262 90v442c0 13.333 -2 21.833 -6 25.5s-12.333 5.5 -25 5.5h-107v-221h80v-59h-80v-224h107c12.667 0 21 1.83301 25 5.5s6 12.167 6 25.5z" />
    <glyph glyph-name="Ntilde" unicode="&#xd1;" horiz-adv-x="377" 
d="M237 653c-16 0 -34.166 5.83301 -54.499 17.5s-33.833 17.5 -40.5 17.5c-11.333 0 -17 -8 -17 -24v-11h-62v14c0 24.667 5.5 43.5 16.5 56.5s29.5 19.5 55.5 19.5h6c15.333 0 32.666 -5.83301 51.999 -17.5s32.5 -17.5 39.5 -17.5s11.833 1.66699 14.5 5s4 10 4 20v10h62
v-14c0 -24.667 -5.16699 -43.5 -15.5 -56.5s-28.833 -19.5 -55.5 -19.5h-5zM259.001 622h63v-622h-75l-129 482v-482h-63v622h80l124 -465v465z" />
    <glyph glyph-name="Ograve" unicode="&#xd2;" horiz-adv-x="360" 
d="M129 622h102c52.667 0 79 -26.333 79 -79v-464c0 -52.667 -26.333 -79 -79 -79h-102c-52.667 -0 -79 26.333 -79 79v464c0 52.667 26.333 79 79 79zM242 90v442c0 13.333 -2 21.833 -6 25.5s-12.333 5.5 -25 5.5h-62c-12.667 0 -21 -1.83301 -25 -5.5
s-6 -12.167 -6 -25.5v-442c0 -13.333 2 -21.833 6 -25.5s12.333 -5.5 25 -5.5h62c12.667 0 21 1.83301 25 5.5s6 12.167 6 25.5zM200 653h-62l-98 127h82z" />
    <glyph glyph-name="Oacute" unicode="&#xd3;" horiz-adv-x="360" 
d="M129 622h102c52.667 0 79 -26.333 79 -79v-464c0 -52.667 -26.333 -79 -79 -79h-102c-52.667 -0 -79 26.333 -79 79v464c0 52.667 26.333 79 79 79zM242 90v442c0 13.333 -2 21.833 -6 25.5s-12.333 5.5 -25 5.5h-62c-12.667 0 -21 -1.83301 -25 -5.5
s-6 -12.167 -6 -25.5v-442c0 -13.333 2 -21.833 6 -25.5s12.333 -5.5 25 -5.5h62c12.667 0 21 1.83301 25 5.5s6 12.167 6 25.5zM300 780l-98 -127h-62l78 127h82z" />
    <glyph glyph-name="Ocircumflex" unicode="&#xd4;" horiz-adv-x="360" 
d="M129 622h102c52.667 0 79 -26.333 79 -79v-464c0 -52.667 -26.333 -79 -79 -79h-102c-52.667 -0 -79 26.333 -79 79v464c0 52.667 26.333 79 79 79zM242 90v442c0 13.333 -2 21.833 -6 25.5s-12.333 5.5 -25 5.5h-62c-12.667 0 -21 -1.83301 -25 -5.5
s-6 -12.167 -6 -25.5v-442c0 -13.333 2 -21.833 6 -25.5s12.333 -5.5 25 -5.5h62c12.667 0 21 1.83301 25 5.5s6 12.167 6 25.5zM179 737l-52 -84h-76l85 127h87l85 -127h-76z" />
    <glyph glyph-name="Otilde" unicode="&#xd5;" horiz-adv-x="360" 
d="M129 622h102c52.667 0 79 -26.333 79 -79v-464c0 -52.667 -26.333 -79 -79 -79h-102c-52.667 -0 -79 26.333 -79 79v464c0 52.667 26.333 79 79 79zM242 90v442c0 13.333 -2 21.833 -6 25.5s-12.333 5.5 -25 5.5h-62c-12.667 0 -21 -1.83301 -25 -5.5
s-6 -12.167 -6 -25.5v-442c0 -13.333 2 -21.833 6 -25.5s12.333 -5.5 25 -5.5h62c12.667 0 21 1.83301 25 5.5s6 12.167 6 25.5zM116 664l0.000976562 -11h-62v14c0 24.667 5.5 43.5 16.5 56.5s29.5 19.5 55.5 19.5h6c15.333 0 32.666 -5.83301 51.999 -17.5
s32.5 -17.5 39.5 -17.5s11.833 1.66699 14.5 5s4 10 4 20v10h62v-14c0 -24.667 -5.16699 -43.5 -15.5 -56.5s-28.833 -19.5 -55.5 -19.5h-5c-16 0 -34.167 5.83301 -54.5 17.5s-33.833 17.5 -40.5 17.5c-11.333 0 -17 -8 -17 -24z" />
    <glyph glyph-name="Odieresis" unicode="&#xd6;" horiz-adv-x="360" 
d="M224 737h88v-84h-88v84zM129 622h102c52.667 0 79 -26.333 79 -79v-464c0 -52.667 -26.333 -79 -79 -79h-102c-52.667 -0 -79 26.333 -79 79v464c0 52.667 26.333 79 79 79zM242 90v442c0 13.333 -2 21.833 -6 25.5s-12.333 5.5 -25 5.5h-62
c-12.667 0 -21 -1.83301 -25 -5.5s-6 -12.167 -6 -25.5v-442c0 -13.333 2 -21.833 6 -25.5s12.333 -5.5 25 -5.5h62c12.667 0 21 1.83301 25 5.5s6 12.167 6 25.5zM136 737v-84h-88v84h88z" />
    <glyph glyph-name="multiply" unicode="&#xd7;" horiz-adv-x="350" 
d="M325 416l-105 -105l105 -105l-45 -45l-105 105l-105 -105l-45 45l105 105l-105 105l45 45l105 -105l105 105z" />
    <glyph glyph-name="Oslash" unicode="&#xd8;" horiz-adv-x="370" 
d="M315 543v-464c0 -52.667 -26.333 -79 -79 -79h-102c-6.66699 0 -14.667 0.666992 -24 2l-7 -22h-48l15 45c-10 12.667 -15 30.667 -15 54v464c0 52.667 26.333 79 79 79h102c6.66699 0 14.667 -0.666992 24 -2l7 22h48l-15 -45c10 -12.667 15 -30.667 15 -54zM122 535
v-346l119 372c-4 3.33301 -12.333 5 -25 5h-63c-12.667 0 -21 -2 -25 -6s-6 -12.333 -6 -25zM248 87v346l-119 -372c3.33301 -3.33301 11.333 -5 24 -5h63c13.333 0 22 1.83301 26 5.5s6 12.167 6 25.5z" />
    <glyph glyph-name="Ugrave" unicode="&#xd9;" horiz-adv-x="364" 
d="M244 622h68v-543c0 -52.667 -26.333 -79 -79 -79h-102c-52.667 -0 -79 26.333 -79 79v543h68v-532c0 -13.333 2 -21.833 6 -25.5s12.333 -5.5 25 -5.5h62c12.667 0 21 1.83301 25 5.5s6 12.167 6 25.5v532zM213 653h-62l-98 127h82z" />
    <glyph glyph-name="Uacute" unicode="&#xda;" horiz-adv-x="364" 
d="M244 622h68v-543c0 -52.667 -26.333 -79 -79 -79h-102c-52.667 -0 -79 26.333 -79 79v543h68v-532c0 -13.333 2 -21.833 6 -25.5s12.333 -5.5 25 -5.5h62c12.667 0 21 1.83301 25 5.5s6 12.167 6 25.5v532zM310 780l-98 -127h-62l78 127h82z" />
    <glyph glyph-name="Ucircumflex" unicode="&#xdb;" horiz-adv-x="364" 
d="M244 622h68v-543c0 -52.667 -26.333 -79 -79 -79h-102c-52.667 -0 -79 26.333 -79 79v543h68v-532c0 -13.333 2 -21.833 6 -25.5s12.333 -5.5 25 -5.5h62c12.667 0 21 1.83301 25 5.5s6 12.167 6 25.5v532zM181 737l-52 -84h-76l85 127h87l85 -127h-76z" />
    <glyph glyph-name="Udieresis" unicode="&#xdc;" horiz-adv-x="364" 
d="M226 737h88v-84h-88v84zM244 90v532h68v-543c0 -52.667 -26.333 -79 -79 -79h-102c-52.667 -0 -79 26.333 -79 79v543h68v-532c0 -13.333 2 -21.833 6 -25.5s12.333 -5.5 25 -5.5h62c12.667 0 21 1.83301 25 5.5s6 12.167 6 25.5zM138 737v-84h-88v84h88z" />
    <glyph glyph-name="Yacute" unicode="&#xdd;" horiz-adv-x="319" 
d="M196 0h-68v190l-123 432h69l88 -365l83 365h69l-118 -432v-190zM291 780l-98 -127h-62l78 127h82z" />
    <glyph glyph-name="Thorn" unicode="&#xde;" horiz-adv-x="345" 
d="M123 497h113c52.667 0 79 -26.333 79 -79v-214c0 -52.667 -26.333 -79 -79 -79h-113v-125h-68v622h68v-125zM247 215v192c0 12.667 -1.83301 21 -5.5 25s-12.167 6 -25.5 6h-93v-254h93c13.333 0 21.833 2 25.5 6s5.5 12.333 5.5 25z" />
    <glyph glyph-name="germandbls" unicode="&#xdf;" horiz-adv-x="424" 
d="M184 148h67v-59c0 -12.667 1.83301 -21 5.5 -25s12.167 -6 25.5 -6h9c12.667 0 21 2 25 6s6 12.333 6 25v92c0 12.667 -2 21 -6 25s-12.333 6 -25 6h-30c-52.667 0 -79 26.333 -79 79v65c0 52.667 25 79 75 79c17.333 0 28.333 1.5 33 4.5s7 9.83301 7 20.5v35
c0 13.333 -2 22 -6 26s-12.333 6 -25 6h-121c-12.667 0 -21.167 -2.16699 -25.5 -6.5s-6.5 -12.833 -6.5 -25.5v-495h-68v510c0 52.667 26.333 79 79 79h160c52.667 0 79 -26.333 79 -79v-68c0 -20.667 -6 -36.667 -18 -48s-28.667 -17 -50 -17h-15c-13.333 0 -22 -2 -26 -6
s-6 -12.333 -6 -25v-45c0 -12.667 2 -21 6 -25s12.667 -6 26 -6h30c52.667 0 79 -26.333 79 -79v-112c0 -52.667 -26.333 -79 -79 -79h-47c-52.667 -0 -79 26.333 -79 79v69z" />
    <glyph glyph-name="agrave" unicode="&#xe0;" horiz-adv-x="328" 
d="M214 485h69v-485h-69v33c-7.33301 -22 -25.666 -33 -54.999 -33h-40c-52.667 -0 -79 26.333 -79 79v327c0 52.667 26.333 79 79 79h40c29.333 0 47.666 -11 54.999 -33v33zM140 59l40 0.00195312c12 0 20.667 2.66699 26 8s8 14.666 8 27.999v295
c0 13.333 -2.66699 22.666 -8 27.999s-14 8 -26 8h-40c-13.333 0 -21.833 -2 -25.5 -6s-5.5 -12.333 -5.5 -25v-305c0 -13.333 1.83301 -21.833 5.5 -25.5s12.167 -5.5 25.5 -5.5zM221 516.002h-62l-98 127h82z" />
    <glyph glyph-name="aacute" unicode="&#xe1;" horiz-adv-x="328" 
d="M214 485h69v-485h-69v33c-7.33301 -22 -25.666 -33 -54.999 -33h-40c-52.667 -0 -79 26.333 -79 79v327c0 52.667 26.333 79 79 79h40c29.333 0 47.666 -11 54.999 -33v33zM140 59l40 0.00195312c12 0 20.667 2.66699 26 8s8 14.666 8 27.999v295
c0 13.333 -2.66699 22.666 -8 27.999s-14 8 -26 8h-40c-13.333 0 -21.833 -2 -25.5 -6s-5.5 -12.333 -5.5 -25v-305c0 -13.333 1.83301 -21.833 5.5 -25.5s12.167 -5.5 25.5 -5.5zM298 643.002l-98 -127h-62l78 127h82z" />
    <glyph glyph-name="acircumflex" unicode="&#xe2;" horiz-adv-x="328" 
d="M214 485h69v-485h-69v33c-7.33301 -22 -25.666 -33 -54.999 -33h-40c-52.667 -0 -79 26.333 -79 79v327c0 52.667 26.333 79 79 79h40c29.333 0 47.666 -11 54.999 -33v33zM140 59l40 0.00195312c12 0 20.667 2.66699 26 8s8 14.666 8 27.999v295
c0 13.333 -2.66699 22.666 -8 27.999s-14 8 -26 8h-40c-13.333 0 -21.833 -2 -25.5 -6s-5.5 -12.333 -5.5 -25v-305c0 -13.333 1.83301 -21.833 5.5 -25.5s12.167 -5.5 25.5 -5.5zM166 600.002l-52 -84h-76l85 127h87l85 -127h-76z" />
    <glyph glyph-name="atilde" unicode="&#xe3;" horiz-adv-x="328" 
d="M222 624h62.001v-14c0 -24.667 -5.16699 -43.5 -15.5 -56.5s-28.833 -19.5 -55.5 -19.5h-5c-16 0 -34.167 5.83301 -54.5 17.5s-33.833 17.5 -40.5 17.5c-11.333 0 -17 -8 -17 -24v-11h-62v14c0 24.667 5.5 43.5 16.5 56.5s29.5 19.5 55.5 19.5h6
c15.333 0 32.666 -5.83301 51.999 -17.5s32.5 -17.5 39.5 -17.5s11.833 1.66699 14.5 5s4 10 4 20v10zM214.001 485h69v-485h-69v33c-7.33301 -22 -25.666 -33 -54.999 -33h-40c-52.667 -0 -79 26.333 -79 79v327c0 52.667 26.333 79 79 79h40
c29.333 0 47.666 -11 54.999 -33v33zM140.001 59l40 0.00195312c12 0 20.667 2.66699 26 8s8 14.666 8 27.999v295c0 13.333 -2.66699 22.666 -8 27.999s-14 8 -26 8h-40c-13.333 0 -21.833 -2 -25.5 -6s-5.5 -12.333 -5.5 -25v-305c0 -13.333 1.83301 -21.833 5.5 -25.5
s12.167 -5.5 25.5 -5.5z" />
    <glyph glyph-name="adieresis" unicode="&#xe4;" horiz-adv-x="328" 
d="M204 625h88v-84h-88v84zM214 485h69v-485h-69v33c-7.33301 -22 -25.666 -33 -54.999 -33h-40c-52.667 -0 -79 26.333 -79 79v327c0 52.667 26.333 79 79 79h40c29.333 0 47.666 -11 54.999 -33v33zM140 59l40 0.00195312c12 0 20.667 2.66699 26 8s8 14.666 8 27.999v295
c0 13.333 -2.66699 22.666 -8 27.999s-14 8 -26 8h-40c-13.333 0 -21.833 -2 -25.5 -6s-5.5 -12.333 -5.5 -25v-305c0 -13.333 1.83301 -21.833 5.5 -25.5s12.167 -5.5 25.5 -5.5zM116 625.002v-84h-88v84h88z" />
    <glyph glyph-name="aring" unicode="&#xe5;" horiz-adv-x="328" 
d="M214 485h69v-485h-69v33c-7.33301 -22 -25.666 -33 -54.999 -33h-40c-52.667 -0 -79 26.333 -79 79v327c0 52.667 26.333 79 79 79h40c29.333 0 47.666 -11 54.999 -33v33zM140 59l40 0.00195312c12 0 20.667 2.66699 26 8s8 14.666 8 27.999v295
c0 13.333 -2.66699 22.666 -8 27.999s-14 8 -26 8h-40c-13.333 0 -21.833 -2 -25.5 -6s-5.5 -12.333 -5.5 -25v-305c0 -13.333 1.83301 -21.833 5.5 -25.5s12.167 -5.5 25.5 -5.5zM198 527.002h-60c-43.333 0 -65 21.667 -65 65v17c0 43.333 21.667 65 65 65h60
c43.333 0 65 -21.667 65 -65v-17c0 -43.333 -21.667 -65 -65 -65zM124 603.002v-5c0 -11.333 1.66699 -18.666 5 -21.999s11 -5 23 -5h32c12 0 19.667 1.66699 23 5s5 10.666 5 21.999v5c0 11.333 -1.66699 18.666 -5 21.999s-11 5 -23 5h-32c-12 0 -19.667 -1.66699 -23 -5
s-5 -10.666 -5 -21.999z" />
    <glyph glyph-name="ae" unicode="&#xe6;" horiz-adv-x="509" 
d="M288 219v-129c0 -13.333 2 -21.833 6 -25.5s12.333 -5.5 25 -5.5h47c13.333 0 21.833 1.83301 25.5 5.5s5.5 12.167 5.5 25.5v44h69v-55c0 -52.667 -26.333 -79 -79 -79h-80c-13.333 -0 -25.166 3.83301 -35.499 11.5s-16.833 16.5 -19.5 26.5
c-2.66699 -10 -9.16699 -18.833 -19.5 -26.5s-22.833 -11.5 -37.5 -11.5h-71c-52.667 -0 -79 26.333 -79 79v121l174 71v125c-2 20 -13.333 30 -34 30h-40c-12.667 0 -21 -2 -25 -6s-6 -12.333 -6 -25v-83h-69v94c0 52.667 26.333 79 79 79h71
c14.667 0 27.167 -3.83301 37.5 -11.5s16.833 -16.5 19.5 -26.5c2.66699 10 9.16699 18.833 19.5 26.5s22.166 11.5 35.499 11.5h83c52.667 0 79 -26.333 79 -79v-187h-181zM369 426h-50c-12.667 0 -21 -2 -25 -6s-6 -12.333 -6 -25v-117h112v117c0 12.667 -2 21 -6 25
s-12.333 6 -25 6zM145 59l40.001 0.000976562c11.333 0 19.666 2.16699 24.999 6.5s8.33301 12.166 9 23.499v119l-105 -42v-76c0 -13.333 2 -21.833 6 -25.5s12.333 -5.5 25 -5.5z" />
    <glyph glyph-name="ccedilla" unicode="&#xe7;" horiz-adv-x="325" 
d="M290 341h-69v54c0 12.667 -1.83301 21 -5.5 25s-12.167 6 -25.5 6h-50c-13.333 0 -21.833 -2 -25.5 -6s-5.5 -12.333 -5.5 -25v-305c0 -13.333 1.83301 -21.833 5.5 -25.5s12.167 -5.5 25.5 -5.5h50c13.333 0 21.833 1.83301 25.5 5.5s5.5 12.167 5.5 25.5v54h69v-65
c0 -52.667 -26.333 -79 -79 -79h-92c-52.667 -0 -79 26.333 -79 79v327c0 52.667 26.333 79 79 79h92c52.667 0 79 -26.333 79 -79v-65zM136 -73v22h65v-28c0 -29.333 -7.83301 -51.5 -23.5 -66.5s-37.5 -22.5 -65.5 -22.5h-48v58h37c12.667 0 21.667 2.83301 27 8.5
s8 15.167 8 28.5z" />
    <glyph glyph-name="egrave" unicode="&#xe8;" horiz-adv-x="330" 
d="M124 485h92c52.667 0 79 -26.333 79 -79v-187h-181v-129c0 -13.333 2 -21.833 6 -25.5s12.333 -5.5 25 -5.5h47c13.333 0 21.833 1.83301 25.5 5.5s5.5 12.167 5.5 25.5v44h69v-55c0 -52.667 -26.333 -79 -79 -79h-89c-52.667 -0 -79 26.333 -79 79v327
c0 52.667 26.333 79 79 79zM114 278h112v117c0 12.667 -2 21 -6 25s-12.333 6 -25 6h-50c-12.667 0 -21 -2 -25 -6s-6 -12.333 -6 -25v-117zM197 516h-62l-98 127h82z" />
    <glyph glyph-name="eacute" unicode="&#xe9;" horiz-adv-x="330" 
d="M124 485h92c52.667 0 79 -26.333 79 -79v-187h-181v-129c0 -13.333 2 -21.833 6 -25.5s12.333 -5.5 25 -5.5h47c13.333 0 21.833 1.83301 25.5 5.5s5.5 12.167 5.5 25.5v44h69v-55c0 -52.667 -26.333 -79 -79 -79h-89c-52.667 -0 -79 26.333 -79 79v327
c0 52.667 26.333 79 79 79zM114 278h112v117c0 12.667 -2 21 -6 25s-12.333 6 -25 6h-50c-12.667 0 -21 -2 -25 -6s-6 -12.333 -6 -25v-117zM298 643l-98 -127h-62l78 127h82z" />
    <glyph glyph-name="ecircumflex" unicode="&#xea;" horiz-adv-x="328" 
d="M124 485h92c52.667 0 79 -26.333 79 -79v-187h-181v-129c0 -13.333 2 -21.833 6 -25.5s12.333 -5.5 25 -5.5h47c13.333 0 21.833 1.83301 25.5 5.5s5.5 12.167 5.5 25.5v44h69v-55c0 -52.667 -26.333 -79 -79 -79h-89c-52.667 -0 -79 26.333 -79 79v327
c0 52.667 26.333 79 79 79zM114 278h112v117c0 12.667 -2 21 -6 25s-12.333 6 -25 6h-50c-12.667 0 -21 -2 -25 -6s-6 -12.333 -6 -25v-117zM171 600l-52 -84h-76l85 127h87l85 -127h-76z" />
    <glyph glyph-name="edieresis" unicode="&#xeb;" horiz-adv-x="328" 
d="M208 625h88v-84h-88v84zM124 485h92c52.667 0 79 -26.333 79 -79v-187h-181v-129c0 -13.333 2 -21.833 6 -25.5s12.333 -5.5 25 -5.5h47c13.333 0 21.833 1.83301 25.5 5.5s5.5 12.167 5.5 25.5v44h69v-55c0 -52.667 -26.333 -79 -79 -79h-89
c-52.667 -0 -79 26.333 -79 79v327c0 52.667 26.333 79 79 79zM114 278h112v117c0 12.667 -2 21 -6 25s-12.333 6 -25 6h-50c-12.667 0 -21 -2 -25 -6s-6 -12.333 -6 -25v-117zM120 625v-84h-88v84h88z" />
    <glyph glyph-name="igrave" unicode="&#xec;" horiz-adv-x="159" 
d="M32 643l78 -127h-62l-98 127h82zM114 0h-69v485h69v-485z" />
    <glyph glyph-name="iacute" unicode="&#xed;" horiz-adv-x="159" 
d="M45 516l78 127h82l-98 -127h-62zM114 0h-69v485h69v-485z" />
    <glyph glyph-name="icircumflex" unicode="&#xee;" horiz-adv-x="159" 
d="M-48 516l85 127h87l85 -127h-76l-53 84l-52 -84h-76zM114 0h-69v485h69v-485z" />
    <glyph glyph-name="idieresis" unicode="&#xef;" horiz-adv-x="159" 
d="M124 541v84h88v-84h-88zM-52 541v84h88v-84h-88zM114 0h-69v485h69v-485z" />
    <glyph glyph-name="eth" unicode="&#xf0;" horiz-adv-x="347" 
d="M297 309v-229.999c0 -52.667 -26.333 -79 -79 -79h-99c-52.667 0 -79 26.333 -79 79v255c0 52.667 26.333 79 79 79h93c-12.667 40.667 -29.667 76.667 -51 108l-92 -35v48l65 25c-18.667 23.333 -39.667 44.333 -63 63h95c12.667 -12.667 24 -25.334 34 -38.001l89 34
v-48l-62 -24c46.667 -72 70 -151 70 -237zM228 90.001v208c0 21.333 -1.33301 40 -4 56h-84c-13.333 0 -21.833 -2 -25.5 -6s-5.5 -12.333 -5.5 -25v-233c0 -13.333 1.83301 -21.833 5.5 -25.5s12.167 -5.5 25.5 -5.5h57c12.667 0 21 1.83301 25 5.5s6 12.167 6 25.5z" />
    <glyph glyph-name="ntilde" unicode="&#xf1;" horiz-adv-x="333" 
d="M169 485l40.001 -0.000976562c52.667 0 79 -26.333 79 -79v-406h-69v395c0 12.667 -1.83301 21 -5.5 25s-12.167 6 -25.5 6h-40c-12 0 -20.667 -2.66699 -26 -8s-8 -14.666 -8 -27.999v-390h-69v485h69v-33c7.33301 22 25.666 33 54.999 33zM96.001 544.999
l0.000976562 -11h-62v14c0 24.667 5.5 43.5 16.5 56.5s29.5 19.5 55.5 19.5h6c15.333 0 32.666 -5.83301 51.999 -17.5s32.5 -17.5 39.5 -17.5s11.833 1.66699 14.5 5s4 10 4 20v10h62v-14c0 -24.667 -5.16699 -43.5 -15.5 -56.5s-28.833 -19.5 -55.5 -19.5h-5
c-16 0 -34.167 5.83301 -54.5 17.5s-33.833 17.5 -40.5 17.5c-11.333 0 -17 -8 -17 -24z" />
    <glyph glyph-name="ograve" unicode="&#xf2;" horiz-adv-x="340" 
d="M119 485h102c52.667 0 79 -26.333 79 -79v-327c0 -52.667 -26.333 -79 -79 -79h-102c-52.667 -0 -79 26.333 -79 79v327c0 52.667 26.333 79 79 79zM232 90v305c0 12.667 -2 21 -6 25s-12.333 6 -25 6h-62c-12.667 0 -21 -2 -25 -6s-6 -12.333 -6 -25v-305
c0 -13.333 2 -21.833 6 -25.5s12.333 -5.5 25 -5.5h62c12.667 0 21 1.83301 25 5.5s6 12.167 6 25.5zM198 516h-62l-98 127h82z" />
    <glyph glyph-name="oacute" unicode="&#xf3;" horiz-adv-x="340" 
d="M119 485h102c52.667 0 79 -26.333 79 -79v-327c0 -52.667 -26.333 -79 -79 -79h-102c-52.667 -0 -79 26.333 -79 79v327c0 52.667 26.333 79 79 79zM232 90v305c0 12.667 -2 21 -6 25s-12.333 6 -25 6h-62c-12.667 0 -21 -2 -25 -6s-6 -12.333 -6 -25v-305
c0 -13.333 2 -21.833 6 -25.5s12.333 -5.5 25 -5.5h62c12.667 0 21 1.83301 25 5.5s6 12.167 6 25.5zM294 643l-98 -127h-62l78 127h82z" />
    <glyph glyph-name="ocircumflex" unicode="&#xf4;" horiz-adv-x="340" 
d="M119 485h102c52.667 0 79 -26.333 79 -79v-327c0 -52.667 -26.333 -79 -79 -79h-102c-52.667 -0 -79 26.333 -79 79v327c0 52.667 26.333 79 79 79zM232 90v305c0 12.667 -2 21 -6 25s-12.333 6 -25 6h-62c-12.667 0 -21 -2 -25 -6s-6 -12.333 -6 -25v-305
c0 -13.333 2 -21.833 6 -25.5s12.333 -5.5 25 -5.5h62c12.667 0 21 1.83301 25 5.5s6 12.167 6 25.5zM167 600l-52 -84h-76l85 127h87l85 -127h-76z" />
    <glyph glyph-name="otilde" unicode="&#xf5;" horiz-adv-x="340" 
d="M119 485h102c52.667 0 79 -26.333 79 -79v-327c0 -52.667 -26.333 -79 -79 -79h-102c-52.667 -0 -79 26.333 -79 79v327c0 52.667 26.333 79 79 79zM232 90v305c0 12.667 -2 21 -6 25s-12.333 6 -25 6h-62c-12.667 0 -21 -2 -25 -6s-6 -12.333 -6 -25v-305
c0 -13.333 2 -21.833 6 -25.5s12.333 -5.5 25 -5.5h62c12.667 0 21 1.83301 25 5.5s6 12.167 6 25.5zM100 545l0.000976562 -11h-62v14c0 24.667 5.5 43.5 16.5 56.5s29.5 19.5 55.5 19.5h6c15.333 0 32.666 -5.83301 51.999 -17.5s32.5 -17.5 39.5 -17.5
s11.833 1.66699 14.5 5s4 10 4 20v10h62v-14c0 -24.667 -5.16699 -43.5 -15.5 -56.5s-28.833 -19.5 -55.5 -19.5h-5c-16 0 -34.167 5.83301 -54.5 17.5s-33.833 17.5 -40.5 17.5c-11.333 0 -17 -8 -17 -24z" />
    <glyph glyph-name="odieresis" unicode="&#xf6;" horiz-adv-x="340" 
d="M213 625h88v-84h-88v84zM119 485h102c52.667 0 79 -26.333 79 -79v-327c0 -52.667 -26.333 -79 -79 -79h-102c-52.667 -0 -79 26.333 -79 79v327c0 52.667 26.333 79 79 79zM232 90v305c0 12.667 -2 21 -6 25s-12.333 6 -25 6h-62c-12.667 0 -21 -2 -25 -6
s-6 -12.333 -6 -25v-305c0 -13.333 2 -21.833 6 -25.5s12.333 -5.5 25 -5.5h62c12.667 0 21 1.83301 25 5.5s6 12.167 6 25.5zM125 625v-84h-88v84h88z" />
    <glyph glyph-name="divide" unicode="&#xf7;" horiz-adv-x="380" 
d="M155 211h70v-80h-70v80zM155 491h70v-80h-70v80zM25 281v60h330v-60h-330z" />
    <glyph glyph-name="oslash" unicode="&#xf8;" horiz-adv-x="350" 
d="M305 406v-327c0 -52.667 -26.333 -79 -79 -79h-102c-5.33301 0 -12.666 0.666992 -21.999 2l-9 -22h-48l17 42c-11.333 13.333 -17 32.333 -17 57v327c0 52.667 26.333 79 79 79h102c5.33301 0 12.666 -0.666992 21.999 -2l9 22h48l-17 -42
c11.333 -13.333 17 -32.333 17 -57zM111 400l0.000976562 -257l116 287c-6.66699 1.33301 -13.334 2 -20.001 2h-64c-13.333 0 -22 -2 -26 -6s-6 -12.667 -6 -26zM239.001 85l-0.000976562 257l-116 -287c6.66699 -1.33301 13.334 -2 20.001 -2h64c13.333 0 22 2 26 6
s6 12.667 6 26z" />
    <glyph glyph-name="ugrave" unicode="&#xf9;" horiz-adv-x="333" 
d="M219 485l68.999 0.000976562v-485h-69v33c-7.33301 -22 -25.666 -33 -54.999 -33h-40c-52.667 0 -79 26.333 -79 79v406h69v-395c0 -13.333 2 -21.833 6 -25.5s12.333 -5.5 25 -5.5h40c12 0 20.667 2.66699 26 8s8 14.666 8 27.999v390zM199.999 516.001h-62l-98 127h82z
" />
    <glyph glyph-name="uacute" unicode="&#xfa;" horiz-adv-x="333" 
d="M219 485l68.999 0.000976562v-485h-69v33c-7.33301 -22 -25.666 -33 -54.999 -33h-40c-52.667 0 -79 26.333 -79 79v406h69v-395c0 -13.333 2 -21.833 6 -25.5s12.333 -5.5 25 -5.5h40c12 0 20.667 2.66699 26 8s8 14.666 8 27.999v390zM296.999 643.001l-98 -127h-62
l78 127h82z" />
    <glyph glyph-name="ucircumflex" unicode="&#xfb;" horiz-adv-x="328" 
d="M219 485l68.999 0.000976562v-485h-69v33c-7.33301 -22 -25.666 -33 -54.999 -33h-40c-52.667 0 -79 26.333 -79 79v406h69v-395c0 -13.333 2 -21.833 6 -25.5s12.333 -5.5 25 -5.5h40c12 0 20.667 2.66699 26 8s8 14.666 8 27.999v390zM160.999 600.001l-52 -84h-76
l85 127h87l85 -127h-76z" />
    <glyph glyph-name="udieresis" unicode="&#xfc;" horiz-adv-x="328" 
d="M205 625h88v-84h-88v84zM219 485l68.999 0.000976562v-485h-69v33c-7.33301 -22 -25.666 -33 -54.999 -33h-40c-52.667 0 -79 26.333 -79 79v406h69v-395c0 -13.333 2 -21.833 6 -25.5s12.333 -5.5 25 -5.5h40c12 0 20.667 2.66699 26 8s8 14.666 8 27.999v390z
M116.999 625.001v-84h-88v84h88z" />
    <glyph glyph-name="yacute" unicode="&#xfd;" horiz-adv-x="309" 
d="M128 516l78 127h82l-98 -127h-62zM107 -141h-54.001v59h33c28.667 0 45.334 10.333 50.001 31l12 51h-45l-93 485h69l78 -437l73 437h69l-97 -547c-10 -52.667 -41.667 -79 -95 -79z" />
    <glyph glyph-name="thorn" unicode="&#xfe;" horiz-adv-x="328" 
d="M169 485h40c52.667 0 79 -26.333 79 -79v-327c0 -52.667 -26.333 -79 -79 -79h-40c-29.333 0 -47.666 11 -54.999 33v-174h-69v810h69v-217c7.33301 22 25.666 33 54.999 33zM219 90v304.998c0 12.667 -1.83301 21 -5.5 25s-12.167 6 -25.5 6h-40
c-12 0 -20.667 -2.66699 -26 -8s-8 -14.666 -8 -27.999v-295c0 -13.333 2.66699 -22.666 8 -27.999s14 -8 26 -8h40c13.333 0 21.833 1.83301 25.5 5.5s5.5 12.167 5.5 25.5z" />
    <glyph glyph-name="ydieresis" unicode="&#xff;" horiz-adv-x="309" 
d="M107 -141h-54.001v59h33c28.667 0 45.334 10.333 50.001 31l12 51h-45l-93 485h69l78 -437l73 437h69l-97 -547c-10 -52.667 -41.667 -79 -95 -79zM196.999 541v84h88v-84h-88zM20.999 541v84h88v-84h-88z" />
    <glyph glyph-name="Amacron" unicode="&#x100;" horiz-adv-x="343" 
d="M259 0l-26 158h-126l-23 -158h-69l97 622h109l107 -622h-69zM115 217h109l-58 357zM284 711v-58h-236v58h236z" />
    <glyph glyph-name="amacron" unicode="&#x101;" horiz-adv-x="328" 
d="M214 485h69v-485h-69v33c-7.33301 -22 -25.666 -33 -54.999 -33h-40c-52.667 -0 -79 26.333 -79 79v327c0 52.667 26.333 79 79 79h40c29.333 0 47.666 -11 54.999 -33v33zM140 59l40 0.00195312c12 0 20.667 2.66699 26 8s8 14.666 8 27.999v295
c0 13.333 -2.66699 22.666 -8 27.999s-14 8 -26 8h-40c-13.333 0 -21.833 -2 -25.5 -6s-5.5 -12.333 -5.5 -25v-305c0 -13.333 1.83301 -21.833 5.5 -25.5s12.167 -5.5 25.5 -5.5zM278 608.002v-58h-236v58h236z" />
    <glyph glyph-name="Abreve" unicode="&#x102;" horiz-adv-x="343" 
d="M259 0l-26 158h-126l-23 -158h-69l97 622h109l107 -622h-69zM115 217h109l-58 357zM217 653h-102c-52.667 0 -79 26.333 -79 79v48h66v-40c0 -13.333 2 -21.833 6 -25.5s12.333 -5.5 25 -5.5h66c12.667 0 21 1.83301 25 5.5s6 12.167 6 25.5v40h66v-48
c0 -52.667 -26.333 -79 -79 -79z" />
    <glyph glyph-name="abreve" unicode="&#x103;" horiz-adv-x="328" 
d="M226 643h66v-48c0 -52.667 -26.333 -79 -79 -79h-102c-52.667 0 -79 26.333 -79 79v48h66v-40c0 -12.667 2 -21 6 -25s12.333 -6 25 -6h66c12.667 0 21 2 25 6s6 12.333 6 25v40zM214 485h69v-485h-69v33c-7.33301 -22 -25.666 -33 -54.999 -33h-40
c-52.667 -0 -79 26.333 -79 79v327c0 52.667 26.333 79 79 79h40c29.333 0 47.666 -11 54.999 -33v33zM140 59l40 0.00195312c12 0 20.667 2.66699 26 8s8 14.666 8 27.999v295c0 13.333 -2.66699 22.666 -8 27.999s-14 8 -26 8h-40c-13.333 0 -21.833 -2 -25.5 -6
s-5.5 -12.333 -5.5 -25v-305c0 -13.333 1.83301 -21.833 5.5 -25.5s12.167 -5.5 25.5 -5.5z" />
    <glyph glyph-name="Aogonek" unicode="&#x104;" horiz-adv-x="343" 
d="M267 -158l78 0.00195312v-54h-92c-52.667 0 -79 26.333 -79 79v29c0 52.667 26.333 79 79 79h8v25h-2l-26 158h-126l-23 -158h-69l97 622h109l105 -612h1v-4l1 -6h-1v-78h-60c-13.333 0 -22 -1.83301 -26 -5.5s-6 -11.834 -6 -24.501v-20c0 -12.667 2 -20.834 6 -24.501
s12.667 -5.5 26 -5.5zM115 217.002h109l-58 357z" />
    <glyph glyph-name="aogonek" unicode="&#x105;" horiz-adv-x="328" 
d="M223 -158l78 0.00195312v-54h-92c-52.667 0 -79 26.333 -79 79v29c0 52.667 26.333 79 79 79h8v25h-3v33c-7.33301 -22 -25.666 -33 -54.999 -33h-40c-52.667 0 -79 26.333 -79 79v327c0 52.667 26.333 79 79 79h40c29.333 0 47.666 -11 54.999 -33v33h69v-563h-60
c-13.333 0 -22 -1.83301 -26 -5.5s-6 -11.834 -6 -24.501v-20c0 -12.667 2 -20.834 6 -24.501s12.667 -5.5 26 -5.5zM140 59.002l40 0.00195312c12 0 20.667 2.66699 26 8s8 14.666 8 27.999v295c0 13.333 -2.66699 22.666 -8 27.999s-14 8 -26 8h-40
c-13.333 0 -21.833 -2 -25.5 -6s-5.5 -12.333 -5.5 -25v-305c0 -13.333 1.83301 -21.833 5.5 -25.5s12.167 -5.5 25.5 -5.5z" />
    <glyph glyph-name="Cacute" unicode="&#x106;" horiz-adv-x="345" 
d="M129 622h97c52.667 0 79 -26.333 79 -79v-105h-69v94c0 13.333 -2 21.833 -6 25.5s-12.333 5.5 -25 5.5h-55c-13.333 0 -21.833 -1.83301 -25.5 -5.5s-5.5 -12.167 -5.5 -25.5v-443c0 -12.667 1.83301 -21 5.5 -25s12.167 -6 25.5 -6h55c12.667 0 21 2 25 6
s6 12.333 6 25v94h69v-105c0 -52.667 -26.333 -79 -79 -79h-97c-52.667 0 -79 26.333 -79 79v465c0 52.667 26.333 79 79 79zM306 780l-98 -127h-62l78 127h82z" />
    <glyph glyph-name="cacute" unicode="&#x107;" horiz-adv-x="325" 
d="M119 485h92c52.667 0 79 -26.333 79 -79v-65h-69v54c0 12.667 -1.83301 21 -5.5 25s-12.167 6 -25.5 6h-50c-13.333 0 -21.833 -2 -25.5 -6s-5.5 -12.333 -5.5 -25v-305c0 -13.333 1.83301 -21.833 5.5 -25.5s12.167 -5.5 25.5 -5.5h50c13.333 0 21.833 1.83301 25.5 5.5
s5.5 12.167 5.5 25.5v54h69v-65c0 -52.667 -26.333 -79 -79 -79h-92c-52.667 -0 -79 26.333 -79 79v327c0 52.667 26.333 79 79 79zM291 643l-98 -127h-62l78 127h82z" />
    <glyph glyph-name="Ccaron" unicode="&#x10c;" horiz-adv-x="345" 
d="M129 622h97c52.667 0 79 -26.333 79 -79v-105h-69v94c0 13.333 -2 21.833 -6 25.5s-12.333 5.5 -25 5.5h-55c-13.333 0 -21.833 -1.83301 -25.5 -5.5s-5.5 -12.167 -5.5 -25.5v-443c0 -12.667 1.83301 -21 5.5 -25s12.167 -6 25.5 -6h55c12.667 0 21 2 25 6
s6 12.333 6 25v94h69v-105c0 -52.667 -26.333 -79 -79 -79h-97c-52.667 0 -79 26.333 -79 79v465c0 52.667 26.333 79 79 79zM222 653h-87l-85 127h76l52 -84l53 84h76z" />
    <glyph glyph-name="ccaron" unicode="&#x10d;" horiz-adv-x="325" 
d="M119 485h92c52.667 0 79 -26.333 79 -79v-65h-69v54c0 12.667 -1.83301 21 -5.5 25s-12.167 6 -25.5 6h-50c-13.333 0 -21.833 -2 -25.5 -6s-5.5 -12.333 -5.5 -25v-305c0 -13.333 1.83301 -21.833 5.5 -25.5s12.167 -5.5 25.5 -5.5h50c13.333 0 21.833 1.83301 25.5 5.5
s5.5 12.167 5.5 25.5v54h69v-65c0 -52.667 -26.333 -79 -79 -79h-92c-52.667 -0 -79 26.333 -79 79v327c0 52.667 26.333 79 79 79zM210 516h-87l-85 127h76l52 -84l53 84h76z" />
    <glyph glyph-name="Dcaron" unicode="&#x10e;" horiz-adv-x="381" 
d="M55 622h197c52.667 0 79 -26.333 79 -79v-464c0 -52.667 -26.333 -79 -79 -79h-197v622zM262 90v442c0 13.333 -2 21.833 -6 25.5s-12.333 5.5 -25 5.5h-107v-504h107c12.667 0 21 1.83301 25 5.5s6 12.167 6 25.5zM231 653h-87l-85 127h76l52 -84l53 84h76z" />
    <glyph glyph-name="dcaron" unicode="&#x10f;" horiz-adv-x="354" 
d="M328 669h62v-39l-35 -121h-27v160zM214 669h69v-669h-69v33c-7.33301 -22 -25.666 -33 -54.999 -33h-40c-52.667 -0 -79 26.333 -79 79v328c0 52.667 26.333 79 79 79h40c29.333 0 47.666 -11 54.999 -33v216zM140 59l40 0.00195312c12 0 20.667 2.66699 26 8
s8 14.666 8 27.999v296c0 13.333 -2.66699 22.666 -8 27.999s-14 8 -26 8h-40c-13.333 0 -21.833 -1.83301 -25.5 -5.5s-5.5 -12.167 -5.5 -25.5v-306c0 -13.333 1.83301 -21.833 5.5 -25.5s12.167 -5.5 25.5 -5.5z" />
    <glyph glyph-name="Dcroat" unicode="&#x110;" horiz-adv-x="381" 
d="M55 622h197c52.667 0 79 -26.333 79 -79v-464c0 -52.667 -26.333 -79 -79 -79h-197v283h-50v59h50v280zM262 90v442c0 13.333 -2 21.833 -6 25.5s-12.333 5.5 -25 5.5h-107v-221h80v-59h-80v-224h107c12.667 0 21 1.83301 25 5.5s6 12.167 6 25.5z" />
    <glyph glyph-name="dcroat" unicode="&#x111;" horiz-adv-x="333" 
d="M333 603v-59h-45v-544h-69v33c-7.33301 -22 -25.666 -33 -54.999 -33h-40c-52.667 -0 -79 26.333 -79 79v327c0 52.667 26.333 79 79 79h40c29.333 0 47.666 -11 54.999 -33v92h-85v59h85v66h69v-66h45zM145 59l40 0.00195312c12 0 20.667 2.66699 26 8
s8 14.666 8 27.999v295c0 13.333 -2.66699 22.666 -8 27.999s-14 8 -26 8h-40c-12.667 0 -21 -2 -25 -6s-6 -12.333 -6 -25v-305c0 -13.333 2 -21.833 6 -25.5s12.333 -5.5 25 -5.5z" />
    <glyph glyph-name="Emacron" unicode="&#x112;" horiz-adv-x="315" 
d="M124 59h171v-59h-240v622h233v-59h-164v-210h134v-59h-134v-235zM289 728v-58h-236v58h236z" />
    <glyph glyph-name="emacron" unicode="&#x113;" horiz-adv-x="330" 
d="M124 485h92c52.667 0 79 -26.333 79 -79v-187h-181v-129c0 -13.333 2 -21.833 6 -25.5s12.333 -5.5 25 -5.5h47c13.333 0 21.833 1.83301 25.5 5.5s5.5 12.167 5.5 25.5v44h69v-55c0 -52.667 -26.333 -79 -79 -79h-89c-52.667 -0 -79 26.333 -79 79v327
c0 52.667 26.333 79 79 79zM114 278h112v117c0 12.667 -2 21 -6 25s-12.333 6 -25 6h-50c-12.667 0 -21 -2 -25 -6s-6 -12.333 -6 -25v-117zM283 608v-58h-236v58h236z" />
    <glyph glyph-name="Edotaccent" unicode="&#x116;" horiz-adv-x="315" 
d="M124 59h171v-59h-240v622h233v-59h-164v-210h134v-59h-134v-235zM226 739v-86h-92v86h92z" />
    <glyph glyph-name="edotaccent" unicode="&#x117;" horiz-adv-x="330" 
d="M124 485h92c52.667 0 79 -26.333 79 -79v-187h-181v-129c0 -13.333 2 -21.833 6 -25.5s12.333 -5.5 25 -5.5h47c13.333 0 21.833 1.83301 25.5 5.5s5.5 12.167 5.5 25.5v44h69v-55c0 -52.667 -26.333 -79 -79 -79h-89c-52.667 -0 -79 26.333 -79 79v327
c0 52.667 26.333 79 79 79zM114 278h112v117c0 12.667 -2 21 -6 25s-12.333 6 -25 6h-50c-12.667 0 -21 -2 -25 -6s-6 -12.333 -6 -25v-117zM220 622v-86h-92v86h92z" />
    <glyph glyph-name="Eogonek" unicode="&#x118;" horiz-adv-x="315" 
d="M235 -158l78 0.00195312v-54h-92c-52.667 0 -79 26.333 -79 79v29c0 52.667 26.333 79 79 79h8v25h-174v622h233v-59h-164v-210h134v-59h-134v-235h171v-137h-60c-13.333 0 -22 -1.83301 -26 -5.5s-6 -11.834 -6 -24.501v-20c0 -12.667 2 -20.834 6 -24.501
s12.667 -5.5 26 -5.5z" />
    <glyph glyph-name="eogonek" unicode="&#x119;" horiz-adv-x="330" 
d="M124 485l92 0.00195312c52.667 0 79 -26.333 79 -79v-187h-181v-129c0 -13.333 2 -21.833 6 -25.5s12.333 -5.5 25 -5.5h47c13.333 0 21.833 1.83301 25.5 5.5s5.5 12.167 5.5 25.5v44h69v-55c0 -52.667 -26.333 -79 -79 -79h-6v-78h-60c-13.333 0 -22 -1.83301 -26 -5.5
s-6 -11.834 -6 -24.501v-20c0 -12.667 2 -20.834 6 -24.501s12.667 -5.5 26 -5.5h78v-54h-92c-52.667 0 -79 26.333 -79 79v29c0 52.667 26.333 79 79 79h8v25h-17c-52.667 -0 -79 26.333 -79 79v327c0 52.667 26.333 79 79 79zM114 278.002h112v117c0 12.667 -2 21 -6 25
s-12.333 6 -25 6h-50c-12.667 0 -21 -2 -25 -6s-6 -12.333 -6 -25v-117z" />
    <glyph glyph-name="Ecaron" unicode="&#x11a;" horiz-adv-x="315" 
d="M124 294v-235h171v-59h-240v622h233v-59h-164v-210h134v-59h-134zM213 653h-87l-85 127h76l52 -84l53 84h76z" />
    <glyph glyph-name="ecaron" unicode="&#x11b;" horiz-adv-x="330" 
d="M124 485h92c52.667 0 79 -26.333 79 -79v-187h-181v-129c0 -13.333 2 -21.833 6 -25.5s12.333 -5.5 25 -5.5h47c13.333 0 21.833 1.83301 25.5 5.5s5.5 12.167 5.5 25.5v44h69v-55c0 -52.667 -26.333 -79 -79 -79h-89c-52.667 -0 -79 26.333 -79 79v327
c0 52.667 26.333 79 79 79zM114 278h112v117c0 12.667 -2 21 -6 25s-12.333 6 -25 6h-50c-12.667 0 -21 -2 -25 -6s-6 -12.333 -6 -25v-117zM213 516h-87l-85 127h76l52 -84l53 84h76z" />
    <glyph glyph-name="Gbreve" unicode="&#x11e;" horiz-adv-x="350" 
d="M242 780h66v-48c0 -52.667 -26.333 -79 -79 -79h-102c-52.667 0 -79 26.333 -79 79v48h66v-40c0 -13.333 2 -21.833 6 -25.5s12.333 -5.5 25 -5.5h66c12.667 0 21 1.83301 25 5.5s6 12.167 6 25.5v40zM129 622h97c52.667 0 79 -26.333 79 -79v-95h-69v84
c0 13.333 -2 21.833 -6 25.5s-12.333 5.5 -25 5.5h-55c-13.333 0 -21.833 -1.83301 -25.5 -5.5s-5.5 -12.167 -5.5 -25.5v-443c0 -12.667 1.83301 -21 5.5 -25s12.167 -6 25.5 -6h55c12.667 0 21 2 25 6s6 12.333 6 25v165h-50v59h119v-235c0 -52.667 -26.333 -79 -79 -79
h-97c-52.667 0 -79 26.333 -79 79v465c0 52.667 26.333 79 79 79z" />
    <glyph glyph-name="gbreve" unicode="&#x11f;" horiz-adv-x="328" 
d="M228 643h66v-48c0 -52.667 -26.333 -79 -79 -79h-102c-52.667 0 -79 26.333 -79 79v48h66v-40c0 -12.667 2 -21 6 -25s12.333 -6 25 -6h66c12.667 0 21 2 25 6s6 12.333 6 25v40zM214 485h69v-547c0 -52.667 -26.333 -79 -79 -79h-149v59h128c12.667 0 21 2 25 6
s6 12.333 6 25v84c-7.33301 -22 -25.666 -33 -54.999 -33h-40c-52.667 -0 -79 26.333 -79 79v327c0 52.667 26.333 79 79 79h40c29.333 0 47.666 -11 54.999 -33v33zM140 59l40 0.00195312c12 0 20.667 2.66699 26 8s8 14.666 8 27.999v295
c0 13.333 -2.66699 22.666 -8 27.999s-14 8 -26 8h-40c-13.333 0 -21.833 -2 -25.5 -6s-5.5 -12.333 -5.5 -25v-305c0 -13.333 1.83301 -21.833 5.5 -25.5s12.167 -5.5 25.5 -5.5z" />
    <glyph glyph-name="uni0122" unicode="&#x122;" horiz-adv-x="350" 
d="M305 448h-69v84c0 13.333 -2 21.833 -6 25.5s-12.333 5.5 -25 5.5h-55c-13.333 0 -21.833 -1.83301 -25.5 -5.5s-5.5 -12.167 -5.5 -25.5v-443c0 -12.667 1.83301 -21 5.5 -25s12.167 -6 25.5 -6h55c12.667 0 21 2 25 6s6 12.333 6 25v165h-50v59h119v-235
c0 -52.667 -26.333 -79 -79 -79h-97c-52.667 0 -79 26.333 -79 79v465c0 52.667 26.333 79 79 79h97c52.667 0 79 -26.333 79 -79v-95zM140 -211v160h80v-39l-53 -121h-27z" />
    <glyph glyph-name="uni0123" unicode="&#x123;" horiz-adv-x="328" 
d="M214 485h69v-547c0 -52.667 -26.333 -79 -79 -79h-149v59h128c12.667 0 21 2 25 6s6 12.333 6 25v84c-7.33301 -22 -25.666 -33 -54.999 -33h-40c-52.667 -0 -79 26.333 -79 79v327c0 52.667 26.333 79 79 79h40c29.333 0 47.666 -11 54.999 -33v33zM140 59
l40 0.00195312c12 0 20.667 2.66699 26 8s8 14.666 8 27.999v295c0 13.333 -2.66699 22.666 -8 27.999s-14 8 -26 8h-40c-13.333 0 -21.833 -2 -25.5 -6s-5.5 -12.333 -5.5 -25v-305c0 -13.333 1.83301 -21.833 5.5 -25.5s12.167 -5.5 25.5 -5.5zM210 676.002v-160h-80v39
l53 121h27z" />
    <glyph glyph-name="Imacron" unicode="&#x12a;" horiz-adv-x="198" 
d="M-20 670v58h236v-58h-236zM65 622h68v-622h-68v622z" />
    <glyph glyph-name="imacron" unicode="&#x12b;" horiz-adv-x="159" 
d="M-38 550v58h236v-58h-236zM114 0h-69v485h69v-485z" />
    <glyph glyph-name="Iogonek" unicode="&#x12e;" horiz-adv-x="198" 
d="M73 -158l78 0.00195312v-54h-92c-52.667 0 -79 26.333 -79 79v29c0 52.667 26.333 79 79 79h8v25h-2v622h68v-700h-60c-13.333 0 -22 -1.83301 -26 -5.5s-6 -11.834 -6 -24.501v-20c0 -12.667 2 -20.834 6 -24.501s12.667 -5.5 26 -5.5z" />
    <glyph glyph-name="iogonek" unicode="&#x12f;" horiz-adv-x="159" 
d="M54 -158l78 0.00195312v-54h-92c-52.667 0 -79 26.333 -79 79v29c0 52.667 26.333 79 79 79h8v25h-3v485h69v-563h-60c-13.333 0 -22 -1.83301 -26 -5.5s-6 -11.834 -6 -24.501v-20c0 -12.667 2 -20.834 6 -24.501s12.667 -5.5 26 -5.5zM116 670.002v-81h-73v81h73z" />
    <glyph glyph-name="Idotaccent" unicode="&#x130;" horiz-adv-x="198" 
d="M52 669v86h92v-86h-92zM65 622h68v-622h-68v622z" />
    <glyph glyph-name="dotlessi" unicode="&#x131;" horiz-adv-x="159" 
d="M114 0h-69v485h69v-485z" />
    <glyph glyph-name="uni0136" unicode="&#x136;" horiz-adv-x="345" 
d="M335 622l-134 -314l132 -308h-74l-129 308l131 314h74zM141 -211v160h80v-39l-53 -121h-27zM55 0v622h68v-622h-68z" />
    <glyph glyph-name="uni0137" unicode="&#x137;" horiz-adv-x="325" 
d="M320 485l-113 -229l113 -256h-74l-110 256l110 229h74zM130 -211v160h80v-39l-53 -121h-27zM45 0v669h69v-669h-69z" />
    <glyph glyph-name="Lacute" unicode="&#x139;" horiz-adv-x="271" 
d="M123 59h143v-59h-211v622h68v-563zM217 780l-98 -127h-62l78 127h82z" />
    <glyph glyph-name="lacute" unicode="&#x13a;" horiz-adv-x="159" 
d="M114 0h-69v669h69v-669zM48 700l78 127h82l-98 -127h-62z" />
    <glyph glyph-name="uni013B" unicode="&#x13b;" horiz-adv-x="271" 
d="M123 59h143v-59h-211v622h68v-563zM119 -211v160h80v-39l-53 -121h-27z" />
    <glyph glyph-name="uni013C" unicode="&#x13c;" horiz-adv-x="159" 
d="M40 -51h80v-39l-53 -121h-27v160zM114 0h-69v669h69v-669z" />
    <glyph glyph-name="Lcaron" unicode="&#x13d;" horiz-adv-x="271" 
d="M123 59h143v-59h-211v622h68v-563zM215 786l-85 -127h-87l-85 127h76l52 -84l53 84h76z" />
    <glyph glyph-name="lcaron" unicode="&#x13e;" horiz-adv-x="186" 
d="M114 0h-69v669h69v-669zM159 669h62v-39l-35 -121h-27v160z" />
    <glyph glyph-name="Lslash" unicode="&#x141;" horiz-adv-x="276" 
d="M123 59h143v-59h-211v257l-73 -34v59l73 34v306h68v-275l97 45v-59l-97 -45v-229z" />
    <glyph glyph-name="lslash" unicode="&#x142;" horiz-adv-x="169" 
d="M119 0h-69v309l-78 -36v59l78 36v301h69v-269l91 42v-59l-91 -42v-341z" />
    <glyph glyph-name="Nacute" unicode="&#x143;" horiz-adv-x="377" 
d="M259 622h63v-622h-75l-129 482v-482h-63v622h80l124 -465v465zM161 653l78 127h82l-98 -127h-62z" />
    <glyph glyph-name="nacute" unicode="&#x144;" horiz-adv-x="333" 
d="M169 485l40.001 -0.000976562c52.667 0 79 -26.333 79 -79v-406h-69v395c0 12.667 -1.83301 21 -5.5 25s-12.167 6 -25.5 6h-40c-12 0 -20.667 -2.66699 -26 -8s-8 -14.666 -8 -27.999v-390h-69v485h69v-33c7.33301 22 25.666 33 54.999 33zM296.001 642.999l-98 -127
h-62l78 127h82z" />
    <glyph glyph-name="uni0145" unicode="&#x145;" horiz-adv-x="377" 
d="M139 -51h80v-39l-53 -121h-27v160zM259 622h63v-622h-75l-129 482v-482h-63v622h80l124 -465v465z" />
    <glyph glyph-name="uni0146" unicode="&#x146;" horiz-adv-x="333" 
d="M169 485l40.001 -0.000976562c52.667 0 79 -26.333 79 -79v-406h-69v395c0 12.667 -1.83301 21 -5.5 25s-12.167 6 -25.5 6h-40c-12 0 -20.667 -2.66699 -26 -8s-8 -14.666 -8 -27.999v-390h-69v485h69v-33c7.33301 22 25.666 33 54.999 33zM122.001 -211.001v160h80v-39
l-53 -121h-27z" />
    <glyph glyph-name="Ncaron" unicode="&#x147;" horiz-adv-x="377" 
d="M259 622h63v-622h-75l-129 482v-482h-63v622h80l124 -465v465zM149 653l-85 127h76l52 -84l53 84h76l-85 -127h-87z" />
    <glyph glyph-name="ncaron" unicode="&#x148;" horiz-adv-x="333" 
d="M169 485l40.001 -0.000976562c52.667 0 79 -26.333 79 -79v-406h-69v395c0 12.667 -1.83301 21 -5.5 25s-12.167 6 -25.5 6h-40c-12 0 -20.667 -2.66699 -26 -8s-8 -14.666 -8 -27.999v-390h-69v485h69v-33c7.33301 22 25.666 33 54.999 33zM204.001 515.999h-87l-85 127
h76l52 -84l53 84h76z" />
    <glyph glyph-name="Omacron" unicode="&#x14c;" horiz-adv-x="360" 
d="M129 622h102c52.667 0 79 -26.333 79 -79v-464c0 -52.667 -26.333 -79 -79 -79h-102c-52.667 -0 -79 26.333 -79 79v464c0 52.667 26.333 79 79 79zM242 90v442c0 13.333 -2 21.833 -6 25.5s-12.333 5.5 -25 5.5h-62c-12.667 0 -21 -1.83301 -25 -5.5
s-6 -12.167 -6 -25.5v-442c0 -13.333 2 -21.833 6 -25.5s12.333 -5.5 25 -5.5h62c12.667 0 21 1.83301 25 5.5s6 12.167 6 25.5zM298 711v-58h-236v58h236z" />
    <glyph glyph-name="omacron" unicode="&#x14d;" horiz-adv-x="340" 
d="M119 485h102c52.667 0 79 -26.333 79 -79v-327c0 -52.667 -26.333 -79 -79 -79h-102c-52.667 -0 -79 26.333 -79 79v327c0 52.667 26.333 79 79 79zM232 90v305c0 12.667 -2 21 -6 25s-12.333 6 -25 6h-62c-12.667 0 -21 -2 -25 -6s-6 -12.333 -6 -25v-305
c0 -13.333 2 -21.833 6 -25.5s12.333 -5.5 25 -5.5h62c12.667 0 21 1.83301 25 5.5s6 12.167 6 25.5zM287 608v-58h-236v58h236z" />
    <glyph glyph-name="Ohungarumlaut" unicode="&#x150;" horiz-adv-x="360" 
d="M129 622h102c52.667 0 79 -26.333 79 -79v-464c0 -52.667 -26.333 -79 -79 -79h-102c-52.667 -0 -79 26.333 -79 79v464c0 52.667 26.333 79 79 79zM242 90v442c0 13.333 -2 21.833 -6 25.5s-12.333 5.5 -25 5.5h-62c-12.667 0 -21 -1.83301 -25 -5.5
s-6 -12.167 -6 -25.5v-442c0 -13.333 2 -21.833 6 -25.5s12.333 -5.5 25 -5.5h62c12.667 0 21 1.83301 25 5.5s6 12.167 6 25.5zM254 780l-98 -127h-54l78 127h74zM256 653h-54l78 127h74z" />
    <glyph glyph-name="ohungarumlaut" unicode="&#x151;" horiz-adv-x="340" 
d="M119 485h102c52.667 0 79 -26.333 79 -79v-327c0 -52.667 -26.333 -79 -79 -79h-102c-52.667 -0 -79 26.333 -79 79v327c0 52.667 26.333 79 79 79zM232 90v305c0 12.667 -2 21 -6 25s-12.333 6 -25 6h-62c-12.667 0 -21 -2 -25 -6s-6 -12.333 -6 -25v-305
c0 -13.333 2 -21.833 6 -25.5s12.333 -5.5 25 -5.5h62c12.667 0 21 1.83301 25 5.5s6 12.167 6 25.5zM245 643l-98 -127h-54l78 127h74zM247 516h-54l78 127h74z" />
    <glyph glyph-name="OE" unicode="&#x152;" horiz-adv-x="517" 
d="M321 59h171v-59h-230v19c-12 -12.667 -30.667 -19 -56 -19h-77c-52.667 -0 -79 26.333 -79 79v464c0 52.667 26.333 79 79 79h76c26 0 45 -6.33301 57 -19v19h223v-59h-164v-210h134v-59h-134v-235zM242 90v442c0 13.333 -2 21.833 -6 25.5s-12.333 5.5 -25 5.5h-62
c-12.667 0 -21 -1.83301 -25 -5.5s-6 -12.167 -6 -25.5v-442c0 -13.333 2 -21.833 6 -25.5s12.333 -5.5 25 -5.5h62c12.667 0 21 1.83301 25 5.5s6 12.167 6 25.5z" />
    <glyph glyph-name="oe" unicode="&#x153;" horiz-adv-x="518" 
d="M307 485h83c52.667 0 79 -26.333 79 -79v-187h-181v-129c0 -13.333 2 -21.833 6 -25.5s12.333 -5.5 25 -5.5h47c13.333 0 21.833 1.83301 25.5 5.5s5.5 12.167 5.5 25.5v44h69v-55c0 -52.667 -26.333 -79 -79 -79h-80c-13.333 -0 -25.166 3.83301 -35.499 11.5
s-16.833 16.5 -19.5 26.5c-2.66699 -10 -9.16699 -18.833 -19.5 -26.5s-22.833 -11.5 -37.5 -11.5h-71c-52.667 -0 -79 26.333 -79 79v327c0 52.667 26.333 79 79 79h71c14.667 0 27.167 -3.83301 37.5 -11.5s16.833 -16.5 19.5 -26.5c2.66699 10 9.16699 18.833 19.5 26.5
s22.166 11.5 35.499 11.5zM185 426l-39.999 0.000976562c-12.667 0 -21 -2 -25 -6s-6 -12.333 -6 -25v-305c0 -13.333 2 -21.833 6 -25.5s12.333 -5.5 25 -5.5h40c11.333 0 19.666 2.16699 24.999 6.5s8.33301 12.166 9 23.499v307c-2 20 -13.333 30 -34 30z
M288.001 278.001h112v117c0 12.667 -2 21 -6 25s-12.333 6 -25 6h-50c-12.667 0 -21 -2 -25 -6s-6 -12.333 -6 -25v-117z" />
    <glyph glyph-name="Racute" unicode="&#x154;" horiz-adv-x="364" 
d="M123 260v-260h-68v622h181c52.667 0 79 -26.333 79 -79v-204c0 -47.333 -20.667 -73.333 -62 -78l94 -261h-74l-91 260h-59zM123 563v-244h93c13.333 0 21.833 1.83301 25.5 5.5s5.5 12.167 5.5 25.5v182c0 13.333 -1.83301 21.833 -5.5 25.5s-12.167 5.5 -25.5 5.5h-93z
M307 780l-98 -127h-62l78 127h82z" />
    <glyph glyph-name="racute" unicode="&#x155;" horiz-adv-x="212" 
d="M114 485l0.000976562 -56c5.33301 15.333 14.166 28.5 26.499 39.5s27.5 16.5 45.5 16.5h21v-60h-30c-42 0 -63 -25 -63 -75v-350h-69v485h69zM259.001 643l-98 -127h-62l78 127h82z" />
    <glyph glyph-name="uni0156" unicode="&#x156;" horiz-adv-x="364" 
d="M123 260v-260h-68v622h181c52.667 0 79 -26.333 79 -79v-204c0 -47.333 -20.667 -73.333 -62 -78l94 -261h-74l-91 260h-59zM123 563v-244h93c13.333 0 21.833 1.83301 25.5 5.5s5.5 12.167 5.5 25.5v182c0 13.333 -1.83301 21.833 -5.5 25.5s-12.167 5.5 -25.5 5.5h-93z
M148 -211v160h80v-39l-53 -121h-27z" />
    <glyph glyph-name="uni0157" unicode="&#x157;" horiz-adv-x="212" 
d="M186 485h21.001v-60h-30c-42 0 -63 -25 -63 -75v-350h-69v485h69v-56c5.33301 15.333 14.166 28.5 26.499 39.5s27.5 16.5 45.5 16.5zM42.001 -211v160h80v-39l-53 -121h-27z" />
    <glyph glyph-name="Rcaron" unicode="&#x158;" horiz-adv-x="364" 
d="M123 260v-260h-68v622h181c52.667 0 79 -26.333 79 -79v-204c0 -47.333 -20.667 -73.333 -62 -78l94 -261h-74l-91 260h-59zM123 563v-244h93c13.333 0 21.833 1.83301 25.5 5.5s5.5 12.167 5.5 25.5v182c0 13.333 -1.83301 21.833 -5.5 25.5s-12.167 5.5 -25.5 5.5h-93z
M224 653h-87l-85 127h76l52 -84l53 84h76z" />
    <glyph glyph-name="rcaron" unicode="&#x159;" horiz-adv-x="212" 
d="M114 485l0.000976562 -56c5.33301 15.333 14.166 28.5 26.499 39.5s27.5 16.5 45.5 16.5h21v-60h-30c-42 0 -63 -25 -63 -75v-350h-69v485h69zM170.001 516h-87l-85 127h76l52 -84l53 84h76z" />
    <glyph glyph-name="Sacute" unicode="&#x15a;" horiz-adv-x="327" 
d="M218 90v170c0 13.333 -2 21.833 -6 25.5s-12.333 5.5 -25 5.5h-68c-52.667 0 -79 26.333 -79 79v173c0 52.667 26.333 79 79 79h88c52.667 0 79 -26.333 79 -79v-96h-69v85c0 13.333 -1.83301 21.833 -5.5 25.5s-12.167 5.5 -25.5 5.5h-46
c-13.333 0 -21.833 -1.83301 -25.5 -5.5s-5.5 -12.167 -5.5 -25.5v-151c0 -12.667 1.83301 -21 5.5 -25s12.167 -6 25.5 -6h68c52.667 0 79 -26.333 79 -79v-192c0 -52.667 -26.333 -79 -79 -79h-87c-52.667 -0 -79 26.333 -79 79v96h69v-85
c0 -13.333 1.83301 -21.833 5.5 -25.5s12.167 -5.5 25.5 -5.5h45c12.667 0 21 1.83301 25 5.5s6 12.167 6 25.5zM128 653l78 127h82l-98 -127h-62z" />
    <glyph glyph-name="sacute" unicode="&#x15b;" horiz-adv-x="297" 
d="M194 89v92c0 12.667 -2 21 -6 25s-12.333 6 -25 6h-49c-52.667 0 -79 26.333 -79 79v115c0 52.667 26.333 79 79 79h68c52.667 0 79 -26.333 79 -79v-49h-68v39c0 13.333 -1.83301 21.833 -5.5 25.5s-12.167 5.5 -25.5 5.5h-28c-13.333 0 -21.833 -1.83301 -25.5 -5.5
s-5.5 -12.167 -5.5 -25.5v-95c0 -12.667 1.83301 -21 5.5 -25s12.167 -6 25.5 -6h49c52.667 0 79 -26.333 79 -79v-112c0 -52.667 -26.333 -79 -79 -79h-67c-52.667 -0 -79 26.333 -79 79v49h68v-39c0 -12.667 1.83301 -21 5.5 -25s12.167 -6 25.5 -6h27c12.667 0 21 2 25 6
s6 12.333 6 25zM125 516l78 127h82l-98 -127h-62z" />
    <glyph glyph-name="uni015E" unicode="&#x15e;" horiz-adv-x="327" 
d="M127 -51h80v-39l-53 -121h-27v160zM218 90v170c0 13.333 -2 21.833 -6 25.5s-12.333 5.5 -25 5.5h-68c-52.667 0 -79 26.333 -79 79v173c0 52.667 26.333 79 79 79h88c52.667 0 79 -26.333 79 -79v-96h-69v85c0 13.333 -1.83301 21.833 -5.5 25.5s-12.167 5.5 -25.5 5.5
h-46c-13.333 0 -21.833 -1.83301 -25.5 -5.5s-5.5 -12.167 -5.5 -25.5v-151c0 -12.667 1.83301 -21 5.5 -25s12.167 -6 25.5 -6h68c52.667 0 79 -26.333 79 -79v-192c0 -52.667 -26.333 -79 -79 -79h-87c-52.667 -0 -79 26.333 -79 79v96h69v-85
c0 -13.333 1.83301 -21.833 5.5 -25.5s12.167 -5.5 25.5 -5.5h45c12.667 0 21 1.83301 25 5.5s6 12.167 6 25.5z" />
    <glyph glyph-name="uni015F" unicode="&#x15f;" horiz-adv-x="297" 
d="M108 -51h80v-39l-53 -121h-27v160zM194 89v92c0 12.667 -2 21 -6 25s-12.333 6 -25 6h-49c-52.667 0 -79 26.333 -79 79v115c0 52.667 26.333 79 79 79h68c52.667 0 79 -26.333 79 -79v-49h-68v39c0 13.333 -1.83301 21.833 -5.5 25.5s-12.167 5.5 -25.5 5.5h-28
c-13.333 0 -21.833 -1.83301 -25.5 -5.5s-5.5 -12.167 -5.5 -25.5v-95c0 -12.667 1.83301 -21 5.5 -25s12.167 -6 25.5 -6h49c52.667 0 79 -26.333 79 -79v-112c0 -52.667 -26.333 -79 -79 -79h-67c-52.667 -0 -79 26.333 -79 79v49h68v-39c0 -12.667 1.83301 -21 5.5 -25
s12.167 -6 25.5 -6h27c12.667 0 21 2 25 6s6 12.333 6 25z" />
    <glyph glyph-name="Scaron" unicode="&#x160;" horiz-adv-x="327" 
d="M218 90v170c0 13.333 -2 21.833 -6 25.5s-12.333 5.5 -25 5.5h-68c-52.667 0 -79 26.333 -79 79v173c0 52.667 26.333 79 79 79h88c52.667 0 79 -26.333 79 -79v-96h-69v85c0 13.333 -1.83301 21.833 -5.5 25.5s-12.167 5.5 -25.5 5.5h-46
c-13.333 0 -21.833 -1.83301 -25.5 -5.5s-5.5 -12.167 -5.5 -25.5v-151c0 -12.667 1.83301 -21 5.5 -25s12.167 -6 25.5 -6h68c52.667 0 79 -26.333 79 -79v-192c0 -52.667 -26.333 -79 -79 -79h-87c-52.667 -0 -79 26.333 -79 79v96h69v-85
c0 -13.333 1.83301 -21.833 5.5 -25.5s12.167 -5.5 25.5 -5.5h45c12.667 0 21 1.83301 25 5.5s6 12.167 6 25.5zM121 653l-85 127h76l52 -84l53 84h76l-85 -127h-87z" />
    <glyph glyph-name="scaron" unicode="&#x161;" horiz-adv-x="297" 
d="M194 89v92c0 12.667 -2 21 -6 25s-12.333 6 -25 6h-49c-52.667 0 -79 26.333 -79 79v115c0 52.667 26.333 79 79 79h68c52.667 0 79 -26.333 79 -79v-49h-68v39c0 13.333 -1.83301 21.833 -5.5 25.5s-12.167 5.5 -25.5 5.5h-28c-13.333 0 -21.833 -1.83301 -25.5 -5.5
s-5.5 -12.167 -5.5 -25.5v-95c0 -12.667 1.83301 -21 5.5 -25s12.167 -6 25.5 -6h49c52.667 0 79 -26.333 79 -79v-112c0 -52.667 -26.333 -79 -79 -79h-67c-52.667 -0 -79 26.333 -79 79v49h68v-39c0 -12.667 1.83301 -21 5.5 -25s12.167 -6 25.5 -6h27c12.667 0 21 2 25 6
s6 12.333 6 25zM103 516l-85 127h76l52 -84l53 84h76l-85 -127h-87z" />
    <glyph glyph-name="uni0162" unicode="&#x162;" horiz-adv-x="278" 
d="M273 622v-59h-100v-563h-68v563h-100v59h268zM97 -211v160h80v-39l-53 -121h-27z" />
    <glyph glyph-name="uni0163" unicode="&#x163;" horiz-adv-x="278" 
d="M273 622v-59h-100v-563h-68v563h-100v59h268zM100 -211v160h80v-39l-53 -121h-27z" />
    <glyph glyph-name="Tcaron" unicode="&#x164;" horiz-adv-x="278" 
d="M273 622v-59h-100v-563h-68v563h-100v59h268zM183 653h-87l-85 127h76l52 -84l53 84h76z" />
    <glyph glyph-name="tcaron" unicode="&#x165;" horiz-adv-x="197" 
d="M160 653h77v-39l-50 -101h-27v140zM118 564v-79h69v-59h-69v-331c0 -12.667 2 -21 6 -25s12.333 -6 25 -6h38v-64h-59c-52.667 -0 -79 26.333 -79 79v347h-44v59h44v79h69z" />
    <glyph glyph-name="Umacron" unicode="&#x16a;" horiz-adv-x="364" 
d="M244 622h68v-543c0 -52.667 -26.333 -79 -79 -79h-102c-52.667 -0 -79 26.333 -79 79v543h68v-532c0 -13.333 2 -21.833 6 -25.5s12.333 -5.5 25 -5.5h62c12.667 0 21 1.83301 25 5.5s6 12.167 6 25.5v532zM301 711v-58h-236v58h236z" />
    <glyph glyph-name="umacron" unicode="&#x16b;" horiz-adv-x="333" 
d="M219 485l68.999 0.000976562v-485h-69v33c-7.33301 -22 -25.666 -33 -54.999 -33h-40c-52.667 0 -79 26.333 -79 79v406h69v-395c0 -13.333 2 -21.833 6 -25.5s12.333 -5.5 25 -5.5h40c12 0 20.667 2.66699 26 8s8 14.666 8 27.999v390zM282.999 608.001v-58h-236v58h236
z" />
    <glyph glyph-name="Uring" unicode="&#x16e;" horiz-adv-x="364" 
d="M244 622h68v-543c0 -52.667 -26.333 -79 -79 -79h-102c-52.667 -0 -79 26.333 -79 79v543h68v-532c0 -13.333 2 -21.833 6 -25.5s12.333 -5.5 25 -5.5h62c12.667 0 21 1.83301 25 5.5s6 12.167 6 25.5v532zM211 653h-60c-43.333 0 -65 21.667 -65 65v17
c0 43.333 21.667 65 65 65h60c43.333 0 65 -21.667 65 -65v-17c0 -43.333 -21.667 -65 -65 -65zM137 729v-5c0 -11.333 1.66699 -18.666 5 -21.999s11 -5 23 -5h32c12 0 19.667 1.66699 23 5s5 10.666 5 21.999v5c0 11.333 -1.66699 18.666 -5 21.999s-11 5 -23 5h-32
c-12 0 -19.667 -1.66699 -23 -5s-5 -10.666 -5 -21.999z" />
    <glyph glyph-name="uring" unicode="&#x16f;" horiz-adv-x="333" 
d="M219 485l68.999 0.000976562v-485h-69v33c-7.33301 -22 -25.666 -33 -54.999 -33h-40c-52.667 0 -79 26.333 -79 79v406h69v-395c0 -13.333 2 -21.833 6 -25.5s12.333 -5.5 25 -5.5h40c12 0 20.667 2.66699 26 8s8 14.666 8 27.999v390zM196.999 526.001h-60
c-43.333 0 -65 21.667 -65 65v17c0 43.333 21.667 65 65 65h60c43.333 0 65 -21.667 65 -65v-17c0 -43.333 -21.667 -65 -65 -65zM122.999 602.001v-5c0 -11.333 1.66699 -18.666 5 -21.999s11 -5 23 -5h32c12 0 19.667 1.66699 23 5s5 10.666 5 21.999v5
c0 11.333 -1.66699 18.666 -5 21.999s-11 5 -23 5h-32c-12 0 -19.667 -1.66699 -23 -5s-5 -10.666 -5 -21.999z" />
    <glyph glyph-name="Uhungarumlaut" unicode="&#x170;" horiz-adv-x="364" 
d="M244 90v532h68v-543c0 -52.667 -26.333 -79 -79 -79h-102c-52.667 -0 -79 26.333 -79 79v543h68v-532c0 -13.333 2 -21.833 6 -25.5s12.333 -5.5 25 -5.5h62c12.667 0 21 1.83301 25 5.5s6 12.167 6 25.5zM254 780l-98 -127h-54l78 127h74zM256 653h-54l78 127h74z" />
    <glyph glyph-name="uhungarumlaut" unicode="&#x171;" horiz-adv-x="333" 
d="M219 485l68.999 0.000976562v-485h-69v33c-7.33301 -22 -25.666 -33 -54.999 -33h-40c-52.667 0 -79 26.333 -79 79v406h69v-395c0 -13.333 2 -21.833 6 -25.5s12.333 -5.5 25 -5.5h40c12 0 20.667 2.66699 26 8s8 14.666 8 27.999v390zM225.999 643.001l-98 -127h-54
l78 127h74zM227.999 516.001h-54l78 127h74z" />
    <glyph glyph-name="Uogonek" unicode="&#x172;" horiz-adv-x="364" 
d="M244 622l68 0.00195312v-543c0 -52.667 -26.333 -79 -79 -79h-11v-78h-60c-13.333 0 -22 -1.83301 -26 -5.5s-6 -11.834 -6 -24.501v-20c0 -12.667 2 -20.834 6 -24.501s12.667 -5.5 26 -5.5h78v-54h-92c-52.667 0 -79 26.333 -79 79v29c0 52.667 26.333 79 79 79h8v25
h-25c-52.667 -0 -79 26.333 -79 79v543h68v-532c0 -13.333 2 -21.833 6 -25.5s12.333 -5.5 25 -5.5h62c12.667 0 21 1.83301 25 5.5s6 12.167 6 25.5v532z" />
    <glyph glyph-name="uogonek" unicode="&#x173;" horiz-adv-x="333" 
d="M228 -158l77.999 0.00292969v-54h-92c-52.667 0 -79 26.333 -79 79v29c0 52.667 26.333 79 79 79h8v25h-3v33c-7.33301 -22 -25.666 -33 -54.999 -33h-40c-52.667 0 -79 26.333 -79 79v406h69v-395c0 -13.333 2 -21.833 6 -25.5s12.333 -5.5 25 -5.5h40
c12 0 20.667 2.66699 26 8s8 14.666 8 27.999v390h69v-563h-60c-13.333 0 -22 -1.83301 -26 -5.5s-6 -11.834 -6 -24.501v-20c0 -12.667 2 -20.834 6 -24.501s12.667 -5.5 26 -5.5z" />
    <glyph glyph-name="Ydieresis" unicode="&#x178;" horiz-adv-x="319" 
d="M196 0h-68v190l-123 432h69l88 -365l83 365h69l-118 -432v-190zM119 737v-84h-88v84h88zM295 737v-84h-88v84h88z" />
    <glyph glyph-name="Zacute" unicode="&#x179;" horiz-adv-x="273" 
d="M15 564v59h253v-59l-195 -505h190v-59h-258v59l195 505h-185zM276 780l-98 -127h-62l78 127h82z" />
    <glyph glyph-name="zacute" unicode="&#x17a;" horiz-adv-x="266" 
d="M25 426v59h226v-59l-167 -367h167v-59h-236v59l167 367h-157zM276 643l-98 -127h-62l78 127h82z" />
    <glyph glyph-name="Zdotaccent" unicode="&#x17b;" horiz-adv-x="273" 
d="M268 623v-59l-195 -505h190v-59h-258v59l195 505h-185v59h253zM190 739v-86h-92v86h92z" />
    <glyph glyph-name="zdotaccent" unicode="&#x17c;" horiz-adv-x="266" 
d="M251 485v-59l-167 -367h167v-59h-236v59l167 367h-157v59h226zM187 622v-86h-92v86h92z" />
    <glyph glyph-name="Zcaron" unicode="&#x17d;" horiz-adv-x="273" 
d="M268 623v-59l-195 -505h190v-59h-258v59l195 505h-185v59h253zM182 653h-87l-85 127h76l52 -84l53 84h76z" />
    <glyph glyph-name="zcaron" unicode="&#x17e;" horiz-adv-x="266" 
d="M25 426v59h226v-59l-167 -367h167v-59h-236v59l167 367h-157zM180 516h-87l-85 127h76l52 -84l53 84h76z" />
    <glyph glyph-name="florin" unicode="&#x192;" horiz-adv-x="328" 
d="M279 605h-46c-12.667 0 -20.667 -1.83301 -24 -5.5s-5.66602 -12.167 -6.99902 -25.5l-11 -89h88v-59h-96l-61 -488c-3.33301 -27.333 -11 -47.333 -23 -60s-30.667 -19 -56 -19h-67v64h46c12.667 0 20.667 1.83301 24 5.5s5.66602 12.167 6.99902 25.5l59 472h-65v59h73
l13 105c3.33301 27.333 10.833 47.333 22.5 60s30.5 19 56.5 19h67v-64z" />
    <glyph glyph-name="uni0218" unicode="&#x218;" horiz-adv-x="327" 
d="M126 -51h80v-39l-53 -121h-27v160zM218 90v170c0 13.333 -2 21.833 -6 25.5s-12.333 5.5 -25 5.5h-68c-52.667 0 -79 26.333 -79 79v173c0 52.667 26.333 79 79 79h88c52.667 0 79 -26.333 79 -79v-96h-69v85c0 13.333 -1.83301 21.833 -5.5 25.5s-12.167 5.5 -25.5 5.5
h-46c-13.333 0 -21.833 -1.83301 -25.5 -5.5s-5.5 -12.167 -5.5 -25.5v-151c0 -12.667 1.83301 -21 5.5 -25s12.167 -6 25.5 -6h68c52.667 0 79 -26.333 79 -79v-192c0 -52.667 -26.333 -79 -79 -79h-87c-52.667 -0 -79 26.333 -79 79v96h69v-85
c0 -13.333 1.83301 -21.833 5.5 -25.5s12.167 -5.5 25.5 -5.5h45c12.667 0 21 1.83301 25 5.5s6 12.167 6 25.5z" />
    <glyph glyph-name="uni0219" unicode="&#x219;" horiz-adv-x="297" 
d="M125 -51h80v-39l-53 -121h-27v160zM194 89v92c0 12.667 -2 21 -6 25s-12.333 6 -25 6h-49c-52.667 0 -79 26.333 -79 79v115c0 52.667 26.333 79 79 79h68c52.667 0 79 -26.333 79 -79v-49h-68v39c0 13.333 -1.83301 21.833 -5.5 25.5s-12.167 5.5 -25.5 5.5h-28
c-13.333 0 -21.833 -1.83301 -25.5 -5.5s-5.5 -12.167 -5.5 -25.5v-95c0 -12.667 1.83301 -21 5.5 -25s12.167 -6 25.5 -6h49c52.667 0 79 -26.333 79 -79v-112c0 -52.667 -26.333 -79 -79 -79h-67c-52.667 -0 -79 26.333 -79 79v49h68v-39c0 -12.667 1.83301 -21 5.5 -25
s12.167 -6 25.5 -6h27c12.667 0 21 2 25 6s6 12.333 6 25z" />
    <glyph glyph-name="uni021A" unicode="&#x21a;" horiz-adv-x="278" 
d="M273 622v-59h-100v-563h-68v563h-100v59h268zM101 -211v160h80v-39l-53 -121h-27z" />
    <glyph glyph-name="uni021B" unicode="&#x21b;" horiz-adv-x="197" 
d="M187 426h-69v-331c0 -12.667 2 -21 6 -25s12.333 -6 25 -6h38v-64h-59c-52.667 -0 -79 26.333 -79 79v347h-44v59h44v79h69v-79h69v-59zM78 -211v160h80v-39l-53 -121h-27z" />
    <glyph glyph-name="circumflex" unicode="&#x2c6;" horiz-adv-x="400" 
d="M71 516l85 127h87l85 -127h-76l-53 84l-52 -84h-76z" />
    <glyph glyph-name="caron" unicode="&#x2c7;" horiz-adv-x="400" 
d="M156 516l-85 127h76l52 -84l53 84h76l-85 -127h-87z" />
    <glyph glyph-name="uni02C9" unicode="&#x2c9;" horiz-adv-x="400" 
d="M82 550v58h236v-58h-236z" />
    <glyph glyph-name="breve" unicode="&#x2d8;" horiz-adv-x="400" 
d="M264 643h66v-48c0 -52.667 -26.333 -79 -79 -79h-102c-52.667 0 -79 26.333 -79 79v48h66v-40c0 -12.667 2 -21 6 -25s12.333 -6 25 -6h66c12.667 0 21 2 25 6s6 12.333 6 25v40z" />
    <glyph glyph-name="dotaccent" unicode="&#x2d9;" horiz-adv-x="400" 
d="M154 536v86h92v-86h-92z" />
    <glyph glyph-name="ring" unicode="&#x2da;" horiz-adv-x="400" 
d="M244 577v5c0 11.333 -1.66699 18.666 -5 21.999s-11 5 -23 5h-32c-12 0 -19.667 -1.66699 -23 -5s-5 -10.666 -5 -21.999v-5c0 -11.333 1.66699 -18.666 5 -21.999s11 -5 23 -5h32c12 0 19.667 1.66699 23 5s5 10.666 5 21.999zM295 588v-17
c0 -43.333 -21.667 -65 -65 -65h-60c-43.333 0 -65 21.667 -65 65v17c0 43.333 21.667 65 65 65h60c43.333 0 65 -21.667 65 -65z" />
    <glyph glyph-name="ogonek" unicode="&#x2db;" horiz-adv-x="400" 
d="M206 -158l78 0.00195312v-54h-92c-52.667 0 -79 26.333 -79 79v29c0 52.667 26.333 79 79 79h8v35h66v-88h-60c-13.333 0 -22 -1.83301 -26 -5.5s-6 -11.834 -6 -24.501v-20c0 -12.667 2 -20.834 6 -24.501s12.667 -5.5 26 -5.5z" />
    <glyph glyph-name="tilde" unicode="&#x2dc;" horiz-adv-x="400" 
d="M249 534c-16 0 -34.166 5.83301 -54.499 17.5s-33.833 17.5 -40.5 17.5c-11.333 0 -17 -8 -17 -24v-11h-62v14c0 24.667 5.5 43.5 16.5 56.5s29.5 19.5 55.5 19.5h6c15.333 0 32.666 -5.83301 51.999 -17.5s32.5 -17.5 39.5 -17.5s11.833 1.66699 14.5 5s4 10 4 20v10h62
v-14c0 -24.667 -5.16699 -43.5 -15.5 -56.5s-28.833 -19.5 -55.5 -19.5h-5z" />
    <glyph glyph-name="hungarumlaut" unicode="&#x2dd;" horiz-adv-x="400" 
d="M74 516l78 127h74l-98 -127h-54zM174 516l78 127h74l-98 -127h-54z" />
    <glyph glyph-name="pi" unicode="&#x3c0;" horiz-adv-x="400" 
d="M400 485v-59h-70v-426h-68v426h-126v-347c0 -52.667 -26.333 -79 -79 -79h-57v64h36c13.333 0 21.833 2 25.5 6s5.5 12.333 5.5 25v390h333z" />
    <glyph glyph-name="uni0901" unicode="&#x901;" horiz-adv-x="0" 
d="M-124 830h68v-69h-68v69zM-218 791h64v-40c0 -12.667 2 -21 6 -25s12.333 -6 25 -6h68c12.667 0 21 2 25 6s6 12.333 6 25v40h64v-46c0 -52.667 -26.333 -79 -79 -79h-100c-52.667 0 -79 26.333 -79 79v46z" />
    <glyph glyph-name="uni0902" unicode="&#x902;" horiz-adv-x="0" 
d="M-130 813h73v-86h-73v86z" />
    <glyph glyph-name="uni0903" unicode="&#x903;" horiz-adv-x="153" 
d="M40 499h73v-86h-73v86zM40 149h73v-86h-73v86z" />
    <glyph glyph-name="uni0905" unicode="&#x905;" horiz-adv-x="500" 
d="M520 622v-59h-75v-563h-68v289h-106v-132c0 -52.667 -26.333 -79 -79 -79h-83c-52.667 0 -79 26.333 -79 79v96h69v-85c0 -13.333 1.83301 -21.833 5.5 -25.5s12.167 -5.5 25.5 -5.5h41c12.667 0 21 1.83301 25 5.5s6 12.167 6 25.5v116c0 13.333 -2.33301 22.333 -7 27
s-13.667 7 -27 7h-68v59h68c13.333 0 22.333 2.5 27 7.5s7 13.833 7 26.5v121c0 13.333 -2 21.833 -6 25.5s-12.333 5.5 -25 5.5h-41c-13.333 0 -21.833 -1.83301 -25.5 -5.5s-5.5 -12.167 -5.5 -25.5v-85h-69v96c0 52.667 26.333 79 79 79h83c52.667 0 79 -26.333 79 -79
v-147c0 -29.333 -12.333 -45 -37 -47v-2h143v275h143z" />
    <glyph glyph-name="uni0906" unicode="&#x906;" horiz-adv-x="680" 
d="M699 622v-59h-75v-563h-68v563h-111v-563h-68v289h-106v-132c0 -52.667 -26.333 -79 -79 -79h-83c-52.667 0 -79 26.333 -79 79v96h69v-85c0 -13.333 1.83301 -21.833 5.5 -25.5s12.167 -5.5 25.5 -5.5h41c12.667 0 21 1.83301 25 5.5s6 12.167 6 25.5v116
c0 13.333 -2.33301 22.333 -7 27s-13.667 7 -27 7h-68v59h68c13.333 0 22.333 2.5 27 7.5s7 13.833 7 26.5v121c0 13.333 -2 21.833 -6 25.5s-12.333 5.5 -25 5.5h-41c-13.333 0 -21.833 -1.83301 -25.5 -5.5s-5.5 -12.167 -5.5 -25.5v-85h-69v96c0 52.667 26.333 79 79 79
h83c52.667 0 79 -26.333 79 -79v-147c0 -29.333 -12.333 -45 -37 -47v-2h143v275h322z" />
    <glyph glyph-name="uni0907" unicode="&#x907;" horiz-adv-x="340" 
d="M284 426h-149c-12.667 0 -21 -2 -25 -6s-6 -12.333 -6 -25v-40c0 -12.667 2 -21 6 -25s12.333 -6 25 -6h81c52.667 0 79 -26.333 79 -79v-88c0 -52.667 -26.333 -79 -79 -79h-99v-78h-69v190h69v-53h78c12.667 0 21 1.83301 25 5.5s6 12.167 6 25.5v66
c0 13.333 -2 21.833 -6 25.5s-12.333 5.5 -25 5.5h-81c-52.667 0 -79 26.333 -79 79v62c0 52.667 26.333 79 79 79h101v78h-235v59h380v-59h-76v-137z" />
    <glyph glyph-name="uni0908" unicode="&#x908;" horiz-adv-x="340" 
d="M284 426l-149 0.000976562c-12.667 0 -21 -2 -25 -6s-6 -12.333 -6 -25v-40c0 -12.667 2 -21 6 -25s12.333 -6 25 -6h81c52.667 0 79 -26.333 79 -79v-88c0 -52.667 -26.333 -79 -79 -79h-99v-78h-69v190h69v-53h78c12.667 0 21 1.83301 25 5.5s6 12.167 6 25.5v66
c0 13.333 -2 21.833 -6 25.5s-12.333 5.5 -25 5.5h-81c-52.667 0 -79 26.333 -79 79v62c0 52.667 26.333 79 79 79h101v78h-235v59h235v73c0 52 26.333 78 79 78h55v-59h-34c-13.333 0 -21.833 -1.83301 -25.5 -5.5s-5.5 -11.834 -5.5 -24.501v-62h76v-59h-76v-137z" />
    <glyph glyph-name="uni0909" unicode="&#x909;" horiz-adv-x="324" 
d="M344 622v-59h-83c5.33301 -5.33301 8 -14.333 8 -27v-130c0 -29.333 -12.333 -45 -37 -47v-2c24.667 -2 37 -17.333 37 -46v-232c0 -52.667 -26.333 -79 -79 -79h-86c-52.667 -0 -79 26.333 -79 79v127h69v-116c0 -13.333 2 -21.833 6 -25.5s12.333 -5.5 25 -5.5h44
c12.667 0 21 1.83301 25 5.5s6 12.167 6 25.5v205c0 12.667 -2 21 -6 25s-12.333 6 -25 6h-85v59h85c12.667 0 21 1.83301 25 5.5s6 12.167 6 25.5v115c0 14.667 -2.33301 23.667 -7 27s-17.667 5 -39 5h-174v59h364z" />
    <glyph glyph-name="uni090A" unicode="&#x90a;" horiz-adv-x="456" 
d="M476 622v-59h-215c5.33301 -5.33301 8 -14.333 8 -27v-130c0 -29.333 -12.333 -45 -37 -47v-2h115c52.667 0 79 -26.333 79 -79v-199c0 -52.667 -26.333 -79 -79 -79h-43v59h22c13.333 0 21.833 1.83301 25.5 5.5s5.5 12.167 5.5 25.5v177c0 12.667 -1.83301 21 -5.5 25
s-12.167 6 -25.5 6h-57v-219c0 -52.667 -26.333 -79 -79 -79h-86c-52.667 -0 -79 26.333 -79 79v127h69v-116c0 -13.333 2 -21.833 6 -25.5s12.333 -5.5 25 -5.5h44c12.667 0 21 1.83301 25 5.5s6 12.167 6 25.5v205c0 12.667 -2 21 -6 25s-12.333 6 -25 6h-85v59h85
c12.667 0 21 1.83301 25 5.5s6 12.167 6 25.5v115c0 14.667 -2.33301 23.667 -7 27s-17.667 5 -39 5h-174v59h496z" />
    <glyph glyph-name="uni090B" unicode="&#x90b;" horiz-adv-x="623" 
d="M317 563v-299.999h81c-8 9.33301 -12 29.333 -12 60v84c0 52 26.333 78 79 78h44c52.667 0 79 -26 79 -78v-79c0 -27.333 -2.5 -46.833 -7.5 -58.5s-13.167 -19.5 -24.5 -23.5v-5c20.667 -9.33301 31 -28.666 31 -57.999v-105c0 -52 -26.333 -78 -79 -78h-47
c-23.333 0 -40.833 7.16699 -52.5 21.5s-17.5 33.166 -17.5 56.499v61h68v-48c0 -12.667 1.66699 -21.167 5 -25.5s11.333 -6.5 24 -6.5h2c12 0 19.667 2.16699 23 6.5s5 12.833 5 25.5v85c0 11.333 -1.83301 18.666 -5.5 21.999s-11.167 5 -22.5 5h-173v-203h-68v203h-23
l-145 -203h-77l175 245l-61 123c-10 20.667 -20.167 35 -30.5 43s-25.5 12 -45.5 12h-37v62h37c36 0 61.833 -4.5 77.5 -13.5s30.5 -27.167 44.5 -54.5l77 -154h8v300h-269v59h663v-59h-326zM454 394.001v-99c0 -21.333 8.33301 -32 25 -32h18c15.333 0 23 10.667 23 32v99
c0 12.667 -1.66699 21.167 -5 25.5s-11.333 6.5 -24 6.5h-8c-12.667 0 -20.667 -2.16699 -24 -6.5s-5 -12.833 -5 -25.5z" />
    <glyph glyph-name="uni090C" unicode="&#x90c;" horiz-adv-x="488" 
d="M440 34h-48c-13.333 0 -21.833 -2 -25.5 -6s-5.5 -12.333 -5.5 -25v-36c0 -12.667 1.83301 -21 5.5 -25s12.167 -6 25.5 -6h89v-59h-110c-52.667 0 -79 26.333 -79 79v58c0 52.667 25.333 79 76 79h3v333h-63c-13.333 0 -21.833 -2 -25.5 -6s-5.5 -12.333 -5.5 -25v-206
h-69v206c0 12.667 -2 21 -6 25s-12.333 6 -25 6h-32c-12.667 0 -21 -2 -25 -6s-6 -12.333 -6 -25v-302c0 -12.667 2 -21 6 -25s12.333 -6 25 -6h61v-62h-82c-52.667 -0 -79 26.333 -79 79v327c0 52.667 26.333 79 79 79h72c29.333 0 45 -12.333 47 -37h2
c2 24.667 17.333 37 46 37h80v78h-391v59h528v-59h-68v-529z" />
    <glyph glyph-name="uni090D" unicode="&#x90d;" horiz-adv-x="377" 
d="M397 622v-59h-65v-200c0 -52.667 -26.333 -79 -79 -79h-65v59h44c13.333 0 21.833 1.83301 25.5 5.5s5.5 12.167 5.5 25.5v189h-139v-473c0 -13.333 2 -21.833 6 -25.5s12.333 -5.5 25 -5.5h74c12.667 0 21 1.83301 25 5.5s6 12.167 6 25.5v106h69v-117
c0 -52.667 -26.333 -79 -79 -79h-116c-52.667 -0 -79 26.333 -79 79v484h-75v59h417zM242 666h-100c-52.667 0 -79 26.333 -79 79v46h64v-40c0 -12.667 1.83301 -21 5.5 -25s12.167 -6 25.5 -6h68c13.333 0 21.833 2 25.5 6s5.5 12.333 5.5 25v40h64v-46
c0 -52.667 -26.333 -79 -79 -79z" />
    <glyph glyph-name="uni090E" unicode="&#x90e;" horiz-adv-x="377" 
d="M397 622v-59h-65v-200c0 -52.667 -26.333 -79 -79 -79h-65v59h44c13.333 0 21.833 1.83301 25.5 5.5s5.5 12.167 5.5 25.5v189h-139v-473c0 -13.333 2 -21.833 6 -25.5s12.333 -5.5 25 -5.5h74c12.667 0 21 1.83301 25 5.5s6 12.167 6 25.5v106h69v-117
c0 -52.667 -26.333 -79 -79 -79h-116c-52.667 -0 -79 26.333 -79 79v484h-75v59h283v35c0 12.667 -1.83301 21 -5.5 25s-12.167 6 -25.5 6h-69c-52.667 0 -79 26.333 -79 79v46h69v-35c0 -13.333 1.83301 -21.833 5.5 -25.5s12.167 -5.5 25.5 -5.5h69
c52.667 0 79 -26.333 79 -79v-46h65z" />
    <glyph glyph-name="uni090F" unicode="&#x90f;" horiz-adv-x="377" 
d="M397 622v-59h-65v-200c0 -52.667 -26.333 -79 -79 -79h-65v59h44c13.333 0 21.833 1.83301 25.5 5.5s5.5 12.167 5.5 25.5v189h-139v-473c0 -13.333 2 -21.833 6 -25.5s12.333 -5.5 25 -5.5h74c12.667 0 21 1.83301 25 5.5s6 12.167 6 25.5v106h69v-117
c0 -52.667 -26.333 -79 -79 -79h-116c-52.667 -0 -79 26.333 -79 79v484h-75v59h417z" />
    <glyph glyph-name="uni0910" unicode="&#x910;" horiz-adv-x="377" 
d="M397 622v-59h-65v-200c0 -52.667 -26.333 -79 -79 -79h-65v59h44c13.333 0 21.833 1.83301 25.5 5.5s5.5 12.167 5.5 25.5v189h-139v-473c0 -13.333 2 -21.833 6 -25.5s12.333 -5.5 25 -5.5h74c12.667 0 21 1.83301 25 5.5s6 12.167 6 25.5v106h69v-117
c0 -52.667 -26.333 -79 -79 -79h-116c-52.667 -0 -79 26.333 -79 79v484h-75v59h269c-22.667 24 -48 55.667 -76 95l-68 96h83l134 -191h75z" />
    <glyph glyph-name="uni0911" unicode="&#x911;" horiz-adv-x="680" 
d="M655 791h64v-46c0 -52.667 -26.333 -79 -79 -79h-100c-52.667 0 -79 26.333 -79 79v46h64v-40c0 -12.667 1.83301 -21 5.5 -25s12.167 -6 25.5 -6h68c13.333 0 21.833 2 25.5 6s5.5 12.333 5.5 25v40zM699 622v-59h-75v-563h-68v563h-111v-563h-68v289h-106v-132
c0 -52.667 -26.333 -79 -79 -79h-83c-52.667 0 -79 26.333 -79 79v96h69v-85c0 -13.333 1.83301 -21.833 5.5 -25.5s12.167 -5.5 25.5 -5.5h41c12.667 0 21 1.83301 25 5.5s6 12.167 6 25.5v116c0 13.333 -2.33301 22.333 -7 27s-13.667 7 -27 7h-68v59h68
c13.333 0 22.333 2.5 27 7.5s7 13.833 7 26.5v121c0 13.333 -2 21.833 -6 25.5s-12.333 5.5 -25 5.5h-41c-13.333 0 -21.833 -1.83301 -25.5 -5.5s-5.5 -12.167 -5.5 -25.5v-85h-69v96c0 52.667 26.333 79 79 79h83c52.667 0 79 -26.333 79 -79v-147
c0 -29.333 -12.333 -45 -37 -47v-2h143v275h322z" />
    <glyph glyph-name="uni0912" unicode="&#x912;" horiz-adv-x="679" 
d="M699 622v-59h-75v-563h-68v563h-111v-563h-68v289h-106v-132c0 -52.667 -26.333 -79 -79 -79h-83c-52.667 0 -79 26.333 -79 79v96h69v-85c0 -13.333 1.83301 -21.833 5.5 -25.5s12.167 -5.5 25.5 -5.5h41c12.667 0 21 1.83301 25 5.5s6 12.167 6 25.5v116
c0 13.333 -2.33301 22.333 -7 27s-13.667 7 -27 7h-68v59h68c13.333 0 22.333 2.5 27 7.5s7 13.833 7 26.5v121c0 13.333 -2 21.833 -6 25.5s-12.333 5.5 -25 5.5h-41c-13.333 0 -21.833 -1.83301 -25.5 -5.5s-5.5 -12.167 -5.5 -25.5v-85h-69v96c0 52.667 26.333 79 79 79
h83c52.667 0 79 -26.333 79 -79v-147c0 -29.333 -12.333 -45 -37 -47v-2h143v275h178v35c0 12.667 -1.83301 21 -5.5 25s-12.167 6 -25.5 6h-69c-52.667 0 -79 26.333 -79 79v46h69v-35c0 -13.333 1.83301 -21.833 5.5 -25.5s12.167 -5.5 25.5 -5.5h69
c52.667 0 79 -26.333 79 -79v-46h75z" />
    <glyph glyph-name="uni0913" unicode="&#x913;" horiz-adv-x="679" 
d="M699 622v-59h-75v-563h-68v563h-111v-563h-68v289h-106v-132c0 -52.667 -26.333 -79 -79 -79h-83c-52.667 0 -79 26.333 -79 79v96h69v-85c0 -13.333 1.83301 -21.833 5.5 -25.5s12.167 -5.5 25.5 -5.5h41c12.667 0 21 1.83301 25 5.5s6 12.167 6 25.5v116
c0 13.333 -2.33301 22.333 -7 27s-13.667 7 -27 7h-68v59h68c13.333 0 22.333 2.5 27 7.5s7 13.833 7 26.5v121c0 13.333 -2 21.833 -6 25.5s-12.333 5.5 -25 5.5h-41c-13.333 0 -21.833 -1.83301 -25.5 -5.5s-5.5 -12.167 -5.5 -25.5v-85h-69v96c0 52.667 26.333 79 79 79
h83c52.667 0 79 -26.333 79 -79v-147c0 -29.333 -12.333 -45 -37 -47v-2h143v275h176c-22.667 24 -48 55.667 -76 95l-68 96h83l134 -191h73z" />
    <glyph glyph-name="uni0914" unicode="&#x914;" horiz-adv-x="680" 
d="M699 622v-59.001h-75v-563h-68v563h-111v-563h-68v289h-106v-132c0 -52.667 -26.333 -79 -79 -79h-83c-52.667 0 -79 26.333 -79 79v96h69v-85c0 -13.333 1.83301 -21.833 5.5 -25.5s12.167 -5.5 25.5 -5.5h41c12.667 0 21 1.83301 25 5.5s6 12.167 6 25.5v116
c0 13.333 -2.33301 22.333 -7 27s-13.667 7 -27 7h-68v59h68c13.333 0 22.333 2.5 27 7.5s7 13.833 7 26.5v121c0 13.333 -2 21.833 -6 25.5s-12.333 5.5 -25 5.5h-41c-13.333 0 -21.833 -1.83301 -25.5 -5.5s-5.5 -12.167 -5.5 -25.5v-85h-69v96c0 52.667 26.333 79 79 79
h83c52.667 0 79 -26.333 79 -79v-147c0 -29.333 -12.333 -45 -37 -47v-2h143v275h166c-18.667 14.667 -41.334 34.334 -68.001 59.001l-140 132h91l42 -46c50 -54.667 87.667 -103 113 -145h4c-13.333 27.333 -25.666 54.333 -36.999 81l-46 110h74l45 -191h78z" />
    <glyph glyph-name="uni0915" unicode="&#x915;" horiz-adv-x="507" 
d="M527 563h-239.001v-87c6.66699 6 17.334 9 32.001 9h63c52.667 0 79 -26.333 79 -79v-249c0 -52.667 -26.333 -79 -79 -79h-55v59h34c13.333 0 21.833 1.83301 25.5 5.5s5.5 12.167 5.5 25.5v227c0 12.667 -1.83301 21 -5.5 25s-12.167 6 -25.5 6h-40
c-13.333 0 -22.333 -2.33301 -27 -7s-7 -13.667 -7 -27v-392h-69v87c-7.33301 -6 -18 -9 -32 -9h-63c-52.667 0 -79 26.333 -79 79v249c0 52.667 26.333 79 79 79h55v-59h-34c-12.667 0 -21 -2 -25 -6s-6 -12.333 -6 -25v-227c0 -13.333 2 -21.833 6 -25.5
s12.333 -5.5 25 -5.5h40c12.667 0 21.5 2.5 26.5 7.5s7.5 13.833 7.5 26.5v392h-239v59h547v-59z" />
    <glyph glyph-name="uni0916" unicode="&#x916;" horiz-adv-x="584" 
d="M604 622v-59.001h-75v-563h-65v134c-6.66699 -10 -19 -15 -37 -15h-52c-52.667 0 -79 26.333 -79 79v194c0 52.667 26.333 79 79 79h59v-59h-42c-13.333 0 -21.833 -2 -25.5 -6s-5.5 -12.333 -5.5 -25v-172c0 -12.667 1.83301 -21 5.5 -25s12.167 -6 25.5 -6h31
c15.333 0 26 2.83301 32 8.5s9 15.834 9 30.501v346h-220c5.33301 -5.33301 8 -14 8 -26v-212c0 -52.667 -26.333 -79 -79 -79h-56v-153c0 -12.667 1.83301 -21 5.5 -25s12.167 -6 25.5 -6h213v-62h-234c-52.667 -0 -79 26.333 -79 79v392h69v-166h35
c13.333 0 21.833 1.83301 25.5 5.5s5.5 12.167 5.5 25.5v196c0 13.333 -1.83301 21.833 -5.5 25.5s-12.167 5.5 -25.5 5.5h-172v59h624z" />
    <glyph glyph-name="uni0917" unicode="&#x917;" horiz-adv-x="512" 
d="M532 622v-59h-75v-563h-69v563h-104v-406c0 -52.667 -26.333 -79 -79 -79h-91c-52.667 0 -79 26.333 -79 79v190c0 52.667 26.333 79 79 79h101v137h-235v59h552zM135 137h49c13.333 0 21.833 1.83301 25.5 5.5s5.5 12.167 5.5 25.5v199h-80
c-12.667 0 -21 -1.83301 -25 -5.5s-6 -12.167 -6 -25.5v-168c0 -13.333 2 -21.833 6 -25.5s12.333 -5.5 25 -5.5z" />
    <glyph glyph-name="uni0918" unicode="&#x918;" horiz-adv-x="416" 
d="M436 622l0.000976562 -58.999h-75v-563h-69v87c-6.66699 -6 -17.334 -9 -32.001 -9h-133c-52.667 0 -79 26.333 -79 79v144c0 28.667 12.333 44 37 46v2c-24.667 2 -37 17.667 -37 47v136c0 15.333 4.66699 25.666 14 30.999h-82v59h456zM292.001 171.001v392.002h-143
c-13.333 -0.666992 -22 -2.83398 -26 -6.50098s-6 -11.834 -6 -24.501v-122c0 -13.333 1.83301 -21.833 5.5 -25.5s12.167 -5.5 25.5 -5.5h68v-59h-68c-13.333 0 -21.833 -2 -25.5 -6s-5.5 -12.333 -5.5 -25v-121c0 -13.333 1.83301 -21.833 5.5 -25.5
s12.167 -5.5 25.5 -5.5h110c13.333 0 22.333 2.5 27 7.5s7 13.833 7 26.5z" />
    <glyph glyph-name="uni0919" unicode="&#x919;" horiz-adv-x="351" 
d="M-20 622h391v-59h-90v-137h-121c-13.333 0 -21.833 -2 -25.5 -6s-5.5 -12.333 -5.5 -25v-70c0 -12.667 1.83301 -21 5.5 -25s12.167 -6 25.5 -6h52c52.667 0 79 -26.333 79 -79v-136c0 -52.667 -26.333 -79 -79 -79h-85c-52.667 -0 -79 26.333 -79 79v86h69v-75
c0 -13.333 1.83301 -21.833 5.5 -25.5s12.167 -5.5 25.5 -5.5h43c12.667 0 21 1.83301 25 5.5s6 12.167 6 25.5v114c0 13.333 -2 21.833 -6 25.5s-12.333 5.5 -25 5.5h-52c-52.667 0 -79 26.333 -79 79v92c0 52.667 26.333 79 79 79h73v78h-232v59zM273 308v86h73v-86h-73z
" />
    <glyph glyph-name="uni091A" unicode="&#x91a;" horiz-adv-x="386" 
d="M406 622l0.000976562 -58.998h-75v-563h-69v87c-6.66699 -6 -17.334 -9 -32.001 -9h-83c-52.667 0 -79 26.333 -79 79v243c0 12 2.66699 20.667 8 26h-71v59h204v-59h-40c-13.333 -0.666992 -22 -2.83398 -26 -6.50098s-6 -11.834 -6 -24.501v-227
c0 -13.333 1.83301 -21.833 5.5 -25.5s12.167 -5.5 25.5 -5.5h60c13.333 0 22.333 2.5 27 7.5s7 13.833 7 26.5v392h-282v59h426z" />
    <glyph glyph-name="uni091B" unicode="&#x91b;" horiz-adv-x="501" 
d="M521 563h-139v-78c47.333 -2.66699 71 -29 71 -79v-327c0 -52.667 -26.333 -79 -79 -79h-240c-52.667 -0 -79 26.333 -79 79v181c0 28.667 12.333 44 37 46v2c-24.667 2 -37 17.667 -37 47v182c0 12 2.66699 20.667 8 26h-83v59h541v-59zM318 563l-144 0.000976562l11 -1
c-28.667 1.33301 -46 0.666016 -52 -2.00098s-9 -12 -9 -28v-163c0 -12.667 2 -21 6 -25s12.333 -6 25 -6h37v-59h-37c-12.667 0 -21 -1.83301 -25 -5.5s-6 -12.167 -6 -25.5v-158c0 -13.333 2 -21.833 6 -25.5s12.333 -5.5 25 -5.5h203c13.333 0 21.833 1.83301 25.5 5.5
s5.5 12.167 5.5 25.5v305c0 12.667 -1.83301 21 -5.5 25s-12.167 6 -25.5 6h-20c-13.333 0 -21.833 -2 -25.5 -6s-5.5 -12.333 -5.5 -25v-132c0 -12.667 1.83301 -21 5.5 -25s12.167 -6 25.5 -6h20v-59h-36c-52.667 0 -79 26.333 -79 79v154c0 52 25 78.333 75 79v78z" />
    <glyph glyph-name="uni091C" unicode="&#x91c;" horiz-adv-x="490" 
d="M510 622v-59h-75v-563h-69v426h-87v-269c0 -52.667 -26.333 -79 -79 -79h-76c-52.667 0 -79 26.333 -79 79v328h69v-317c0 -13.333 2 -21.833 6 -25.5s12.333 -5.5 25 -5.5h34c12.667 0 21 1.83301 25 5.5s6 12.167 6 25.5v317h156v78h-386v59h530z" />
    <glyph glyph-name="uni091D" unicode="&#x91d;" horiz-adv-x="532" 
d="M552 622v-59h-75v-563h-69v265h-109c0.666992 -4 1 -10.667 1 -20v-88c0 -52.667 -26.333 -79 -79 -79h-104v-78h-69v190h69v-53h83c13.333 0 21.833 1.83301 25.5 5.5s5.5 12.167 5.5 25.5v66c0 13.333 -1.83301 21.833 -5.5 25.5s-12.167 5.5 -25.5 5.5h-75
c-52.667 0 -79 26.333 -79 79v62c0 52.667 26.333 79 79 79h98v78h-243v59h572zM408 324v239h-116v-137h-146c-13.333 0 -21.833 -2 -25.5 -6s-5.5 -12.333 -5.5 -25v-40c0 -12.667 1.83301 -21 5.5 -25s12.167 -6 25.5 -6h262z" />
    <glyph glyph-name="uni091E" unicode="&#x91e;" horiz-adv-x="484" 
d="M504 622v-59h-75v-563h-69v274h-101v-117c0 -52.667 -26.333 -79 -79 -79h-71c-52.667 0 -79 26.333 -79 79v99h69v-88c0 -13.333 1.83301 -21.833 5.5 -25.5s12.167 -5.5 25.5 -5.5h29c12.667 0 21 1.83301 25 5.5s6 12.167 6 25.5v227c0 12.667 -2 21 -6 25
s-12.333 6 -25 6h-86v59h107c52.667 0 79 -26.333 79 -79v-73h101v230h-380v59h524z" />
    <glyph glyph-name="uni091F" unicode="&#x91f;" horiz-adv-x="334" 
d="M282 426h-127c-12.667 0 -21 -2 -25 -6s-6 -12.333 -6 -25v-305c0 -13.333 2 -21.833 6 -25.5s12.333 -5.5 25 -5.5h34c12.667 0 21 1.83301 25 5.5s6 12.167 6 25.5v104h69v-115c0 -52.667 -26.333 -79 -79 -79h-76c-52.667 -0 -79 26.333 -79 79v327
c0 52.667 26.333 79 79 79h79v78h-233v59h374v-59h-72v-137z" />
    <glyph glyph-name="uni0920" unicode="&#x920;" horiz-adv-x="368" 
d="M388 563h-166v-78h19c52.667 0 79 -26.333 79 -79v-327c0 -52.667 -26.333 -79 -79 -79h-107c-52.667 -0 -79 26.333 -79 79v327c0 52.667 26.333 79 79 79h19v78h-173v59h408v-59zM251 90v305c0 12.667 -1.83301 21 -5.5 25s-12.167 6 -25.5 6h-65
c-12.667 0 -21 -2 -25 -6s-6 -12.333 -6 -25v-305c0 -13.333 2 -21.833 6 -25.5s12.333 -5.5 25 -5.5h65c13.333 0 21.833 1.83301 25.5 5.5s5.5 12.167 5.5 25.5z" />
    <glyph glyph-name="uni0921" unicode="&#x921;" horiz-adv-x="351" 
d="M281 426h-121c-13.333 0 -21.833 -2 -25.5 -6s-5.5 -12.333 -5.5 -25v-70c0 -12.667 1.83301 -21 5.5 -25s12.167 -6 25.5 -6h52c52.667 0 79 -26.333 79 -79v-136c0 -52.667 -26.333 -79 -79 -79h-85c-52.667 -0 -79 26.333 -79 79v86h69v-75
c0 -13.333 1.83301 -21.833 5.5 -25.5s12.167 -5.5 25.5 -5.5h43c12.667 0 21 1.83301 25 5.5s6 12.167 6 25.5v114c0 13.333 -2 21.833 -6 25.5s-12.333 5.5 -25 5.5h-52c-52.667 0 -79 26.333 -79 79v92c0 52.667 26.333 79 79 79h73v78h-232v59h391v-59h-90v-137z" />
    <glyph glyph-name="uni0922" unicode="&#x922;" horiz-adv-x="377" 
d="M282 426h-127c-12.667 0 -21 -2 -25 -6s-6 -12.333 -6 -25v-305c0 -13.333 2 -21.833 6 -25.5s12.333 -5.5 25 -5.5h67c13.333 0 21.833 1.83301 25.5 5.5s5.5 12.167 5.5 25.5v103c0 12.667 -1.83301 21 -5.5 25s-12.167 6 -25.5 6h-41v59h62
c52.667 0 79 -26.333 79 -79v-125c0 -52.667 -26.333 -79 -79 -79h-109c-52.667 -0 -79 26.333 -79 79v327c0 52.667 26.333 79 79 79h79v78h-233v59h417v-59h-115v-137z" />
    <glyph glyph-name="uni0923" unicode="&#x923;" horiz-adv-x="490" 
d="M510 622v-59h-75v-563h-69v563h-87v-406c0 -52.667 -26.333 -79 -79 -79h-76c-52.667 0 -79 26.333 -79 79v406h-65v59h530zM210 168v395h-96v-395c0 -13.333 2 -21.833 6 -25.5s12.333 -5.5 25 -5.5h34c12.667 0 21 1.83301 25 5.5s6 12.167 6 25.5z" />
    <glyph glyph-name="uni0924" unicode="&#x924;" horiz-adv-x="373" 
d="M393 622v-59h-75v-563h-69v426h-104c-12.667 0 -21 -2 -25 -6s-6 -12.333 -6 -25v-302c0 -12.667 2 -21 6 -25s12.333 -6 25 -6h34v-62h-55c-52.667 -0 -79 26.333 -79 79v327c0 52.667 26.333 79 79 79h125v78h-269v59h413z" />
    <glyph glyph-name="uni0925" unicode="&#x925;" horiz-adv-x="430" 
d="M450 622l0.000976562 -59h-75v-563h-69v87c-6.66699 -6 -17.334 -9 -32.001 -9h-149c-52.667 0 -79 26.333 -79 79v195h95c12.667 0 21 2 25 6s6 12.333 6 25v154c0 12.667 -2 21 -6 25s-12.333 6 -25 6h-5c-13.333 0 -21.833 -2 -25.5 -6s-5.5 -12.333 -5.5 -25v-45h-52
v56c0 52.667 25.333 79 76 79h33c52.667 0 79 -26.333 79 -79v-176c0 -52.667 -26.333 -79 -79 -79h-47v-125c0 -13.333 1.83301 -21.833 5.5 -25.5s12.167 -5.5 25.5 -5.5h126c13.333 0 22.333 2.5 27 7.5s7 13.833 7 26.5v451h144z" />
    <glyph glyph-name="uni0926" unicode="&#x926;" horiz-adv-x="347" 
d="M292 426h-136.999c-12.667 0 -21 -2 -25 -6s-6 -12.333 -6 -25v-227c0 -13.333 2 -21.833 6 -25.5s12.333 -5.5 25 -5.5h41c13.333 0 22.333 2.5 27 7.5s7 13.833 7 26.5v95h69v-266h-69v87c-6.66699 -6 -17.334 -9 -32.001 -9h-64c-52.667 0 -79 26.333 -79 79v249
c0 52.667 26.333 79 79 79h89v78h-243v59h387v-59h-75v-137z" />
    <glyph glyph-name="uni0927" unicode="&#x927;" horiz-adv-x="444" 
d="M464 622l0.000976562 -59h-75v-563h-69v87c-6.66699 -6 -17.334 -9 -32.001 -9h-137c-52.667 0 -79 26.333 -79 79v138c0 28.667 12.333 44 37 46v2c-24.667 2 -37 17.667 -37 47v158c0 52.667 26.333 79 79 79h35c52.667 0 79 -26.333 79 -79v-56h-52v45
c0 12.667 -1.83301 21 -5.5 25s-12.167 6 -25.5 6h-10c-13.333 0 -21.833 -2 -25.5 -6s-5.5 -12.333 -5.5 -25v-133c0 -13.333 1.83301 -21.833 5.5 -25.5s12.167 -5.5 25.5 -5.5h68v-59h-68c-13.333 0 -21.833 -2 -25.5 -6s-5.5 -12.333 -5.5 -25v-115
c0 -13.333 1.83301 -21.833 5.5 -25.5s12.167 -5.5 25.5 -5.5h114c13.333 0 22.333 2.5 27 7.5s7 13.833 7 26.5v451h144z" />
    <glyph glyph-name="uni0928" unicode="&#x928;" horiz-adv-x="476" 
d="M496 622v-59h-75v-563h-69v426h-88v-269c0 -52.667 -26.333 -79 -79 -79h-71c-52.667 0 -79 26.333 -79 79v249c0 52.667 26.333 79 79 79h238v78h-372v59h516zM195 168v258h-60c-12.667 0 -21 -2 -25 -6s-6 -12.333 -6 -25v-227c0 -13.333 2 -21.833 6 -25.5
s12.333 -5.5 25 -5.5h29c13.333 0 21.833 1.83301 25.5 5.5s5.5 12.167 5.5 25.5z" />
    <glyph glyph-name="uni0928093C" unicode="&#x929;" horiz-adv-x="476" 
d="M496 622v-59h-75v-563h-69v426h-88v-269c0 -52.667 -26.333 -79 -79 -79h-71c-52.667 0 -79 26.333 -79 79v249c0 52.667 26.333 79 79 79h238v78h-372v59h516zM195 168v258h-60c-12.667 0 -21 -2 -25 -6s-6 -12.333 -6 -25v-227c0 -13.333 2 -21.833 6 -25.5
s12.333 -5.5 25 -5.5h29c13.333 0 21.833 1.83301 25.5 5.5s5.5 12.167 5.5 25.5zM195 -97v86h73v-86h-73z" />
    <glyph glyph-name="uni092A" unicode="&#x92a;" horiz-adv-x="353" 
d="M373 622v-59h-75v-563h-69v87c-7.33301 -6 -18 -9 -32 -9h-63c-52.667 0 -79 26.333 -79 79v406h-75v59h393zM229 171v392h-105v-395c0 -13.333 2 -21.833 6 -25.5s12.333 -5.5 25 -5.5h40c12.667 0 21.5 2.5 26.5 7.5s7.5 13.833 7.5 26.5z" />
    <glyph glyph-name="uni092B" unicode="&#x92b;" horiz-adv-x="510" 
d="M530 563h-238.999v-87c7.33301 6 18 9 32 9h63c52.667 0 79 -26.333 79 -79v-249c0 -52.667 -26.333 -79 -79 -79h-55v59h34c12.667 0 21 1.83301 25 5.5s6 12.167 6 25.5v227c0 12.667 -2 21 -6 25s-12.333 6 -25 6h-40c-12.667 0 -21.5 -2.33301 -26.5 -7
s-7.5 -13.667 -7.5 -27v-392h-69v87c-6.66699 -6 -17.334 -9 -32.001 -9h-63c-52.667 0 -79 26.333 -79 79v406h-68v59h550v-59zM222.001 171v392h-105v-395c0 -13.333 1.83301 -21.833 5.5 -25.5s12.167 -5.5 25.5 -5.5h40c13.333 0 22.333 2.5 27 7.5s7 13.833 7 26.5z
" />
    <glyph glyph-name="uni092C" unicode="&#x92c;" horiz-adv-x="384" 
d="M404 622v-59h-75v-563h-69v87c-7.33301 -6 -18 -9 -32 -9h-99c-52.667 0 -79 26.333 -79 79v249c0 52.667 26.333 79 79 79h91v-59h-76c69.333 -127.333 110 -206 122 -236c-4 30.667 -6 75.667 -6 135v238h-280v59h424zM150 137h76c10 0 17.333 1.33301 22 4
c-68.667 129.333 -111.667 214 -129 254v-227c0 -13.333 1.83301 -21.833 5.5 -25.5s12.167 -5.5 25.5 -5.5z" />
    <glyph glyph-name="uni092D" unicode="&#x92d;" horiz-adv-x="529" 
d="M549 622v-59h-75v-563h-69v342h-113v-185c0 -52.667 -26.333 -79 -79 -79h-89c-52.667 0 -79 26.333 -79 79v165c0 52.667 26.333 79 79 79h99v131c0 13.333 -1.83301 21.833 -5.5 25.5s-12.167 5.5 -25.5 5.5h-39c-12.667 0 -21 -1.83301 -25 -5.5s-6 -12.167 -6 -25.5
v-56h-69v67c0 52.667 26.333 79 79 79h81c52.667 0 79 -26.333 79 -79v-142h113v221h144zM223 168v174h-78c-12.667 0 -21 -2 -25 -6s-6 -12.333 -6 -25v-143c0 -13.333 2 -21.833 6 -25.5s12.333 -5.5 25 -5.5h47c13.333 0 21.833 1.83301 25.5 5.5s5.5 12.167 5.5 25.5z
" />
    <glyph glyph-name="uni092E" unicode="&#x92e;" horiz-adv-x="519" 
d="M539 622v-59h-75v-563h-69v373h-113v-186c0 -52.667 -26.333 -79 -79 -79h-89c-52.667 0 -79 26.333 -79 79v166c0 52.667 26.333 79 79 79h99v131h-233v59h559zM213 198v175h-78c-12.667 0 -21 -1.83301 -25 -5.5s-6 -12.167 -6 -25.5v-144c0 -13.333 2 -21.833 6 -25.5
s12.333 -5.5 25 -5.5h47c13.333 0 21.833 1.83301 25.5 5.5s5.5 12.167 5.5 25.5zM395 432v131h-113v-131h113z" />
    <glyph glyph-name="uni092F" unicode="&#x92f;" horiz-adv-x="428" 
d="M448 622l0.000976562 -59h-75v-563h-69v87c-6.66699 -6 -17.334 -9 -32.001 -9h-158c-52.667 0 -79 26.333 -79 79v217h80c12.667 0 21 2 25 6s6 12.333 6 25v126c0 14.667 -2.33301 23.667 -7 27s-17.667 5 -39 5h-140v59h488zM304.001 171v392h-97
c5.33301 -5.33301 8 -14.333 8 -27v-142c0 -52.667 -26.333 -79 -79 -79h-32v-147c0 -13.333 2 -21.833 6 -25.5s12.333 -5.5 25 -5.5h135c13.333 0 22.333 2.5 27 7.5s7 13.833 7 26.5z" />
    <glyph glyph-name="uni0930" unicode="&#x930;" horiz-adv-x="331" 
d="M351 622v-59h-68c5.33301 -5.33301 8 -14 8 -26v-173c0 -52.667 -26.333 -79 -79 -79h-98v-195c0 -13.333 2 -21.833 6 -25.5s12.333 -5.5 25 -5.5h44c12.667 0 21 1.83301 25 5.5s6 12.167 6 25.5v121h69v-132c0 -52.667 -26.333 -79 -79 -79h-86
c-52.667 -0 -79 26.333 -79 79v367h69v-102h77c12.667 0 21 2 25 6s6 12.333 6 25v157c0 13.333 -2 21.833 -6 25.5s-12.333 5.5 -25 5.5h-211v59h371z" />
    <glyph glyph-name="uni0930093C" unicode="&#x931;" horiz-adv-x="331" 
d="M351 622v-59h-68c5.33301 -5.33301 8 -14 8 -26v-173c0 -52.667 -26.333 -79 -79 -79h-98v-195c0 -13.333 2 -21.833 6 -25.5s12.333 -5.5 25 -5.5h44c12.667 0 21 1.83301 25 5.5s6 12.167 6 25.5v121h69v-132c0 -52.667 -26.333 -79 -79 -79h-86
c-52.667 -0 -79 26.333 -79 79v367h69v-102h77c12.667 0 21 2 25 6s6 12.333 6 25v157c0 13.333 -2 21.833 -6 25.5s-12.333 5.5 -25 5.5h-211v59h371zM122 -157v86h73v-86h-73z" />
    <glyph glyph-name="uni0932" unicode="&#x932;" horiz-adv-x="488" 
d="M508 622v-59h-68v-563h-69v426h-63c-13.333 0 -21.833 -2 -25.5 -6s-5.5 -12.333 -5.5 -25v-206h-69v206c0 12.667 -2 21 -6 25s-12.333 6 -25 6h-32c-12.667 0 -21 -2 -25 -6s-6 -12.333 -6 -25v-302c0 -12.667 2 -21 6 -25s12.333 -6 25 -6h61v-62h-82
c-52.667 -0 -79 26.333 -79 79v327c0 52.667 26.333 79 79 79h72c29.333 0 45 -12.333 47 -37h2c2 24.667 17.333 37 46 37h80v78h-391v59h528z" />
    <glyph glyph-name="uni0933" unicode="&#x933;" horiz-adv-x="523" 
d="M563 563h-171v-78h17c52.667 0 79 -26.333 79 -79v-249c0 -52.667 -26.333 -79 -79 -79h-99c-28.667 0 -44 12.333 -46 37h-2c-2 -24.667 -17.667 -37 -47 -37h-101c-52.667 0 -79 26.333 -79 79v249c0 52.667 26.333 79 79 79h101c29.333 0 45 -12.333 47 -37h2
c2 24.667 17.333 37 46 37h13v78h-363v59h603v-59zM227 168v227c0 12.667 -1.83301 21 -5.5 25s-12.167 6 -25.5 6h-61c-12.667 0 -21 -2 -25 -6s-6 -12.333 -6 -25v-227c0 -13.333 2 -21.833 6 -25.5s12.333 -5.5 25 -5.5h61c13.333 0 21.833 1.83301 25.5 5.5
s5.5 12.167 5.5 25.5zM419 168v227c0 12.667 -1.83301 21 -5.5 25s-12.167 6 -25.5 6h-61c-12.667 0 -21 -2 -25 -6s-6 -12.333 -6 -25v-227c0 -13.333 2 -21.833 6 -25.5s12.333 -5.5 25 -5.5h61c13.333 0 21.833 1.83301 25.5 5.5s5.5 12.167 5.5 25.5z" />
    <glyph glyph-name="uni0933093C" unicode="&#x934;" horiz-adv-x="523" 
d="M563 563h-171v-78h17c52.667 0 79 -26.333 79 -79v-249c0 -52.667 -26.333 -79 -79 -79h-99c-28.667 0 -44 12.333 -46 37h-2c-2 -24.667 -17.667 -37 -47 -37h-101c-52.667 0 -79 26.333 -79 79v249c0 52.667 26.333 79 79 79h101c29.333 0 45 -12.333 47 -37h2
c2 24.667 17.333 37 46 37h13v78h-363v59h603v-59zM227 168v227c0 12.667 -1.83301 21 -5.5 25s-12.167 6 -25.5 6h-61c-12.667 0 -21 -2 -25 -6s-6 -12.333 -6 -25v-227c0 -13.333 2 -21.833 6 -25.5s12.333 -5.5 25 -5.5h61c13.333 0 21.833 1.83301 25.5 5.5
s5.5 12.167 5.5 25.5zM419 168v227c0 12.667 -1.83301 21 -5.5 25s-12.167 6 -25.5 6h-61c-12.667 0 -21 -2 -25 -6s-6 -12.333 -6 -25v-227c0 -13.333 2 -21.833 6 -25.5s12.333 -5.5 25 -5.5h61c13.333 0 21.833 1.83301 25.5 5.5s5.5 12.167 5.5 25.5zM75 -77v86h73v-86
h-73z" />
    <glyph glyph-name="uni0935" unicode="&#x935;" horiz-adv-x="346" 
d="M366 622l0.000976562 -59h-75v-563h-69v87c-6.66699 -6 -17.334 -9 -32.001 -9h-63c-52.667 0 -79 26.333 -79 79v249c0 52.667 26.333 79 79 79h55v-59h-34c-13.333 0 -21.833 -2 -25.5 -6s-5.5 -12.333 -5.5 -25v-227c0 -13.333 1.83301 -21.833 5.5 -25.5
s12.167 -5.5 25.5 -5.5h40c13.333 0 22.333 2.5 27 7.5s7 13.833 7 26.5v392h-242v59h386z" />
    <glyph glyph-name="uni0936" unicode="&#x936;" horiz-adv-x="496" 
d="M372 622h144v-59h-76v-563h-68v622zM126 623h86c52.667 0 79 -26.333 79 -79v-197c0 -52.667 -26.333 -79 -79 -79h-98v-178c0 -13.333 2 -21.833 6 -25.5s12.333 -5.5 25 -5.5h44c12.667 0 21 1.83301 25 5.5s6 12.167 6 25.5v104h69v-115
c0 -52.667 -26.333 -79 -79 -79h-86c-52.667 -0 -79 26.333 -79 79v295h69v-47h77c12.667 0 21 1.83301 25 5.5s6 12.167 6 25.5v175c0 12.667 -2 21 -6 25s-12.333 6 -25 6h-44c-12.667 0 -21 -2 -25 -6s-6 -12.333 -6 -25v-84h-69v95c0 52.667 26.333 79 79 79z" />
    <glyph glyph-name="uni0937" unicode="&#x937;" horiz-adv-x="392" 
d="M412 622l0.000976562 -59h-75v-563h-69v87c-6.66699 -6 -17.334 -9 -32.001 -9h-102c-52.667 0 -79 26.333 -79 79v406h-75v59h432zM155.001 137l79.001 -0.000976562c17.333 0 27.666 5 30.999 15l-101 213l-49 109c6 -33.333 9 -73.666 9 -120.999v-185
c0 -13.333 2 -21.833 6 -25.5s12.333 -5.5 25 -5.5zM268.002 365.999v197h-148l104 -217l52 -121c-5.33301 38.667 -8 85.667 -8 141z" />
    <glyph glyph-name="uni0938" unicode="&#x938;" horiz-adv-x="508" 
d="M528 622v-59h-75v-563h-68v285h-271v-195c0 -13.333 2 -21.833 6 -25.5s12.333 -5.5 25 -5.5h44c12.667 0 21 1.83301 25 5.5s6 12.167 6 25.5v121h69v-132c0 -52.667 -26.333 -79 -79 -79h-86c-52.667 -0 -79 26.333 -79 79v367h69v-102h77c12.667 0 21 2 25 6
s6 12.333 6 25v157c0 13.333 -2 21.833 -6 25.5s-12.333 5.5 -25 5.5h-211v59h548zM385 344v219h-102c5.33301 -5.33301 8 -14 8 -26v-133c0 -30.667 -4 -50.667 -12 -60h106z" />
    <glyph glyph-name="uni0939" unicode="&#x939;" horiz-adv-x="363" 
d="M308 426h-153c-12.667 0 -21 -2 -25 -6s-6 -12.333 -6 -25v-49c0 -13.333 2 -21.833 6 -25.5s12.333 -5.5 25 -5.5h84c52.667 0 79 -26.333 79 -79v-62h-69v51c0 12.667 -1.83301 21 -5.5 25s-12.167 6 -25.5 6h-63c-12.667 0 -21 -2 -25 -6s-6 -12.333 -6 -25v-135
c0 -13.333 2 -21.833 6 -25.5s12.333 -5.5 25 -5.5h163v-59h-184c-52.667 -0 -79 26.333 -79 79v158c0 28.667 12.333 44 37 46v2c-24.667 2 -37 17.667 -37 47v74c0 52.667 26.333 79 79 79h105v78h-259v59h413v-59h-85v-137z" />
    <glyph glyph-name="uni093C" unicode="&#x93c;" horiz-adv-x="0" 
d="M-125 -71h73v-86h-73v86z" />
    <glyph glyph-name="uni093D" unicode="&#x93d;" horiz-adv-x="343" 
d="M280 563h-118c-13.333 0 -21.833 -1.83301 -25.5 -5.5s-5.5 -12.167 -5.5 -25.5v-133c0 -12.667 1.83301 -21 5.5 -25s12.167 -6 25.5 -6h52c52.667 0 79 -26.333 79 -79v-210c0 -52.667 -26.333 -79 -79 -79h-85c-52.667 -0 -79 26.333 -79 79v86h69v-75
c0 -13.333 1.83301 -21.833 5.5 -25.5s12.167 -5.5 25.5 -5.5h43c12.667 0 21 1.83301 25 5.5s6 12.167 6 25.5v188c0 13.333 -2 21.833 -6 25.5s-12.333 5.5 -25 5.5h-52c-52.667 0 -79 26.333 -79 79v155c0 52.667 26.333 79 79 79h139v-59z" />
    <glyph glyph-name="uni093E" unicode="&#x93e;" horiz-adv-x="180" 
d="M199 622v-59h-75v-563h-68v563h-75v59h218z" />
    <glyph glyph-name="uni093F" unicode="&#x93f;" 
d="M134 813h253c52.667 0 79 -26.333 79 -79v-67h-69v56c0 13.333 -1.66699 21.833 -5 25.5s-12 5.5 -26 5.5h-211c-12.667 0 -21 -2 -25 -6s-6 -12.333 -6 -25v-101h75v-59h-75v-563h-69v563h-75v59h75v112c0 52.667 26.333 79 79 79z" />
    <glyph glyph-name="uni0940" unicode="&#x940;" 
d="M199 622v-59h-75v-563h-69v563h-75v59h75v101c0 12.667 -1.83301 21 -5.5 25s-12.167 6 -25.5 6h-48c-14 0 -22.667 -1.83301 -26 -5.5s-5 -12.167 -5 -25.5v-56h-69v67c0 52.667 26.333 79 79 79h90c52.667 0 79 -26.333 79 -79v-112h75z" />
    <glyph glyph-name="uni0941" unicode="&#x941;" horiz-adv-x="0" 
d="M-36 1c52.667 0 79.002 -26.333 79.002 -79v-58c0 -52.667 -26.333 -79 -79 -79h-100c-36.667 0 -63.334 4 -80.001 12s-33.334 26.667 -50.001 56l-37 64h82l26 -43c12 -20 30.667 -30 56 -30h82c12.667 0 21 2 25 6s6 12.333 6 25v36c0 12.667 -2 21 -6 25
s-12.333 6 -25 6h-67v59h88z" />
    <glyph glyph-name="uni0942" unicode="&#x942;" horiz-adv-x="0" 
d="M-59 0c32.667 0 56.501 -4.16699 71.501 -12.5s30.833 -25.833 47.5 -52.5l93 -149h-83l-75 120c-14.667 23.333 -31.334 35 -50.001 35h-53c-13.333 0 -21.833 -1.83301 -25.5 -5.5s-5.5 -12.167 -5.5 -25.5v-36c0 -13.333 1.83301 -21.833 5.5 -25.5
s12.167 -5.5 25.5 -5.5h55v-59h-76c-52.667 0 -79 26.333 -79 79v58c0 52.667 26.333 79 79 79h70z" />
    <glyph glyph-name="uni0943" unicode="&#x943;" horiz-adv-x="0" 
d="M-55 0v-59h-48c-12.667 0 -21 -1.83301 -25 -5.5s-6 -12.167 -6 -25.5v-36c0 -13.333 2 -21.833 6 -25.5s12.333 -5.5 25 -5.5h89v-59h-110c-52.667 0 -79 26.333 -79 79v58c0 52.667 26.333 79 79 79h69z" />
    <glyph glyph-name="uni0944" unicode="&#x944;" horiz-adv-x="0" 
d="M-203 -79c0 52.667 26.333 79 79 79h69v-59h-48c-12.667 0 -21 -1.83301 -25 -5.5s-6 -12.167 -6 -25.5v-36c0 -13.333 2 -21.833 6 -25.5s12.333 -5.5 25 -5.5h48v-59h-48c-12.667 0 -21 -2 -25 -6s-6 -12.333 -6 -25v-36c0 -12.667 2 -21 6 -25s12.333 -6 25 -6h89v-59
h-110c-52.667 0 -79 26.333 -79 79v59c0 28.667 12.333 44 37 46v2c-24.667 2 -37 17.667 -37 47v61z" />
    <glyph glyph-name="uni0945" unicode="&#x945;" horiz-adv-x="0" 
d="M-218 791h64v-40c0 -12.667 2 -21 6 -25s12.333 -6 25 -6h68c12.667 0 21 2 25 6s6 12.333 6 25v40h64v-46c0 -52.667 -26.333 -79 -79 -79h-100c-52.667 0 -79 26.333 -79 79v46z" />
    <glyph glyph-name="uni0946" unicode="&#x946;" horiz-adv-x="0" 
d="M-303 813h69v-35c0 -13.333 2 -21.833 6 -25.5s12.333 -5.5 25 -5.5h69c52.667 0 79 -26.333 79 -79v-84h-69v73c0 12.667 -2 21 -6 25s-12.333 6 -25 6h-69c-52.667 0 -79 26.333 -79 79v46z" />
    <glyph glyph-name="uni0947" unicode="&#x947;" horiz-adv-x="0" 
d="M-202 813l143 -204h-69c-22 20 -51.667 56 -89 108l-68 96h83z" />
    <glyph glyph-name="uni0948" unicode="&#x948;" horiz-adv-x="0" 
d="M-346 813h90.999l42 -46c50 -54.667 87.667 -103 113 -145h4c-13.333 27.333 -25.666 54.333 -36.999 81l-46 110h74l47 -201h-66c-18 11.333 -45.333 34.333 -82 69z" />
    <glyph glyph-name="uni0949" unicode="&#x949;" horiz-adv-x="180" 
d="M155 791h64v-46c0 -52.667 -26.333 -79 -79 -79h-100c-52.667 0 -79 26.333 -79 79v46h64v-40c0 -12.667 1.83301 -21 5.5 -25s12.167 -6 25.5 -6h68c13.333 0 21.833 2 25.5 6s5.5 12.333 5.5 25v40zM-19 563v59h218v-59h-75v-563h-68v563h-75z" />
    <glyph glyph-name="uni094A" unicode="&#x94a;" horiz-adv-x="180" 
d="M199 622v-59h-75v-563h-68v563h-75v59h74v35c0 12.667 -1.83301 21 -5.5 25s-12.167 6 -25.5 6h-69c-52.667 0 -79 26.333 -79 79v46h69v-35c0 -13.333 1.83301 -21.833 5.5 -25.5s12.167 -5.5 25.5 -5.5h69c52.667 0 79 -26.333 79 -79v-46h75z" />
    <glyph glyph-name="uni094B" unicode="&#x94b;" horiz-adv-x="180" 
d="M199 622v-59h-75v-563h-68v563h-75v59h60c-22.667 24 -48 55.667 -76 95l-68 96h83l134 -191h85z" />
    <glyph glyph-name="uni094C" unicode="&#x94c;" horiz-adv-x="180" 
d="M199 622l0.000976562 -59.001h-75v-563h-68v563h-75v59h62c-18.667 14.667 -41.334 34.334 -68.001 59.001l-140 132h91l42 -46c50 -54.667 87.667 -103 113 -145h4c-14 27.333 -26.333 54.333 -37 81l-46 110h74l45 -191h78z" />
    <glyph glyph-name="uni094D" unicode="&#x94d;" horiz-adv-x="0" 
d="M-64 -61l100 -130h-76l-100 130h76z" />
    <glyph glyph-name="uni0950" unicode="&#x950;" horiz-adv-x="600" 
d="M474 341c52.667 0 79 -26.332 79 -78.999v-183c0 -52.667 -26.333 -79 -79 -79h-63c-52.667 0 -79 26.333 -79 79v96h69v-85c0 -13.333 1.83301 -21.833 5.5 -25.5s12.167 -5.5 25.5 -5.5h21c12.667 0 21 1.83301 25 5.5s6 12.167 6 25.5v161c0 12.667 -2 21 -6 25
s-12.333 6 -25 6h-197c10 -6.66699 15 -21.334 15 -44.001v-159c0 -52.667 -26.333 -79 -79 -79h-83c-52.667 -0 -79 26.333 -79 79v96h69v-85c0 -13.333 1.83301 -21.833 5.5 -25.5s12.167 -5.5 25.5 -5.5h41c12.667 0 21 1.83301 25 5.5s6 12.167 6 25.5v158
c0 13.333 -2.33301 22.333 -7 27s-13.667 7 -27 7h-68v59h68c13.333 0 22.333 2.5 27 7.5s7 13.833 7 26.5v157c0 13.333 -2 21.833 -6 25.5s-12.333 5.5 -25 5.5h-41c-13.333 0 -21.833 -1.83301 -25.5 -5.5s-5.5 -12.167 -5.5 -25.5v-85h-69v96c0 52.667 26.333 79 79 79
h83c52.667 0 79 -26.333 79 -79v-58h137c13.333 0 21.833 1.83301 25.5 5.5s5.5 12.167 5.5 25.5v40h64v-50c0 -53.333 -26.333 -80 -79 -80h-153v-41c0 -22 -5 -36.667 -15 -44h218zM383 622.001v-69h-68v69h68z" />
    <glyph glyph-name="uni0915093C" unicode="&#x958;" horiz-adv-x="507" 
d="M527 563h-239.001v-87c6.66699 6 17.334 9 32.001 9h63c52.667 0 79 -26.333 79 -79v-249c0 -52.667 -26.333 -79 -79 -79h-55v59h34c13.333 0 21.833 1.83301 25.5 5.5s5.5 12.167 5.5 25.5v227c0 12.667 -1.83301 21 -5.5 25s-12.167 6 -25.5 6h-40
c-13.333 0 -22.333 -2.33301 -27 -7s-7 -13.667 -7 -27v-392h-69v87c-7.33301 -6 -18 -9 -32 -9h-63c-52.667 0 -79 26.333 -79 79v249c0 52.667 26.333 79 79 79h55v-59h-34c-12.667 0 -21 -2 -25 -6s-6 -12.333 -6 -25v-227c0 -13.333 2 -21.833 6 -25.5
s12.333 -5.5 25 -5.5h40c12.667 0 21.5 2.5 26.5 7.5s7.5 13.833 7.5 26.5v392h-239v59h547v-59zM51.999 -56v86h73v-86h-73z" />
    <glyph glyph-name="uni0916093C" unicode="&#x959;" horiz-adv-x="584" 
d="M604 622v-59.001h-75v-563h-65v134c-6.66699 -10 -19 -15 -37 -15h-52c-52.667 0 -79 26.333 -79 79v194c0 52.667 26.333 79 79 79h59v-59h-42c-13.333 0 -21.833 -2 -25.5 -6s-5.5 -12.333 -5.5 -25v-172c0 -12.667 1.83301 -21 5.5 -25s12.167 -6 25.5 -6h31
c15.333 0 26 2.83301 32 8.5s9 15.834 9 30.501v346h-220c5.33301 -5.33301 8 -14 8 -26v-212c0 -52.667 -26.333 -79 -79 -79h-56v-153c0 -12.667 1.83301 -21 5.5 -25s12.167 -6 25.5 -6h213v-62h-234c-52.667 -0 -79 26.333 -79 79v392h69v-166h35
c13.333 0 21.833 1.83301 25.5 5.5s5.5 12.167 5.5 25.5v196c0 13.333 -1.83301 21.833 -5.5 25.5s-12.167 5.5 -25.5 5.5h-172v59h624zM126 -148.001v86h73v-86h-73z" />
    <glyph glyph-name="uni0917093C" unicode="&#x95a;" horiz-adv-x="512" 
d="M532 622v-59h-75v-563h-69v563h-104v-406c0 -52.667 -26.333 -79 -79 -79h-91c-52.667 0 -79 26.333 -79 79v190c0 52.667 26.333 79 79 79h101v137h-235v59h552zM135 137h49c13.333 0 21.833 1.83301 25.5 5.5s5.5 12.167 5.5 25.5v199h-80
c-12.667 0 -21 -1.83301 -25 -5.5s-6 -12.167 -6 -25.5v-168c0 -13.333 2 -21.833 6 -25.5s12.333 -5.5 25 -5.5zM119 -87v86h73v-86h-73z" />
    <glyph glyph-name="uni091C093C" unicode="&#x95b;" horiz-adv-x="490" 
d="M510 622v-59h-75v-563h-69v426h-87v-269c0 -52.667 -26.333 -79 -79 -79h-76c-52.667 0 -79 26.333 -79 79v328h69v-317c0 -13.333 2 -21.833 6 -25.5s12.333 -5.5 25 -5.5h34c12.667 0 21 1.83301 25 5.5s6 12.167 6 25.5v317h156v78h-386v59h530zM121 -86v86h73v-86
h-73z" />
    <glyph glyph-name="uni0921093C" unicode="&#x95c;" horiz-adv-x="351" 
d="M281 426h-121c-13.333 0 -21.833 -2 -25.5 -6s-5.5 -12.333 -5.5 -25v-70c0 -12.667 1.83301 -21 5.5 -25s12.167 -6 25.5 -6h52c52.667 0 79 -26.333 79 -79v-136c0 -52.667 -26.333 -79 -79 -79h-85c-52.667 -0 -79 26.333 -79 79v86h69v-75
c0 -13.333 1.83301 -21.833 5.5 -25.5s12.167 -5.5 25.5 -5.5h43c12.667 0 21 1.83301 25 5.5s6 12.167 6 25.5v114c0 13.333 -2 21.833 -6 25.5s-12.333 5.5 -25 5.5h-52c-52.667 0 -79 26.333 -79 79v92c0 52.667 26.333 79 79 79h73v78h-232v59h391v-59h-90v-137z
M129 -139v86h73v-86h-73z" />
    <glyph glyph-name="uni0922093C" unicode="&#x95d;" horiz-adv-x="377" 
d="M282 426h-127c-12.667 0 -21 -2 -25 -6s-6 -12.333 -6 -25v-305c0 -13.333 2 -21.833 6 -25.5s12.333 -5.5 25 -5.5h67c13.333 0 21.833 1.83301 25.5 5.5s5.5 12.167 5.5 25.5v103c0 12.667 -1.83301 21 -5.5 25s-12.167 6 -25.5 6h-41v59h62
c52.667 0 79 -26.333 79 -79v-125c0 -52.667 -26.333 -79 -79 -79h-109c-52.667 -0 -79 26.333 -79 79v327c0 52.667 26.333 79 79 79h79v78h-233v59h417v-59h-115v-137zM154 -139v86h73v-86h-73z" />
    <glyph glyph-name="uni092B093C" unicode="&#x95e;" horiz-adv-x="510" 
d="M530 563h-238.999v-87c7.33301 6 18 9 32 9h63c52.667 0 79 -26.333 79 -79v-249c0 -52.667 -26.333 -79 -79 -79h-55v59h34c12.667 0 21 1.83301 25 5.5s6 12.167 6 25.5v227c0 12.667 -2 21 -6 25s-12.333 6 -25 6h-40c-12.667 0 -21.5 -2.33301 -26.5 -7
s-7.5 -13.667 -7.5 -27v-392h-69v87c-6.66699 -6 -17.334 -9 -32.001 -9h-63c-52.667 0 -79 26.333 -79 79v406h-68v59h550v-59zM222.001 171v392h-105v-395c0 -13.333 1.83301 -21.833 5.5 -25.5s12.167 -5.5 25.5 -5.5h40c13.333 0 22.333 2.5 27 7.5s7 13.833 7 26.5z
M97.001 -85v86h73v-86h-73z" />
    <glyph glyph-name="uni092F093C" unicode="&#x95f;" horiz-adv-x="428" 
d="M448 622l0.000976562 -59h-75v-563h-69v87c-6.66699 -6 -17.334 -9 -32.001 -9h-158c-52.667 0 -79 26.333 -79 79v217h80c12.667 0 21 2 25 6s6 12.333 6 25v126c0 14.667 -2.33301 23.667 -7 27s-17.667 5 -39 5h-140v59h488zM304.001 171v392h-97
c5.33301 -5.33301 8 -14.333 8 -27v-142c0 -52.667 -26.333 -79 -79 -79h-32v-147c0 -13.333 2 -21.833 6 -25.5s12.333 -5.5 25 -5.5h135c13.333 0 22.333 2.5 27 7.5s7 13.833 7 26.5zM158.001 -79v86h73v-86h-73z" />
    <glyph glyph-name="uni0960" unicode="&#x960;" horiz-adv-x="618" 
d="M317 563l0.000976562 -299.997h80c-8 9.33301 -12 29.333 -12 60v84c0 52 26.333 78 79 78h45c52.667 0 79 -26 79 -78v-126c0 -52 -26.333 -78 -79 -78h-28c-10.667 -0.666992 -17.834 -2.83398 -21.501 -6.50098s-5.5 -11.834 -5.5 -24.501v-36
c0 -13.333 2 -21.833 6 -25.5s12.333 -5.5 25 -5.5h43v-59h-43c-12.667 0 -21 -2 -25 -6s-6 -12.333 -6 -25v-36c0 -12.667 2 -21 6 -25s12.333 -6 25 -6h84v-59h-105c-52.667 0 -79 26.333 -79 79v59c0 28.667 12.333 44 37 46v2c-24.667 2 -37 17.667 -37 47v50
c0 15.333 4.66699 25.666 14 30.999h-82v-203h-68v203h-23l-145 -203h-77l175 245l-61 123c-10 20.667 -20.167 35 -30.5 43s-25.5 12 -45.5 12h-37v62h37c36 0 61.833 -4.5 77.5 -13.5s30.5 -27.167 44.5 -54.5l77 -154h8v300h-269v59h658v-59h-321zM454.001 394.003v-99
c0 -12.667 1.66699 -21.167 5 -25.5s11.333 -6.5 24 -6.5h8c12.667 0 20.667 2.16699 24 6.5s5 12.833 5 25.5v99c0 12.667 -1.66699 21.167 -5 25.5s-11.333 6.5 -24 6.5h-8c-12.667 0 -20.667 -2.16699 -24 -6.5s-5 -12.833 -5 -25.5z" />
    <glyph glyph-name="uni0961" unicode="&#x961;" horiz-adv-x="488" 
d="M440 191h-48c-13.333 0 -21.833 -1.83301 -25.5 -5.5s-5.5 -12.167 -5.5 -25.5v-36c0 -13.333 1.83301 -21.833 5.5 -25.5s12.167 -5.5 25.5 -5.5h48v-59h-48c-13.333 0 -21.833 -2 -25.5 -6s-5.5 -12.333 -5.5 -25v-36c0 -12.667 1.83301 -21 5.5 -25s12.167 -6 25.5 -6
h89v-59h-110c-52.667 0 -79 26.333 -79 79v59c0 28.667 12.333 44 37 46v2c-24.667 2 -37 17.667 -37 47v61c0 52.667 26.333 79 79 79v176h-63c-13.333 0 -21.833 -2 -25.5 -6s-5.5 -12.333 -5.5 -25v-137h-69v137c0 12.667 -2 21 -6 25s-12.333 6 -25 6h-32
c-12.667 0 -21 -2 -25 -6s-6 -12.333 -6 -25v-302c0 -12.667 2 -21 6 -25s12.333 -6 25 -6h61v-62h-82c-52.667 -0 -79 26.333 -79 79v327c0 52.667 26.333 79 79 79h72c29.333 0 45 -12.333 47 -37h2c2 24.667 17.333 37 46 37h80v78h-391v59h528v-59h-68v-372z" />
    <glyph glyph-name="uni0964" unicode="&#x964;" horiz-adv-x="324" 
d="M194 653v-684h-64v684h64z" />
    <glyph glyph-name="uni0965" unicode="&#x965;" horiz-adv-x="489" 
d="M359 653v-684h-64v684h64zM194 653v-684h-64v684h64z" />
    <glyph glyph-name="uni0966" unicode="&#x966;" horiz-adv-x="361" 
d="M242 90v442c0 13.333 -2 21.833 -6 25.5s-12.333 5.5 -25 5.5h-61c-13.333 0 -21.833 -1.83301 -25.5 -5.5s-5.5 -12.167 -5.5 -25.5v-442c0 -13.333 1.83301 -21.833 5.5 -25.5s12.167 -5.5 25.5 -5.5h61c12.667 0 21 1.83301 25 5.5s6 12.167 6 25.5zM311 543v-464
c0 -52.667 -26.333 -79 -79 -79h-103c-52.667 -0 -79 26.333 -79 79v464c0 52.667 26.333 79 79 79h103c52.667 0 79 -26.333 79 -79z" />
    <glyph glyph-name="uni0967" unicode="&#x967;" horiz-adv-x="211" 
d="M156 622v-622h-68v563h-68v59h136z" />
    <glyph glyph-name="uni0968" unicode="&#x968;" horiz-adv-x="290" 
d="M93 532v-110h-68v121c0 52.667 26.333 79 79 79h77c52.667 0 79 -26.333 79 -79v-55c0 -46 -8.66699 -89.333 -26 -130l-137 -299h168v-59h-239v58l142 311c15.333 36 23 77 23 123v40c0 13.333 -1.83301 21.833 -5.5 25.5s-12.167 5.5 -25.5 5.5h-36
c-13.333 0 -21.833 -1.83301 -25.5 -5.5s-5.5 -12.167 -5.5 -25.5z" />
    <glyph glyph-name="uni0969" unicode="&#x969;" horiz-adv-x="322" 
d="M98 532v-102h-68v113c0 52.667 26.333 79 79 79h84c52.667 0 79 -26.333 79 -79v-179c0 -30 -12.333 -46 -37 -48c24.667 -4 37 -19.667 37 -47v-190c0 -52.667 -26.333 -79 -79 -79h-84c-52.667 -0 -79 26.333 -79 79v112h68v-101c0 -13.333 2 -21.833 6 -25.5
s12.333 -5.5 25 -5.5h44c12.667 0 21 1.83301 25 5.5s6 12.167 6 25.5v164c0 13.333 -2 21.833 -6 25.5s-12.333 5.5 -25 5.5h-73v60h73c12.667 0 21 1.83301 25 5.5s6 12.167 6 25.5v156c0 13.333 -2 21.833 -6 25.5s-12.333 5.5 -25 5.5h-44
c-12.667 0 -21 -1.83301 -25 -5.5s-6 -12.167 -6 -25.5z" />
    <glyph glyph-name="uni096A" unicode="&#x96a;" horiz-adv-x="325" 
d="M325 186v-59h-53v-127h-66v127h-201v53l164 442h67l-161 -436h131v118h66v-118h53z" />
    <glyph glyph-name="uni096B" unicode="&#x96b;" horiz-adv-x="321" 
d="M284 563h-175v-180h96c52.667 0 79 -26.333 79 -79v-225c0 -52.667 -26.333 -79 -79 -79h-86c-52.667 -0 -79 26.333 -79 79v113h69v-102c0 -13.333 1.83301 -21.833 5.5 -25.5s12.167 -5.5 25.5 -5.5h44c13.333 0 21.833 1.83301 25.5 5.5s5.5 12.167 5.5 25.5v203
c0 12.667 -1.83301 21 -5.5 25s-12.167 6 -25.5 6h-144v298h244v-59z" />
    <glyph glyph-name="uni096C" unicode="&#x96c;" horiz-adv-x="352" 
d="M119 353h109c52.667 0 79 -26.333 79 -79v-195c0 -52.667 -26.333 -79 -79 -79h-99c-52.667 -0 -79 26.333 -79 79v464c0 52.667 26.333 79 79 79h98c52.667 0 79 -26.333 79 -79v-117h-68v106c0 13.333 -2 21.833 -6 25.5s-12.333 5.5 -25 5.5h-57
c-13.333 0 -21.833 -1.83301 -25.5 -5.5s-5.5 -12.167 -5.5 -25.5v-179zM238 90v173c0 12.667 -2 21 -6 25s-12.333 6 -25 6h-88v-204c0 -13.333 1.83301 -21.833 5.5 -25.5s12.167 -5.5 25.5 -5.5h57c12.667 0 21 1.83301 25 5.5s6 12.167 6 25.5z" />
    <glyph glyph-name="uni096D" unicode="&#x96d;" horiz-adv-x="256" 
d="M251 622v-46l-161 -576h-68l155 563h-172v59h246z" />
    <glyph glyph-name="uni096E" unicode="&#x96e;" horiz-adv-x="360" 
d="M310 543v-183c0 -30 -12.333 -46 -37 -48c24.667 -4 37 -19.667 37 -47v-186c0 -52.667 -26.333 -79 -79 -79h-102c-52.667 -0 -79 26.333 -79 79v186c0 27.333 12.333 43 37 47c-24.667 2 -37 18 -37 48v183c0 52.667 26.333 79 79 79h102c52.667 0 79 -26.333 79 -79z
M242 90v162c0 13.333 -2 21.833 -6 25.5s-12.333 5.5 -25 5.5h-62c-12.667 0 -21 -1.83301 -25 -5.5s-6 -12.167 -6 -25.5v-162c0 -13.333 2 -21.833 6 -25.5s12.333 -5.5 25 -5.5h62c12.667 0 21 1.83301 25 5.5s6 12.167 6 25.5zM242 374v158c0 13.333 -2 21.833 -6 25.5
s-12.333 5.5 -25 5.5h-62c-12.667 0 -21 -1.83301 -25 -5.5s-6 -12.167 -6 -25.5v-158c0 -13.333 2 -21.833 6 -25.5s12.333 -5.5 25 -5.5h62c12.667 0 21 1.83301 25 5.5s6 12.167 6 25.5z" />
    <glyph glyph-name="uni096F" unicode="&#x96f;" horiz-adv-x="347" 
d="M119 622h99c52.667 0 79 -26.333 79 -79v-464c0 -52.667 -26.333 -79 -79 -79h-98c-52.667 -0 -79 26.333 -79 79v117h68v-106c0 -13.333 1.83301 -21.833 5.5 -25.5s12.167 -5.5 25.5 -5.5h57c12.667 0 21 1.83301 25 5.5s6 12.167 6 25.5v169h-109
c-52.667 0 -79 26.333 -79 79v205c0 52.667 26.333 79 79 79zM140 318h88v214c0 13.333 -2 21.833 -6 25.5s-12.333 5.5 -25 5.5h-57c-13.333 0 -21.833 -1.83301 -25.5 -5.5s-5.5 -12.167 -5.5 -25.5v-183c0 -12.667 1.83301 -21 5.5 -25s12.167 -6 25.5 -6z" />
    <glyph glyph-name="uni0970" unicode="&#x970;" horiz-adv-x="353" 
d="M123 305c0 -46 17.833 -69 53.5 -69s53.5 23 53.5 69s-17.833 69 -53.5 69s-53.5 -23 -53.5 -69zM60 305c0 39.333 10.5 70.166 31.5 92.499s49.167 33.5 84.5 33.5s63.666 -11.167 84.999 -33.5s32 -53.166 32 -92.499s-10.667 -70.166 -32 -92.499
s-49.666 -33.5 -84.999 -33.5s-63.5 11.167 -84.5 33.5s-31.5 53.166 -31.5 92.499z" />
    <glyph glyph-name="uni0972" unicode="&#x972;" horiz-adv-x="425" 
d="M480 791h64v-46c0 -52.667 -26.333 -79 -79 -79h-100c-52.667 0 -79 26.333 -79 79v46h64v-40c0 -12.667 2 -21 6 -25s12.333 -6 25 -6h68c12.667 0 21 2 25 6s6 12.333 6 25v40zM520 622v-59h-75v-563h-68v289h-106v-132c0 -52.667 -26.333 -79 -79 -79h-83
c-52.667 0 -79 26.333 -79 79v96h69v-85c0 -13.333 1.83301 -21.833 5.5 -25.5s12.167 -5.5 25.5 -5.5h41c12.667 0 21 1.83301 25 5.5s6 12.167 6 25.5v116c0 13.333 -2.33301 22.333 -7 27s-13.667 7 -27 7h-68v59h68c13.333 0 22.333 2.5 27 7.5s7 13.833 7 26.5v121
c0 13.333 -2 21.833 -6 25.5s-12.333 5.5 -25 5.5h-41c-13.333 0 -21.833 -1.83301 -25.5 -5.5s-5.5 -12.167 -5.5 -25.5v-85h-69v96c0 52.667 26.333 79 79 79h83c52.667 0 79 -26.333 79 -79v-147c0 -29.333 -12.333 -45 -37 -47v-2h143v275h143z" />
    <glyph glyph-name="uni200B" unicode="&#x200b;" horiz-adv-x="0" 
 />
    <glyph glyph-name="uni200C" unicode="&#x200c;" horiz-adv-x="0" 
d="M24 -230h-47v1041h47v-1041z" />
    <glyph glyph-name="uni200D" unicode="&#x200d;" horiz-adv-x="0" 
d="M24 -230h-47v865l-69 -73l-33 33l93 93l-95 95l33 33l95 -95l96 95l32 -32l-96 -96l96 -95l-33 -33l-72 75v-865z" />
    <glyph glyph-name="endash" unicode="&#x2013;" horiz-adv-x="370" 
d="M20 263v58h330v-58h-330z" />
    <glyph glyph-name="emdash" unicode="&#x2014;" horiz-adv-x="479" 
d="M0 263v58h479v-58h-479z" />
    <glyph glyph-name="quoteleft" unicode="&#x2018;" horiz-adv-x="142" 
d="M112 373h-82v58l55 191h27v-249z" />
    <glyph glyph-name="quoteright" unicode="&#x2019;" horiz-adv-x="142" 
d="M30 622h82v-58l-55 -191h-27v249z" />
    <glyph glyph-name="quotesinglbase" unicode="&#x201a;" horiz-adv-x="142" 
d="M30 112h82v-58l-55 -191h-27v249z" />
    <glyph glyph-name="quotedblleft" unicode="&#x201c;" horiz-adv-x="274" 
d="M112 373h-82v58l55 191h27v-249zM244 373h-82v58l55 191h27v-249z" />
    <glyph glyph-name="quotedblright" unicode="&#x201d;" horiz-adv-x="274" 
d="M162 622h82v-58l-55 -191h-27v249zM30 622h82v-58l-55 -191h-27v249z" />
    <glyph glyph-name="quotedblbase" unicode="&#x201e;" horiz-adv-x="274" 
d="M162 112h82v-58l-55 -191h-27v249zM30 112h82v-58l-55 -191h-27v249z" />
    <glyph glyph-name="dagger" unicode="&#x2020;" horiz-adv-x="338" 
d="M333 458v-59h-130v-509h-68v509h-130v59h130v164h68v-164h130z" />
    <glyph glyph-name="daggerdbl" unicode="&#x2021;" horiz-adv-x="358" 
d="M343 399h-130v-333h130v-59h-130v-164h-68v164h-130v59h130v333h-130v59h130v164h68v-164h130v-59z" />
    <glyph glyph-name="bullet" unicode="&#x2022;" horiz-adv-x="396" 
d="M71 321c0 35.333 12.5 65.333 37.5 90s54.833 37 89.5 37s64.5 -12.333 89.5 -37s37.5 -54.667 37.5 -90s-12.5 -65.333 -37.5 -90s-54.833 -37 -89.5 -37s-64.5 12.333 -89.5 37s-37.5 54.667 -37.5 90z" />
    <glyph glyph-name="ellipsis" unicode="&#x2026;" horiz-adv-x="502" 
d="M415 0v107h92v-107h-92zM235 0v107h92v-107h-92zM55 0v107h92v-107h-92z" />
    <glyph glyph-name="perthousand" unicode="&#x2030;" horiz-adv-x="820" 
d="M734 80v166c0 12.667 -1.66699 20.834 -5 24.501s-11 5.5 -23 5.5h-23c-12 0 -19.667 -1.83301 -23 -5.5s-5 -11.834 -5 -24.501v-166c0 -12.667 1.66699 -20.834 5 -24.501s11 -5.5 23 -5.5h23c12 0 19.667 1.83301 23 5.5s5 11.834 5 24.501zM790 255v-184
c0 -47.333 -22.333 -71 -67 -71h-57c-44.667 0 -67 23.667 -67 71v184c0 47.333 22.333 71 67 71h57c44.667 0 67 -23.667 67 -71zM392 622h61l-273 -622h-60zM487 80v166c0 12.667 -1.66699 20.834 -5 24.501s-11 5.5 -23 5.5h-23c-12 0 -19.667 -1.83301 -23 -5.5
s-5 -11.834 -5 -24.501v-166c0 -12.667 1.66699 -20.834 5 -24.501s11 -5.5 23 -5.5h23c12 0 19.667 1.83301 23 5.5s5 11.834 5 24.501zM165 376v166c0 12.667 -1.66699 20.834 -5 24.501s-11 5.5 -23 5.5h-23c-12 0 -19.667 -1.83301 -23 -5.5s-5 -11.834 -5 -24.501v-166
c0 -12.667 1.66699 -20.834 5 -24.501s11 -5.5 23 -5.5h23c12 0 19.667 1.83301 23 5.5s5 11.834 5 24.501zM543 255v-184c0 -47.333 -22.333 -71 -67 -71h-57c-44.667 0 -67 23.667 -67 71v184c0 47.333 22.333 71 67 71h57c44.667 0 67 -23.667 67 -71zM221 551v-184
c0 -47.333 -22.333 -71 -67 -71h-57c-44.667 0 -67 23.667 -67 71v184c0 47.333 22.333 71 67 71h57c44.667 0 67 -23.667 67 -71z" />
    <glyph glyph-name="guilsinglleft" unicode="&#x2039;" horiz-adv-x="287" 
d="M164 106l-121 156l121 156h77l-124 -157l124 -155h-77z" />
    <glyph glyph-name="guilsinglright" unicode="&#x203a;" horiz-adv-x="289" 
d="M241 262l-121 -156h-77l124 155l-124 157h77z" />
    <glyph glyph-name="fraction" unicode="&#x2044;" horiz-adv-x="384" 
d="M272 699h68l-264 -835h-68z" />
    <glyph glyph-name="Euro" unicode="&#x20ac;" horiz-adv-x="368" 
d="M328 438h-69v94c0 13.333 -1.83301 21.833 -5.5 25.5s-12.167 5.5 -25.5 5.5h-55c-12.667 0 -21 -1.83301 -25 -5.5s-6 -12.167 -6 -25.5v-134h95v-58h-95v-57h95v-59h-95v-135c0 -12.667 2 -21 6 -25s12.333 -6 25 -6h55c13.333 0 21.833 2 25.5 6s5.5 12.333 5.5 25v94
h69v-105c0 -52.667 -26.333 -79 -79 -79h-97c-52.667 0 -79 26.333 -79 79v146h-48v59h48v57h-48v58h48v145c0 52.667 26.333 79 79 79h97c52.667 0 79 -26.333 79 -79v-105z" />
    <glyph glyph-name="uni20B9" unicode="&#x20b9;" horiz-adv-x="343" 
d="M293 622v-59h-63c6.66699 -8.66699 10 -22 10 -40v-52h53v-59h-53v-72c0 -52.667 -26.333 -79 -79 -79h-50l150 -261h-74l-147 261v59h100c13.333 0 21.833 2 25.5 6s5.5 12.333 5.5 25v61h-131v59h131v61c0 13.333 -1.83301 21.833 -5.5 25.5s-12.167 5.5 -25.5 5.5
h-100v59h253z" />
    <glyph glyph-name="trademark" unicode="&#x2122;" horiz-adv-x="598" 
d="M568 622v-322h-63v221l-52 -163h-65l-54 164v-222h-63v322h87l62 -186l60 186h88zM233 622v-59h-80v-263h-68v263h-80v59h228z" />
    <glyph glyph-name="uni2126" unicode="&#x2126;" horiz-adv-x="370" 
d="M360 59v-59h-158v59h14c13.333 0 21.833 1.83301 25.5 5.5s5.5 12.167 5.5 25.5v442c0 13.333 -1.83301 21.833 -5.5 25.5s-12.167 5.5 -25.5 5.5h-62c-13.333 0 -21.833 -1.83301 -25.5 -5.5s-5.5 -12.167 -5.5 -25.5v-442c0 -13.333 1.83301 -21.833 5.5 -25.5
s12.167 -5.5 25.5 -5.5h14v-59h-158v59h66c-14 8 -21 24.667 -21 50v434c0 52.667 26.333 79 79 79h102c52.667 0 79 -26.333 79 -79v-434c0 -25.333 -7 -42 -21 -50h66z" />
    <glyph glyph-name="product" unicode="&#x220f;" horiz-adv-x="408" 
d="M70 622h283v-622h-68v563h-146v-484c0 -52.667 -26.333 -79 -79 -79h-50v64h29c12.667 0 21 2 25 6s6 12.333 6 25v527z" />
    <glyph glyph-name="minus" unicode="&#x2212;" horiz-adv-x="380" 
d="M25 281v60h330v-60h-330z" />
    <glyph glyph-name="uni2215" unicode="&#x2215;" horiz-adv-x="384" 
d="M272 699h68l-264 -835h-68z" />
    <glyph glyph-name="uni2219" unicode="&#x2219;" horiz-adv-x="142" 
d="M30 255v112h82v-112h-82z" />
    <glyph glyph-name="infinity" unicode="&#x221e;" horiz-adv-x="586" 
d="M412 484h45.9971c52 0 78 -25 78 -75v-121c0 -50.667 -26 -76 -78 -76h-39c-28 0 -48.5 3.33301 -61.5 10s-27.833 21.334 -44.5 44.001l-21 29c-20 -35.333 -38.667 -58 -56 -68s-43.666 -15 -78.999 -15h-30c-51.333 0 -77 25.333 -77 76v121c0 50 25.667 75 77 75h37
c26.667 0 45.834 -3.33301 57.501 -10s25.834 -21.334 42.501 -44.001l28 -38c31.333 46.667 52.333 73.667 63 81s29.667 11 57 11zM165.997 430h-19.998c-14 0 -22.833 -2.5 -26.5 -7.5s-5.5 -14.167 -5.5 -27.5v-94c0 -14 1.83301 -23.333 5.5 -28s12.5 -7 26.5 -7h31
c19.333 0 35.666 10 48.999 30l32 48l-39 54c-8.66699 12 -16.334 20.333 -23.001 25s-16.667 7 -30 7zM471.999 301v95c0 13.333 -1.83301 22.5 -5.5 27.5s-12.5 7.5 -26.5 7.5h-42c-8 0 -14.167 -1.83301 -18.5 -5.5s-10.166 -10.5 -17.499 -20.5l-38 -61l46 -59
c9.33301 -12.667 22.666 -19 39.999 -19h30c14 0 22.833 2.33301 26.5 7s5.5 14 5.5 28z" />
    <glyph glyph-name="integral" unicode="&#x222b;" horiz-adv-x="243" 
d="M156 639l0.000976562 -676c0 -52.667 -26.333 -79 -79 -79h-67v64h46c12.667 0 20.667 1.83301 24 5.5s5.66602 12.167 6.99902 25.5v676c0 52.667 26.333 79 79 79h67v-64h-46c-12.667 0 -21 -2 -25 -6s-6 -12.333 -6 -25z" />
    <glyph glyph-name="approxequal" unicode="&#x2248;" horiz-adv-x="472" 
d="M317 216c-21.333 0 -40.3271 4.33301 -56.9941 13s-29.334 18 -38.001 28c-24.667 27.333 -50.334 41 -77.001 41c-12 0 -20 -2.83301 -24 -8.5s-6 -14.167 -6 -25.5v-47h-64v60c0 50.667 25.667 76 77 76h29c18 0 34.667 -4.33301 50 -13s27.666 -18 36.999 -28
s21.666 -19.333 36.999 -28s30.166 -13 44.499 -13s23.166 2.66699 26.499 8s5 14.333 5 27v46h64v-60c0 -50.667 -26 -76 -78 -76h-26zM317.006 386c-21.333 0 -40.3271 4.33301 -56.9941 13s-29.334 18 -38.001 28c-24.667 27.333 -50.334 41 -77.001 41
c-12 0 -20 -2.83301 -24 -8.5s-6 -14.167 -6 -25.5v-47h-64v60c0 50.667 25.667 76 77 76h29c18 0 34.667 -4.33301 50 -13s27.666 -18 36.999 -28s21.666 -19.333 36.999 -28s30.166 -13 44.499 -13s23.166 2.66699 26.499 8s5 14.333 5 27v46h64v-60
c0 -50.667 -26 -76 -78 -76h-26z" />
    <glyph glyph-name="notequal" unicode="&#x2260;" horiz-adv-x="474" 
d="M424 364h-135l-46 -98h181v-58h-208l-46 -100h-55l46 100h-111v58h138l46 98h-184v58h210l44 94h55l-44 -94h109v-58z" />
    <glyph glyph-name="lessequal" unicode="&#x2264;" horiz-adv-x="434" 
d="M374 165v-57h-334v57h334zM374 444l-252 -88l252 -90v-65l-334 132v50l334 125v-64z" />
    <glyph glyph-name="greaterequal" unicode="&#x2265;" horiz-adv-x="434" 
d="M50 108v57h334v-57h-334zM302 356l-252 88v64l334 -125v-50l-334 -132v65z" />
    <glyph glyph-name="lozenge" unicode="&#x25ca;" horiz-adv-x="446" 
d="M260 622l155 -311l-155 -311h-57l-155 311l155 311h57zM232 70l111 241l-111 242l-112 -242z" />
    <glyph glyph-name="uni25CC" unicode="&#x25cc;" horiz-adv-x="422" 
d="M175 151h66v-73h-66v73zM175 485h66v-73h-66v73zM279 412v73c44 0 66 -24.333 66 -73h-66zM279 374h66v-73h-66v73zM279 262h66v-73h-66v73zM279 151h66c0 -20 -6 -37.167 -18 -51.5s-28 -21.5 -48 -21.5v73zM137 412h-66c0 22.667 6 40.5 18 53.5s28 19.5 48 19.5v-73z
M71 374h66v-73h-66v73zM71 262h66v-73h-66v73zM137 151l-0.000976562 -73c-19.333 0 -35.166 6.66699 -47.499 20s-18.5 31 -18.5 53h66z" />
    <glyph glyph-name="commaaccent" unicode="&#xf6c3;" horiz-adv-x="400" 
d="M160 -51h80v-39l-53 -121h-27v160z" />
    <glyph glyph-name="fi" unicode="&#xfb01;" horiz-adv-x="341" 
d="M227 669h69v-64h-69v64zM122 485h174v-485h-69v426h-105v-426h-69v426h-48v59h48v105c0 52.667 26.333 79 79 79h42v-64h-21c-12.667 0 -21 -1.83301 -25 -5.5s-6 -12.167 -6 -25.5v-89z" />
    <glyph glyph-name="fl" unicode="&#xfb02;" horiz-adv-x="341" 
d="M227 669h69v-669h-69v426h-105v-426h-69v426h-48v59h48v105c0 52.667 26.333 79 79 79h42v-64h-21c-12.667 0 -21 -1.83301 -25 -5.5s-6 -12.167 -6 -25.5v-89h105v184z" />
    <glyph glyph-name=".null" horiz-adv-x="0" 
 />
    <glyph glyph-name="nonmarkingreturn" horiz-adv-x="333" 
 />
    <glyph glyph-name="uni0915094D" horiz-adv-x="352" 
d="M441 563h-153.001v-117c6.66699 6 17.334 9 32.001 9h121v-59h-119c-13.333 0 -22.333 -2.33301 -27 -7s-7 -13.667 -7 -27v-362h-69v87c-7.33301 -6 -18 -9 -32 -9h-63c-52.667 0 -79 26.333 -79 79v249c0 52.667 26.333 79 79 79h55v-59h-34c-12.667 0 -21 -2 -25 -6
s-6 -12.333 -6 -25v-227c0 -13.333 2 -21.833 6 -25.5s12.333 -5.5 25 -5.5h40c12.667 0 21.5 2.5 26.5 7.5s7.5 13.833 7.5 26.5v392h-239v59h461v-59z" />
    <glyph glyph-name="uni0916094D" horiz-adv-x="409" 
d="M-20 622h518v-59h-254c5.33301 -5.33301 8 -14 8 -26v-227c0 -52.667 -26.333 -79 -79 -79h-56v-138c0 -12.667 1.83301 -21 5.5 -25s12.167 -6 25.5 -6h177v-62h-198c-52.667 -0 -79 26.333 -79 79v392h69v-181h35c13.333 0 21.833 2 25.5 6s5.5 12.333 5.5 25v211
c0 13.333 -1.83301 21.833 -5.5 25.5s-12.167 5.5 -25.5 5.5h-172v59zM361 381v-172c0 -12.667 1.83301 -21 5.5 -25s12.167 -6 25.5 -6h106v-59h-123c-52.667 0 -79 26.333 -79 79v194c0 52.667 26.333 79 79 79h59v-59h-42c-13.333 0 -21.833 -2 -25.5 -6
s-5.5 -12.333 -5.5 -25z" />
    <glyph glyph-name="uni0917094D" horiz-adv-x="334" 
d="M354 622v-59h-70v-406c0 -52.667 -26.333 -79 -79 -79h-91c-52.667 0 -79 26.333 -79 79v190c0 52.667 26.333 79 79 79h101v137h-235v59h374zM135 137h49c13.333 0 21.833 1.83301 25.5 5.5s5.5 12.167 5.5 25.5v199h-80c-12.667 0 -21 -1.83301 -25 -5.5
s-6 -12.167 -6 -25.5v-168c0 -13.333 2 -21.833 6 -25.5s12.333 -5.5 25 -5.5z" />
    <glyph glyph-name="uni0918094D" horiz-adv-x="237" 
d="M324 563h-176c-13.333 0 -21.833 -1.83301 -25.5 -5.5s-5.5 -12.167 -5.5 -25.5v-122c0 -13.333 1.83301 -21.833 5.5 -25.5s12.167 -5.5 25.5 -5.5h68v-59h-68c-13.333 0 -21.833 -2 -25.5 -6s-5.5 -12.333 -5.5 -25v-121c0 -13.333 1.83301 -21.833 5.5 -25.5
s12.167 -5.5 25.5 -5.5h176v-59h-197c-52.667 0 -79 26.333 -79 79v144c0 28.667 12.333 44 37 46v2c-24.667 2 -37 17.667 -37 47v141c0 12 2.66699 20.667 8 26h-76v59h344v-59z" />
    <glyph glyph-name="uni0919094D" horiz-adv-x="351" 
d="M-20 622h391v-59h-90v-137h-121c-13.333 0 -21.833 -2 -25.5 -6s-5.5 -12.333 -5.5 -25v-70c0 -12.667 1.83301 -21 5.5 -25s12.167 -6 25.5 -6h52c52.667 0 79 -26.333 79 -79v-136c0 -52.667 -26.333 -79 -79 -79h-85c-52.667 -0 -79 26.333 -79 79v86h69v-75
c0 -13.333 1.83301 -21.833 5.5 -25.5s12.167 -5.5 25.5 -5.5h43c12.667 0 21 1.83301 25 5.5s6 12.167 6 25.5v114c0 13.333 -2 21.833 -6 25.5s-12.333 5.5 -25 5.5h-52c-52.667 0 -79 26.333 -79 79v92c0 52.667 26.333 79 79 79h73v78h-232v59zM273 308v86h73v-86h-73z
M131 -61h76l100 -130h-76z" />
    <glyph glyph-name="uni091A094D" horiz-adv-x="207" 
d="M-20 622h316v-59h-316v59zM137 395v-227c0 -13.333 1.83301 -21.833 5.5 -25.5s12.167 -5.5 25.5 -5.5h128v-59h-149c-52.667 0 -79 26.333 -79 79v243c0 12 2.66699 20.667 8 26h-71v59h204v-59h-41c-13.333 0 -21.833 -2 -25.5 -6s-5.5 -12.333 -5.5 -25z" />
    <glyph glyph-name="uni091B094D" horiz-adv-x="501" 
d="M521 622v-58.999h-347l11 -1c-28.667 1.33301 -46 0.666016 -52 -2.00098s-9 -12 -9 -28v-163c0 -12.667 2 -21 6 -25s12.333 -6 25 -6h37v-59h-37c-12.667 0 -21 -1.83301 -25 -5.5s-6 -12.167 -6 -25.5v-158c0 -13.333 2 -21.833 6 -25.5s12.333 -5.5 25 -5.5h203
c13.333 0 21.833 1.83301 25.5 5.5s5.5 12.167 5.5 25.5v305c0 12.667 -1.83301 21 -5.5 25s-12.167 6 -25.5 6h-20c-13.333 0 -21.833 -2 -25.5 -6s-5.5 -12.333 -5.5 -25v-132c0 -12.667 1.83301 -21 5.5 -25s12.167 -6 25.5 -6h20v-59h-36c-52.667 0 -79 26.333 -79 79
v154c0 52.667 26.333 79 79 79h52c52.667 0 79 -26.333 79 -79v-327c0 -52.667 -26.333 -79 -79 -79h-240c-52.667 -0 -79 26.333 -79 79v181c0 28.667 12.333 44 37 46v2c-24.667 2 -37 17.667 -37 47v182c0 12 2.66699 20.667 8 26h-83v59h541z" />
    <glyph glyph-name="uni091C094D" horiz-adv-x="311" 
d="M114 485v-317c0 -13.333 2 -21.833 6 -25.5s12.333 -5.5 25 -5.5h34c12.667 0 21 1.83301 25 5.5s6 12.167 6 25.5v317h189v-59h-120v-269c0 -52.667 -26.333 -79 -79 -79h-76c-52.667 0 -79 26.333 -79 79v328h69zM399 622v-59h-419v59h419z" />
    <glyph glyph-name="uni091D094D" horiz-adv-x="353" 
d="M292 426h-146c-13.333 0 -21.833 -2 -25.5 -6s-5.5 -12.333 -5.5 -25v-40c0 -12.667 1.83301 -21 5.5 -25s12.167 -6 25.5 -6h292v-59h-139c0.666992 -4 1 -10.667 1 -20v-88c0 -52.667 -26.333 -79 -79 -79h-104v-78h-69v190h69v-53h83
c13.333 0 21.833 1.83301 25.5 5.5s5.5 12.167 5.5 25.5v66c0 13.333 -1.83301 21.833 -5.5 25.5s-12.167 5.5 -25.5 5.5h-75c-52.667 0 -79 26.333 -79 79v62c0 52.667 26.333 79 79 79h98v78h-243v59h458v-59h-146v-137z" />
    <glyph glyph-name="uni091E094D" horiz-adv-x="305" 
d="M-20 622h415v-59h-415v59zM259 406v-73h136v-59h-136v-117c0 -52.667 -26.333 -79 -79 -79h-71c-52.667 0 -79 26.333 -79 79v99h69v-88c0 -13.333 1.83301 -21.833 5.5 -25.5s12.167 -5.5 25.5 -5.5h29c12.667 0 21 1.83301 25 5.5s6 12.167 6 25.5v227
c0 12.667 -2 21 -6 25s-12.333 6 -25 6h-86v59h107c52.667 0 79 -26.333 79 -79z" />
    <glyph glyph-name="uni091F094D" horiz-adv-x="334" 
d="M-20 622h374v-59h-72v-137h-127c-12.667 0 -21 -2 -25 -6s-6 -12.333 -6 -25v-305c0 -13.333 2 -21.833 6 -25.5s12.333 -5.5 25 -5.5h34c12.667 0 21 1.83301 25 5.5s6 12.167 6 25.5v104h69v-115c0 -52.667 -26.333 -79 -79 -79h-76c-52.667 -0 -79 26.333 -79 79v327
c0 52.667 26.333 79 79 79h79v78h-233v59zM131 -61h76l100 -130h-76z" />
    <glyph glyph-name="uni0920094D" horiz-adv-x="368" 
d="M388 563h-166v-78h19c52.667 0 79 -26.333 79 -79v-327c0 -52.667 -26.333 -79 -79 -79h-107c-52.667 -0 -79 26.333 -79 79v327c0 52.667 26.333 79 79 79h19v78h-173v59h408v-59zM251 90v305c0 12.667 -1.83301 21 -5.5 25s-12.167 6 -25.5 6h-65
c-12.667 0 -21 -2 -25 -6s-6 -12.333 -6 -25v-305c0 -13.333 2 -21.833 6 -25.5s12.333 -5.5 25 -5.5h65c13.333 0 21.833 1.83301 25.5 5.5s5.5 12.167 5.5 25.5zM131 -61h76l100 -130h-76z" />
    <glyph glyph-name="uni0921094D" horiz-adv-x="351" 
d="M-20 622h391v-59h-90v-137h-121c-13.333 0 -21.833 -2 -25.5 -6s-5.5 -12.333 -5.5 -25v-70c0 -12.667 1.83301 -21 5.5 -25s12.167 -6 25.5 -6h52c52.667 0 79 -26.333 79 -79v-136c0 -52.667 -26.333 -79 -79 -79h-85c-52.667 -0 -79 26.333 -79 79v86h69v-75
c0 -13.333 1.83301 -21.833 5.5 -25.5s12.167 -5.5 25.5 -5.5h43c12.667 0 21 1.83301 25 5.5s6 12.167 6 25.5v114c0 13.333 -2 21.833 -6 25.5s-12.333 5.5 -25 5.5h-52c-52.667 0 -79 26.333 -79 79v92c0 52.667 26.333 79 79 79h73v78h-232v59zM131 -61h76l100 -130h-76
z" />
    <glyph glyph-name="uni0922094D" horiz-adv-x="377" 
d="M282 426h-127c-12.667 0 -21 -2 -25 -6s-6 -12.333 -6 -25v-305c0 -13.333 2 -21.833 6 -25.5s12.333 -5.5 25 -5.5h67c13.333 0 21.833 1.83301 25.5 5.5s5.5 12.167 5.5 25.5v103c0 12.667 -1.83301 21 -5.5 25s-12.167 6 -25.5 6h-41v59h62
c52.667 0 79 -26.333 79 -79v-125c0 -52.667 -26.333 -79 -79 -79h-109c-52.667 -0 -79 26.333 -79 79v327c0 52.667 26.333 79 79 79h79v78h-233v59h417v-59h-115v-137zM131 -61h76l100 -130h-76z" />
    <glyph glyph-name="uni0923094D" horiz-adv-x="311" 
d="M344 622v-59h-65v-406c0 -52.667 -26.333 -79 -79 -79h-76c-52.667 0 -79 26.333 -79 79v406h-65v59h364zM210 168v395h-96v-395c0 -13.333 2 -21.833 6 -25.5s12.333 -5.5 25 -5.5h34c12.667 0 21 1.83301 25 5.5s6 12.167 6 25.5z" />
    <glyph glyph-name="uni0924094D" horiz-adv-x="194" 
d="M269 485v-59h-124c-12.667 0 -21 -2 -25 -6s-6 -12.333 -6 -25v-302c0 -12.667 2 -21 6 -25s12.333 -6 25 -6h34v-62h-55c-52.667 -0 -79 26.333 -79 79v327c0 52.667 26.333 79 79 79h145zM269 622v-59h-289v59h289z" />
    <glyph glyph-name="uni0925094D" horiz-adv-x="301" 
d="M396 78h-271c-52.667 0 -79 26.333 -79 79v195h95c12.667 0 21 2 25 6s6 12.333 6 25v154c0 12.667 -2 21 -6 25s-12.333 6 -25 6h-5c-13.333 0 -21.833 -2 -25.5 -6s-5.5 -12.333 -5.5 -25v-45h-52v56c0 52.667 25.333 79 76 79h33c52.667 0 79 -26.333 79 -79v-176
c0 -52.667 -26.333 -79 -79 -79h-47v-125c0 -13.333 1.83301 -21.833 5.5 -25.5s12.167 -5.5 25.5 -5.5h250v-59z" />
    <glyph glyph-name="uni0926094D" horiz-adv-x="377" 
d="M297 -61l100 -130h-76l-100 130h76zM230 0l0.000976562 87c-6.66699 -6 -17.334 -9 -32.001 -9h-64c-52.667 0 -79 26.333 -79 79v249c0 52.667 26.333 79 79 79h89v78h-243v59h387v-59h-75v-137h-137c-12.667 0 -21 -2 -25 -6s-6 -12.333 -6 -25v-227
c0 -13.333 2 -21.833 6 -25.5s12.333 -5.5 25 -5.5h41c13.333 0 22.333 2.5 27 7.5s7 13.833 7 26.5v95h69v-266h-69z" />
    <glyph glyph-name="uni0927094D" horiz-adv-x="330" 
d="M141 404c0 -13.333 1.83301 -21.833 5.5 -25.5s12.167 -5.5 25.5 -5.5h68v-59h-68c-13.333 0 -21.833 -2 -25.5 -6s-5.5 -12.333 -5.5 -25v-115c0 -13.333 1.83301 -21.833 5.5 -25.5s12.167 -5.5 25.5 -5.5h249v-59h-270c-52.667 0 -79 26.333 -79 79v138
c0 28.667 12.333 44 37 46v2c-24.667 2 -37 17.667 -37 47v158c0 52.667 26.333 79 79 79h35c52.667 0 79 -26.333 79 -79v-56h-52v45c0 12.667 -1.83301 21 -5.5 25s-12.167 6 -25.5 6h-10c-13.333 0 -21.833 -2 -25.5 -6s-5.5 -12.333 -5.5 -25v-133z" />
    <glyph glyph-name="uni0928094D" horiz-adv-x="297" 
d="M-20 622h403v-59h-403v59zM35 157v249c0 52.667 26.333 79 79 79h269v-59h-119v-269c0 -52.667 -26.333 -79 -79 -79h-71c-52.667 0 -79 26.333 -79 79zM195 426h-60c-12.667 0 -21 -2 -25 -6s-6 -12.333 -6 -25v-227c0 -13.333 2 -21.833 6 -25.5s12.333 -5.5 25 -5.5
h29c13.333 0 21.833 1.83301 25.5 5.5s5.5 12.167 5.5 25.5v258z" />
    <glyph glyph-name="uni092A094D" horiz-adv-x="167" 
d="M258 563h-141v-395c0 -13.333 1.83301 -21.833 5.5 -25.5s12.167 -5.5 25.5 -5.5h110v-59h-131c-52.667 0 -79 26.333 -79 79v406h-68v59h278v-59z" />
    <glyph glyph-name="uni092B094D" horiz-adv-x="341" 
d="M430 563h-138.999v-117c7.33301 6 18 9 32 9h107v-59h-105c-12.667 0 -21.5 -2.33301 -26.5 -7s-7.5 -13.667 -7.5 -27v-362h-69v87c-6.66699 -6 -17.334 -9 -32.001 -9h-63c-52.667 0 -79 26.333 -79 79v406h-68v59h450v-59zM222.001 171v392h-105v-395
c0 -13.333 1.83301 -21.833 5.5 -25.5s12.167 -5.5 25.5 -5.5h40c13.333 0 22.333 2.5 27 7.5s7 13.833 7 26.5z" />
    <glyph glyph-name="uni092C094D" horiz-adv-x="205" 
d="M119 168c0 -13.333 1.83301 -21.833 5.5 -25.5s12.167 -5.5 25.5 -5.5h101c-70 130 -114 216 -132 258v-227zM129 78c-52.667 0 -78.999 26.333 -78.999 79v249c0 52.667 26.333 79 79 79h91v-59h-76c61.333 -112.667 97.666 -181.167 108.999 -205.5l43 -96.5v-46h-167z
M296.001 622v-59h-316v59h316z" />
    <glyph glyph-name="uni092D094D" horiz-adv-x="355" 
d="M445 401v-59h-153v-185c0 -52.667 -26.333 -79 -79 -79h-89c-52.667 0 -79 26.333 -79 79v165c0 52.667 26.333 79 79 79h99v131c0 13.333 -1.83301 21.833 -5.5 25.5s-12.167 5.5 -25.5 5.5h-39c-12.667 0 -21 -1.83301 -25 -5.5s-6 -12.167 -6 -25.5v-56h-69v67
c0 52.667 26.333 79 79 79h81c52.667 0 79 -26.333 79 -79v-142h153zM223 168v174h-78c-12.667 0 -21 -2 -25 -6s-6 -12.333 -6 -25v-143c0 -13.333 2 -21.833 6 -25.5s12.333 -5.5 25 -5.5h47c13.333 0 21.833 1.83301 25.5 5.5s5.5 12.167 5.5 25.5z" />
    <glyph glyph-name="uni092E094D" horiz-adv-x="340" 
d="M425 563h-143v-131h143v-59h-143v-186c0 -52.667 -26.333 -79 -79 -79h-89c-52.667 0 -79 26.333 -79 79v166c0 52.667 26.333 79 79 79h99v131h-233v59h445v-59zM213 198v175h-78c-12.667 0 -21 -1.83301 -25 -5.5s-6 -12.167 -6 -25.5v-144
c0 -13.333 2 -21.833 6 -25.5s12.333 -5.5 25 -5.5h47c13.333 0 21.833 1.83301 25.5 5.5s5.5 12.167 5.5 25.5z" />
    <glyph glyph-name="uni092F094D" horiz-adv-x="249" 
d="M336 622v-59h-129c5.33301 -5.33301 8 -14.333 8 -27v-142c0 -52.667 -26.333 -79 -79 -79h-32v-147c0 -13.333 2 -21.833 6 -25.5s12.333 -5.5 25 -5.5h201v-59h-222c-52.667 0 -79 26.333 -79 79v217h80c12.667 0 21 2 25 6s6 12.333 6 25v126
c0 14.667 -2.33301 23.667 -7 27s-17.667 5 -39 5h-140v59h376z" />
    <glyph glyph-name="uni0930094D" horiz-adv-x="331" 
d="M281 -61l100 -130h-76l-100 130h76zM289 211v-132c0 -52.667 -26.333 -79 -79 -79h-86c-52.667 -0 -79 26.333 -79 79v367h69v-102h77c12.667 0 21 2 25 6s6 12.333 6 25v157c0 13.333 -2 21.833 -6 25.5s-12.333 5.5 -25 5.5h-211v59h371v-59h-68
c5.33301 -5.33301 8 -14 8 -26v-173c0 -52.667 -26.333 -79 -79 -79h-98v-195c0 -13.333 2 -21.833 6 -25.5s12.333 -5.5 25 -5.5h44c12.667 0 21 1.83301 25 5.5s6 12.167 6 25.5v121h69z" />
    <glyph glyph-name="uni0932094D" horiz-adv-x="316" 
d="M196 485c29.333 0 45 -12.333 47 -37h2c2 24.667 17.333 37 46 37h112v-59h-95c-13.333 0 -21.833 -2 -25.5 -6s-5.5 -12.333 -5.5 -25v-206h-69v206c0 12.667 -2 21 -6 25s-12.333 6 -25 6h-32c-12.667 0 -21 -2 -25 -6s-6 -12.333 -6 -25v-302c0 -12.667 2 -21 6 -25
s12.333 -6 25 -6h61v-62h-82c-52.667 -0 -79 26.333 -79 79v327c0 52.667 26.333 79 79 79h72zM403 622v-59h-423v59h423z" />
    <glyph glyph-name="uni0933094D" horiz-adv-x="523" 
d="M227 395c0 12.667 -1.83301 21 -5.5 25s-12.167 6 -25.5 6h-61c-12.667 0 -21 -2 -25 -6s-6 -12.333 -6 -25v-227c0 -13.333 2 -21.833 6 -25.5s12.333 -5.5 25 -5.5h61c13.333 0 21.833 1.83301 25.5 5.5s5.5 12.167 5.5 25.5v227zM419 395
c0 12.667 -1.83301 21 -5.5 25s-12.167 6 -25.5 6h-61c-12.667 0 -21 -2 -25 -6s-6 -12.333 -6 -25v-227c0 -13.333 2 -21.833 6 -25.5s12.333 -5.5 25 -5.5h61c13.333 0 21.833 1.83301 25.5 5.5s5.5 12.167 5.5 25.5v227zM409 485c52.667 0 79 -26.333 79 -79v-249
c0 -52.667 -26.333 -79 -79 -79h-99c-28.667 0 -44 12.333 -46 37h-2c-2 -24.667 -17.667 -37 -47 -37h-101c-52.667 0 -79 26.333 -79 79v249c0 52.667 26.333 79 79 79h101c29.333 0 45 -12.333 47 -37h2c2 24.667 17.333 37 46 37h99zM563 622v-59h-603v59h603z" />
    <glyph glyph-name="uni0935094D" horiz-adv-x="167" 
d="M182 485v-59h-34c-13.333 0 -21.833 -2 -25.5 -6s-5.5 -12.333 -5.5 -25v-227c0 -13.333 1.83301 -21.833 5.5 -25.5s12.167 -5.5 25.5 -5.5h110v-59h-131c-52.667 0 -79 26.333 -79 79v249c0 52.667 26.333 79 79 79h55zM258 622v-59h-278v59h278z" />
    <glyph glyph-name="uni0936094D" horiz-adv-x="341" 
d="M212 268h-98v-178c0 -13.333 2 -21.833 6 -25.5s12.333 -5.5 25 -5.5h44c12.667 0 21 1.83301 25 5.5s6 12.167 6 25.5v104h69v-115c0 -52.667 -26.333 -79 -79 -79h-86c-52.667 -0 -79 26.333 -79 79v295h69v-47h77c12.667 0 21 1.83301 25 5.5s6 12.167 6 25.5v175
c0 12.667 -2 21 -6 25s-12.333 6 -25 6h-44c-12.667 0 -21 -2 -25 -6s-6 -12.333 -6 -25v-84h-69v95c0 52.667 26.333 79 79 79h86c52.667 0 79 -26.333 79 -79v-197c0 -52.667 -26.333 -79 -79 -79z" />
    <glyph glyph-name="uni0937094D" horiz-adv-x="213" 
d="M303 622l0.000976562 -59h-183c76 -158 120.167 -251.667 132.5 -281l29.5 -71c7.33301 -18 11.666 -27.667 12.999 -29l2 -57c-6.66699 -31.333 -27 -47 -61 -47h-102c-52.667 0 -79 26.333 -79 79v406h-75v59h323zM124.001 353l0.000976562 -185.001
c0 -13.333 2 -21.833 6 -25.5s12.333 -5.5 25 -5.5h79c17.333 0 27.666 5 30.999 15l-101 213l-49 109c6 -33.333 9 -73.666 9 -120.999z" />
    <glyph glyph-name="uni0938094D" horiz-adv-x="330" 
d="M405 622v-59h-122c5.33301 -5.33301 8 -14 8 -26v-133c0 -30.667 -4 -50.667 -12 -60h126v-59h-291v-195c0 -13.333 2 -21.833 6 -25.5s12.333 -5.5 25 -5.5h44c12.667 0 21 1.83301 25 5.5s6 12.167 6 25.5v121h69v-132c0 -52.667 -26.333 -79 -79 -79h-86
c-52.667 -0 -79 26.333 -79 79v367h69v-102h77c12.667 0 21 2 25 6s6 12.333 6 25v157c0 13.333 -2 21.833 -6 25.5s-12.333 5.5 -25 5.5h-211v59h425z" />
    <glyph glyph-name="uni0939094D" horiz-adv-x="334" 
d="M308 426h-153c-12.667 0 -21 -2 -25 -6s-6 -12.333 -6 -25v-49c0 -13.333 2 -21.833 6 -25.5s12.333 -5.5 25 -5.5h264v-59h-264c-12.667 0 -21 -2 -25 -6s-6 -12.333 -6 -25v-135c0 -13.333 2 -21.833 6 -25.5s12.333 -5.5 25 -5.5h163v-59h-184
c-52.667 -0 -79 26.333 -79 79v158c0 28.667 12.333 44 37 46v2c-24.667 2 -37 17.667 -37 47v74c0 52.667 26.333 79 79 79h105v78h-259v59h439v-59h-111v-137z" />
    <glyph glyph-name="uni0915093C094D" horiz-adv-x="352" 
d="M441 563h-153.001v-117c6.66699 6 17.334 9 32.001 9h121v-59h-119c-13.333 0 -22.333 -2.33301 -27 -7s-7 -13.667 -7 -27v-362h-69v87c-7.33301 -6 -18 -9 -32 -9h-63c-52.667 0 -79 26.333 -79 79v249c0 52.667 26.333 79 79 79h55v-59h-34c-12.667 0 -21 -2 -25 -6
s-6 -12.333 -6 -25v-227c0 -13.333 2 -21.833 6 -25.5s12.333 -5.5 25 -5.5h40c12.667 0 21.5 2.5 26.5 7.5s7.5 13.833 7.5 26.5v392h-239v59h461v-59zM51.999 -56v86h73v-86h-73z" />
    <glyph glyph-name="uni0916093C094D" horiz-adv-x="409" 
d="M-20 622h518v-59h-254c5.33301 -5.33301 8 -14 8 -26v-227c0 -52.667 -26.333 -79 -79 -79h-56v-138c0 -12.667 1.83301 -21 5.5 -25s12.167 -6 25.5 -6h177v-62h-198c-52.667 -0 -79 26.333 -79 79v392h69v-181h35c13.333 0 21.833 2 25.5 6s5.5 12.333 5.5 25v211
c0 13.333 -1.83301 21.833 -5.5 25.5s-12.167 5.5 -25.5 5.5h-172v59zM361 381v-172c0 -12.667 1.83301 -21 5.5 -25s12.167 -6 25.5 -6h106v-59h-123c-52.667 0 -79 26.333 -79 79v194c0 52.667 26.333 79 79 79h59v-59h-42c-13.333 0 -21.833 -2 -25.5 -6
s-5.5 -12.333 -5.5 -25zM126 -148v86h73v-86h-73z" />
    <glyph glyph-name="uni0917093C094D" horiz-adv-x="334" 
d="M354 622v-59h-70v-406c0 -52.667 -26.333 -79 -79 -79h-91c-52.667 0 -79 26.333 -79 79v190c0 52.667 26.333 79 79 79h101v137h-235v59h374zM135 137h49c13.333 0 21.833 1.83301 25.5 5.5s5.5 12.167 5.5 25.5v199h-80c-12.667 0 -21 -1.83301 -25 -5.5
s-6 -12.167 -6 -25.5v-168c0 -13.333 2 -21.833 6 -25.5s12.333 -5.5 25 -5.5zM120 -87v86h73v-86h-73z" />
    <glyph glyph-name="uni091C093C094D" horiz-adv-x="311" 
d="M114 485v-317c0 -13.333 2 -21.833 6 -25.5s12.333 -5.5 25 -5.5h34c12.667 0 21 1.83301 25 5.5s6 12.167 6 25.5v317h189v-59h-120v-269c0 -52.667 -26.333 -79 -79 -79h-76c-52.667 0 -79 26.333 -79 79v328h69zM399 622v-59h-419v59h419zM121 0h73v-86h-73v86z" />
    <glyph glyph-name="uni0928093C094D" horiz-adv-x="297" 
d="M-20 622h403v-59h-403v59zM35 157v249c0 52.667 26.333 79 79 79h269v-59h-119v-269c0 -52.667 -26.333 -79 -79 -79h-71c-52.667 0 -79 26.333 -79 79zM195 426h-60c-12.667 0 -21 -2 -25 -6s-6 -12.333 -6 -25v-227c0 -13.333 2 -21.833 6 -25.5s12.333 -5.5 25 -5.5
h29c13.333 0 21.833 1.83301 25.5 5.5s5.5 12.167 5.5 25.5v258zM195 -97v86h73v-86h-73z" />
    <glyph glyph-name="uni092B093C094D" horiz-adv-x="410" 
d="M430 563h-138.999v-117c7.33301 6 18 9 32 9h107v-59h-105c-12.667 0 -21.5 -2.33301 -26.5 -7s-7.5 -13.667 -7.5 -27v-362h-69v87c-6.66699 -6 -17.334 -9 -32.001 -9h-63c-52.667 0 -79 26.333 -79 79v406h-68v59h450v-59zM222.001 171v392h-105v-395
c0 -13.333 1.83301 -21.833 5.5 -25.5s12.167 -5.5 25.5 -5.5h40c13.333 0 22.333 2.5 27 7.5s7 13.833 7 26.5zM82.001 -87v86h73v-86h-73z" />
    <glyph glyph-name="uni092F093C094D" horiz-adv-x="249" 
d="M336 622v-59h-129c5.33301 -5.33301 8 -14.333 8 -27v-142c0 -52.667 -26.333 -79 -79 -79h-32v-147c0 -13.333 2 -21.833 6 -25.5s12.333 -5.5 25 -5.5h201v-59h-222c-52.667 0 -79 26.333 -79 79v217h80c12.667 0 21 2 25 6s6 12.333 6 25v126
c0 14.667 -2.33301 23.667 -7 27s-17.667 5 -39 5h-140v59h376zM158 -79v86h73v-86h-73z" />
    <glyph glyph-name="uni09080902" horiz-adv-x="340" 
d="M314 719h63v-66h-63v66zM284 724v-101.999h76v-59h-76v-137h-149c-12.667 0 -21 -2 -25 -6s-6 -12.333 -6 -25v-40c0 -12.667 2 -21 6 -25s12.333 -6 25 -6h81c52.667 0 79 -26.333 79 -79v-88c0 -52.667 -26.333 -79 -79 -79h-99v-78h-69v190h69v-53h78
c12.667 0 21 1.83301 25 5.5s6 12.167 6 25.5v66c0 13.333 -2 21.833 -6 25.5s-12.333 5.5 -25 5.5h-81c-52.667 0 -79 26.333 -79 79v62c0 52.667 26.333 79 79 79h101v78h-235v59h235v113c0 52 26.333 78 79 78h55v-59h-34c-13.333 0 -21.833 -1.83301 -25.5 -5.5
s-5.5 -11.834 -5.5 -24.501z" />
    <glyph glyph-name="uni09300941" horiz-adv-x="496" 
d="M516 622v-59h-233c5.33301 -5.33301 8 -14 8 -26v-52h95c52.667 0 79 -26.333 79 -79v-133h-69v122c0 12.667 -2 21 -6 25s-12.333 6 -25 6h-74v-62c0 -52.667 -26.333 -79 -79 -79h-98v-195c0 -13.333 2 -21.833 6 -25.5s12.333 -5.5 25 -5.5h44
c12.667 0 21 1.83301 25 5.5s6 12.167 6 25.5v121h69v-132c0 -52.667 -26.333 -79 -79 -79h-86c-52.667 -0 -79 26.333 -79 79v367h69v-102h77c12.667 0 21 2 25 6s6 12.333 6 25v157c0 13.333 -2 21.833 -6 25.5s-12.333 5.5 -25 5.5h-211v59h536z" />
    <glyph glyph-name="uni09300942" horiz-adv-x="516" 
d="M536 622v-59h-253c5.33301 -5.33301 8 -14 8 -26v-52h101c52.667 0 79 -26.333 79 -79v-219c0 -52.667 -26.333 -79 -79 -79h-55v62h34c12.667 0 21 2 25 6s6 12.333 6 25v194c0 12.667 -2 21 -6 25s-12.333 6 -25 6h-80v-62c0 -52.667 -26.333 -79 -79 -79h-98v-195
c0 -13.333 2 -21.833 6 -25.5s12.333 -5.5 25 -5.5h44c12.667 0 21 1.83301 25 5.5s6 12.167 6 25.5v121h69v-132c0 -52.667 -26.333 -79 -79 -79h-86c-52.667 -0 -79 26.333 -79 79v367h69v-102h77c12.667 0 21 2 25 6s6 12.333 6 25v157c0 13.333 -2 21.833 -6 25.5
s-12.333 5.5 -25 5.5h-211v59h556z" />
    <glyph glyph-name="uni09390941" horiz-adv-x="363" 
d="M308 426h-152.998c-12.667 0 -21 -2 -25 -6s-6 -12.333 -6 -25v-49c0 -13.333 2 -21.833 6 -25.5s12.333 -5.5 25 -5.5h84c52.667 0 79 -26.333 79 -79v-62h-69v51c0 12.667 -1.83301 21 -5.5 25s-12.167 6 -25.5 6h-63c-12.667 0 -21 -2 -25 -6s-6 -12.333 -6 -25v-135
c0 -13.333 2 -21.833 6 -25.5s12.333 -5.5 25 -5.5h84c52.667 0 79 -26.333 79 -79v-58c0 -52.667 -26.333 -79 -79 -79h-90c-36.667 0 -63.334 4 -80.001 12s-33.334 26.667 -50.001 56l-37 64h82l26 -43c12 -20 30.667 -30 56 -30h72c13.333 0 21.833 2 25.5 6
s5.5 12.333 5.5 25v36c0 12.667 -1.83301 21 -5.5 25s-12.167 6 -25.5 6h-84c-52.667 -0 -79 26.333 -79 79v158c0 28.667 12.333 44 37 46v2c-24.667 2 -37 17.667 -37 47v74c0 52.667 26.333 79 79 79h105v78h-259v59h413v-59h-85v-137z" />
    <glyph glyph-name="uni09390942" horiz-adv-x="373" 
d="M246 0h-52.999c-12.667 0 -21 -2 -25 -6s-6 -12.333 -6 -25v-36c0 -12.667 2 -21 6 -25s12.333 -6 25 -6h55v-59h-76c-52.667 0 -79 26.333 -79 79v58c0 10 1 18.667 3 26c-27.333 10.667 -41 35 -41 73v158c0 28.667 12.333 44 37 46v2c-24.667 2 -37 17.667 -37 47v74
c0 52.667 26.333 79 79 79h105v78h-259v59h413v-59h-85v-137h-153c-12.667 0 -21 -2 -25 -6s-6 -12.333 -6 -25v-49c0 -13.333 2 -21.833 6 -25.5s12.333 -5.5 25 -5.5h84c52.667 0 79 -26.333 79 -79v-62h-69v51c0 12.667 -1.83301 21 -5.5 25s-12.167 6 -25.5 6h-63
c-12.667 0 -21 -2 -25 -6s-6 -12.333 -6 -25v-135c0 -13.333 2 -21.833 6 -25.5s12.333 -5.5 25 -5.5h87c32.667 0 56.5 -4.16699 71.5 -12.5s30.833 -25.833 47.5 -52.5l93 -149h-83l-75 120c-14.667 23.333 -31.334 35 -50.001 35z" />
    <glyph glyph-name="uni09260943" horiz-adv-x="347" 
d="M292 426h-136.999c-12.667 0 -21 -2 -25 -6s-6 -12.333 -6 -25v-227c0 -13.333 2 -21.833 6 -25.5s12.333 -5.5 25 -5.5h41c13.333 0 22.333 2.5 27 7.5s7 13.833 7 26.5v95h69v-324h-48c-12.667 0 -21 -2 -25 -6s-6 -12.333 -6 -25v-36c0 -12.667 2 -21 6 -25
s12.333 -6 25 -6h89v-59h-110c-52.667 0 -79 26.333 -79 79v58c0 52.667 25.333 79 76 79h3v86c-6.66699 -6 -17.334 -9 -32.001 -9h-64c-52.667 0 -79 26.333 -79 79v249c0 52.667 26.333 79 79 79h89v78h-243v59h387v-59h-75v-137z" />
    <glyph glyph-name="uni09390943" horiz-adv-x="363" 
d="M308 426h-153c-12.667 0 -21 -2 -25 -6s-6 -12.333 -6 -25v-39c0 -13.333 2 -21.833 6 -25.5s12.333 -5.5 25 -5.5h75c46.667 0 70 -18 70 -54c0 -16 -7 -36 -21 -60s-21 -38.667 -21 -44c0 -8 5 -12 15 -12h36v-56h-52c-46.667 0 -70 18 -70 54
c0 16 6.83301 35.5 20.5 58.5s20.5 37.167 20.5 42.5c0 8 -5 12 -15 12h-58c-12.667 0 -21 -2 -25 -6s-6 -12.333 -6 -25v-145c0 -13.333 2 -21.833 6 -25.5s12.333 -5.5 25 -5.5h163v-59h-184c-52.667 -0 -79 26.333 -79 79v168c0 28.667 12.333 44 37 46v2
c-24.667 2 -37 17.667 -37 47v64c0 52.667 26.333 79 79 79h105v78h-259v59h413v-59h-85v-137z" />
    <glyph glyph-name="uni094D0930" horiz-adv-x="0" 
d="M-138 24h99l86 -164h-72l-63 130l-65 -130h-72z" />
    <glyph glyph-name="uni0930094D.1" horiz-adv-x="289" 
d="M-20 622h329v-59h-329v59zM309 374v-59h-125c-52.667 0 -79 26.333 -79 79v73h69v-62c0 -12.667 2 -21 6 -25s12.333 -6 25 -6h104z" />
    <glyph glyph-name="uni0930094D.2" horiz-adv-x="0" 
d="M10 704l-34 0.000976562c-13.333 0 -21.833 -1.83301 -25.5 -5.5s-5.5 -11.834 -5.5 -24.501v-75h-69v86c0 52 26.333 78 79 78h55v-59z" />
    <glyph glyph-name="uni0930094D0902" horiz-adv-x="0" 
d="M-26 719h63v-66h-63v66zM9 813v-58.999h-34c-13.333 0 -21.833 -1.83301 -25.5 -5.5s-5.5 -11.834 -5.5 -24.501v-125h-69v136c0 52 26.333 78 79 78h55z" />
    <glyph glyph-name="uni093E0930094D" horiz-adv-x="180" 
d="M199 622v-58.999h-75v-563h-68v563h-75v59h74v63c0 52 26.333 78 79 78h55v-59h-34c-13.333 0 -21.833 -1.83301 -25.5 -5.5s-5.5 -11.834 -5.5 -24.501v-52h75z" />
    <glyph glyph-name="uni093E0930094D0902" horiz-adv-x="180" 
d="M154 719h63v-66h-63v66zM124 724v-101.999h75v-59h-75v-563h-68v563h-75v59h74v113c0 52 26.333 78 79 78h55v-59h-34c-13.333 0 -21.833 -1.83301 -25.5 -5.5s-5.5 -11.834 -5.5 -24.501z" />
    <glyph glyph-name="uni0930094D.aMatraI" horiz-adv-x="0" 
d="M65 704l-34 0.000976562c-13.333 0 -21.833 -1.83301 -25.5 -5.5s-5.5 -11.834 -5.5 -24.501v-75h-69v86c0 52 26.333 78 79 78h55v-59z" />
    <glyph glyph-name="uni0902.aMatraI" horiz-adv-x="0" 
d="M20 743h73v-86h-73v86z" />
    <glyph glyph-name="uni0930094D0902.aMatraI" horiz-adv-x="0" 
d="M30 719h63v-66h-63v66zM65 813v-58.999h-34c-13.333 0 -21.833 -1.83301 -25.5 -5.5s-5.5 -11.834 -5.5 -24.501v-125h-69v136c0 52 26.333 78 79 78h55z" />
    <glyph glyph-name="uni09400930094D" 
d="M199 622v-58.999h-75v-563h-69v563h-75v59h75v101c0 12.667 -1.83301 21 -5.5 25s-12.167 6 -25.5 6h-48c-13.333 0 -21.833 -2 -25.5 -6s-5.5 -12.333 -5.5 -25v-56h-69v67c0 52.667 26.333 79 79 79h80c35.333 0 53 -14 53 -42h2v18c0 29.333 17.667 44 53 44h46v-59
h-34c-13.333 0 -21.833 -1.83301 -25.5 -5.5s-5.5 -11.834 -5.5 -24.501v-122h75z" />
    <glyph glyph-name="uni09400902" 
d="M153 755h73v-86h-73v86zM124 734v-112h75v-59h-75v-563h-69v563h-75v59h75v101c0 12.667 -1.83301 21 -5.5 25s-12.167 6 -25.5 6h-48c-14 0 -22.667 -1.83301 -26 -5.5s-5 -12.167 -5 -25.5v-56h-69v67c0 52.667 26.333 79 79 79h90c52.667 0 79 -26.333 79 -79z" />
    <glyph glyph-name="uni09400930094D0902" 
d="M159 732h63v-66h-63v66zM124 744v-121.999h75v-59h-75v-563h-69v563h-75v59h75v101c0 12.667 -1.83301 21 -5.5 25s-12.167 6 -25.5 6h-48c-13.333 0 -21.833 -2 -25.5 -6s-5.5 -12.333 -5.5 -25v-56h-69v67c0 52.667 26.333 79 79 79h80c35.333 0 53 -14 53 -42h2v18
c0 29.333 17.667 44 53 44h46v-59h-34c-13.333 0 -21.833 -1.83301 -25.5 -5.5s-5.5 -11.834 -5.5 -24.501z" />
    <glyph glyph-name="uni0940.aLong" 
d="M199 622v-59h-75v-563h-69v563h-75v59h75v101c0 12.667 -1.83301 21 -5.5 25s-12.167 6 -25.5 6h-210c-14 0 -22.667 -1.83301 -26 -5.5s-5 -12.167 -5 -25.5v-56h-69v67c0 52.667 26.333 79 79 79h252c52.667 0 79 -26.333 79 -79v-112h75z" />
    <glyph glyph-name="uni09400930094D.aLong" 
d="M199 622v-58.999h-75v-563h-69v563h-75v59h75v101c0 12.667 -1.83301 21 -5.5 25s-12.167 6 -25.5 6h-210c-13.333 0 -21.833 -2 -25.5 -6s-5.5 -12.333 -5.5 -25v-56h-69v67c0 52.667 26.333 79 79 79h242c35.333 0 53 -14 53 -42h2v18c0 29.333 17.667 44 53 44h46v-59
h-34c-13.333 0 -21.833 -1.83301 -25.5 -5.5s-5.5 -11.834 -5.5 -24.501v-122h75z" />
    <glyph glyph-name="uni09400902.aLong" 
d="M153 755h73v-86h-73v86zM124 734v-112h75v-59h-75v-563h-69v563h-75v59h75v101c0 12.667 -1.83301 21 -5.5 25s-12.167 6 -25.5 6h-210c-14 0 -22.667 -1.83301 -26 -5.5s-5 -12.167 -5 -25.5v-56h-69v67c0 52.667 26.333 79 79 79h252c52.667 0 79 -26.333 79 -79z" />
    <glyph glyph-name="uni09400930094D0902.aLong" 
d="M162 722h63v-66h-63v66zM124 744v-121.999h75v-59h-75v-563h-69v563h-75v59h75v101c0 12.667 -1.83301 21 -5.5 25s-12.167 6 -25.5 6h-210c-13.333 0 -21.833 -2 -25.5 -6s-5.5 -12.333 -5.5 -25v-56h-69v67c0 52.667 26.333 79 79 79h242c35.333 0 53 -14 53 -42h2v18
c0 29.333 17.667 44 53 44h46v-59h-34c-13.333 0 -21.833 -1.83301 -25.5 -5.5s-5.5 -11.834 -5.5 -24.501z" />
    <glyph glyph-name="uni09470930094D" horiz-adv-x="0" 
d="M-116 755c0 52 26.333 78.001 79 78.001h45v-59h-34c-13.333 0 -21.833 -1.83301 -25.5 -5.5s-5.5 -11.834 -5.5 -24.501v-135h-61c-22 20 -51.667 56 -89 108l-68 96h79l43 -61c20 -29.333 35.667 -59.333 47 -90h2c-8 26.667 -12 57.667 -12 93z" />
    <glyph glyph-name="uni09470902" horiz-adv-x="0" 
d="M-108 802h73v-86h-73v86zM-194 813l143 -204h-69c-22 20 -51.667 56 -89 108l-68 96h83z" />
    <glyph glyph-name="uni09470930094D0902" horiz-adv-x="0" 
d="M-116 755c0 52 26.333 78.001 79 78.001h45v-59h-34c-13.333 0 -21.833 -1.83301 -25.5 -5.5s-5.5 -11.834 -5.5 -24.501v-135h-61c-22 20 -51.667 56 -89 108l-68 96h79l43 -61c20 -29.333 35.667 -59.333 47 -90h2c-8 26.667 -12 57.667 -12 93zM-36 731.001h63v-66
h-63v66z" />
    <glyph glyph-name="uni09480930094D" horiz-adv-x="0" 
d="M-90 678c-6.66699 36.667 -10.002 66.334 -10.002 89.001c0 44 23.333 66 70 66h38v-59h-29c-13.333 0 -22.666 -2.5 -27.999 -7.5s-8 -14.167 -8 -27.5v-127h-64c-17.333 13.333 -94.666 80.333 -231.999 201h91c78.667 -84.667 133 -148.334 163 -191.001h4
c-32 45.333 -58.333 88.333 -79 129l-32 62h74c21.333 -64.667 34.333 -109.667 39 -135h3z" />
    <glyph glyph-name="uni09480902" horiz-adv-x="0" 
d="M-52 743h73v-86h-73v86zM-346 813h90.999l42 -46c50 -54.667 87.667 -103 113 -145h4c-13.333 27.333 -25.666 54.333 -36.999 81l-46 110h74l47 -201h-66c-18 11.333 -45.333 34.333 -82 69z" />
    <glyph glyph-name="uni09480930094D0902" horiz-adv-x="0" 
d="M-31 730h63v-66h-63v66zM-89 678c-6.66699 39.333 -10.002 69.668 -10.002 91.001c0 42.667 23.333 64 70 64h38v-59h-29c-13.333 0 -22.666 -2.5 -27.999 -7.5s-8 -14.167 -8 -27.5v-127h-64c-17.333 13.333 -94.666 80.333 -231.999 201h91
c78.667 -84.667 133 -148.334 163 -191.001h4c-32 45.333 -58.333 88.333 -79 129l-32 62h74c21.333 -64.667 34.333 -109.667 39 -135h3z" />
    <glyph glyph-name="uni094B0930094D" horiz-adv-x="180" 
d="M199 622v-58.999h-75v-563h-68v563h-75v59h69c-22.667 24 -48 55.667 -76 95l-68 96h79l43 -61c20 -29.333 35.667 -59.333 47 -90h2c-8 26.667 -12 57.667 -12 93c0 52 26.333 78 79 78h45v-59h-34c-13.333 0 -21.833 -1.83301 -25.5 -5.5s-5.5 -11.834 -5.5 -24.501
v-122h75z" />
    <glyph glyph-name="uni094B0902" horiz-adv-x="180" 
d="M199 622v-59h-75v-563h-68v563h-75v59h66c-22.667 24 -48 55.667 -76 95l-68 96h83l134 -191h79zM145 802v-86h-73v86h73z" />
    <glyph glyph-name="uni094B0930094D0902" horiz-adv-x="180" 
d="M146 731h63v-66h-63v66zM125 744v-121.999h74v-59h-75v-563h-68v563h-75v59h70c-22.667 24 -48 55.667 -76 95l-68 96h79l43 -61c20 -29.333 35.667 -59.333 47 -90h2c-8 26.667 -12 57.667 -12 93c0 52 26.333 78 79 78h45v-59h-34
c-13.333 0 -21.833 -1.83301 -25.5 -5.5s-5.5 -11.834 -5.5 -24.501z" />
    <glyph glyph-name="uni094C0930094D" horiz-adv-x="180" 
d="M199 622l-0.000976562 -59h-75v-563h-68v563h-75v59h66l-219 191h91c78.667 -84.667 133 -148.334 163 -191.001h4c-32 45.333 -58.333 88.333 -79 129l-32 62h74c21.333 -64.667 34.333 -109.667 39 -135h3c-6.66699 36.667 -10 66.334 -10 89.001c0 44 23.333 66 70 66
h38v-59h-29c-13.333 0 -22.666 -2.5 -27.999 -7.5s-8 -14.167 -8 -27.5v-117h75z" />
    <glyph glyph-name="uni094C0902" horiz-adv-x="180" 
d="M132 743h73v-86h-73v86zM199 622v-59.001h-75v-563h-68v563h-75v59h65c-18.667 14.667 -41.334 34.334 -68.001 59.001l-140 132h91l42 -46c50 -54.667 87.667 -103 113 -145h4c-13.333 27.333 -25.666 54.333 -36.999 81l-46 110h74l45 -191h75z" />
    <glyph glyph-name="uni094C0930094D0902" horiz-adv-x="180" 
d="M149 730h63v-66h-63v66zM124 739l-0.000976562 -116.998h75v-59h-75v-563h-68v563h-75v59h66l-219 191h91c78.667 -84.667 133 -148.334 163 -191.001h4c-32 45.333 -58.333 88.333 -79 129l-32 62h74c21.333 -64.667 34.333 -109.667 39 -135h3
c-6.66699 39.333 -10 69.666 -10 90.999c0 42.667 23.333 64 70 64h38v-59h-29c-13.333 0 -22.666 -2.5 -27.999 -7.5s-8 -14.167 -8 -27.5z" />
    <glyph glyph-name="uni0915094D0937" horiz-adv-x="542" 
d="M562 622v-59.001h-75v-563h-69v306h-288c-13.333 0 -21.833 -2 -25.5 -6s-5.5 -12.333 -5.5 -25v-107c0 -13.333 1.83301 -21.833 5.5 -25.5s12.167 -5.5 25.5 -5.5h76c15.333 0 26 2.83301 32 8.5s9 15.834 9 30.501v45h69v-221h-69v93c-6.66699 -10 -19 -15 -37 -15
h-101c-52.667 0 -79 26.333 -79 79v125c0 48 19.667 74.667 59 80c-6 5.33301 -9 14.333 -9 27v159c0 52.667 26.333 79 79 79h82c52.667 0 79 -26.333 79 -79v-159c0 -12 -2.66699 -20.667 -8 -26h106v259h144zM251 393.999v143c0 12.667 -1.83301 21 -5.5 25
s-12.167 6 -25.5 6h-40c-13.333 0 -21.833 -2 -25.5 -6s-5.5 -12.333 -5.5 -25v-143c0 -12.667 2 -21 6 -25s12.667 -6 26 -6h39c13.333 0 21.833 1.83301 25.5 5.5s5.5 12.167 5.5 25.5z" />
    <glyph glyph-name="uni0915094D0937094D" horiz-adv-x="418" 
d="M451 306l-321 -0.000976562c-13.333 0 -21.833 -2 -25.5 -6s-5.5 -12.333 -5.5 -25v-107c0 -13.333 1.83301 -21.833 5.5 -25.5s12.167 -5.5 25.5 -5.5h76c15.333 0 26 2.83301 32 8.5s9 15.834 9 30.501v45h69v-221h-69v93c-6.66699 -10 -19 -15 -37 -15h-101
c-52.667 0 -79 26.333 -79 79v125c0 48 19.667 74.667 59 80c-6 5.33301 -9 14.333 -9 27v159c0 52.667 26.333 79 79 79h82c52.667 0 79 -26.333 79 -79v-159c0 -12 -2.66699 -20.667 -8 -26h139v-57zM149 536.999v-143c0 -12.667 2 -21 6 -25s12.667 -6 26 -6h39
c13.333 0 21.833 1.83301 25.5 5.5s5.5 12.167 5.5 25.5v143c0 12.667 -1.83301 21 -5.5 25s-12.167 6 -25.5 6h-40c-13.333 0 -21.833 -2 -25.5 -6s-5.5 -12.333 -5.5 -25z" />
    <glyph glyph-name="uni0915094D0937094D092E" horiz-adv-x="905" 
d="M925 622l0.000976562 -59.001h-75v-563h-69v373h-113v-186c0 -52.667 -26.333 -79 -79 -79h-89c-52.667 0 -79 26.333 -79 79v119h-291c-13.333 0 -21.833 -2 -25.5 -6s-5.5 -12.333 -5.5 -25v-107c0 -13.333 1.83301 -21.833 5.5 -25.5s12.167 -5.5 25.5 -5.5h76
c15.333 0 26 2.83301 32 8.5s9 15.834 9 30.501v45h69v-221h-69v93c-6.66699 -10 -19 -15 -37 -15h-101c-52.667 0 -79 26.333 -79 79v125c0 48 19.667 74.667 59 80c-6 5.33301 -9 14.333 -9 27v159c0 52.667 26.333 79 79 79h82c52.667 0 79 -26.333 79 -79v-159
c0 -12 -2.66699 -20.667 -8 -26h109c3.33301 46 29.666 69 78.999 69h99v131h-233v59h559zM251.001 393.999v143c0 12.667 -1.83301 21 -5.5 25s-12.167 6 -25.5 6h-40c-13.333 0 -21.833 -2 -25.5 -6s-5.5 -12.333 -5.5 -25v-143c0 -12.667 2 -21 6 -25s12.667 -6 26 -6h39
c13.333 0 21.833 1.83301 25.5 5.5s5.5 12.167 5.5 25.5zM599.001 197.999v175h-78c-12.667 0 -21 -1.83301 -25 -5.5s-6 -12.167 -6 -25.5v-144c0 -13.333 2 -21.833 6 -25.5s12.333 -5.5 25 -5.5h47c13.333 0 21.833 1.83301 25.5 5.5s5.5 12.167 5.5 25.5z
M781.001 431.999v131h-113v-131h113z" />
    <glyph glyph-name="uni0915094D0937094D092E094D" horiz-adv-x="753" 
d="M813 563l-142.999 -0.000976562v-131h143v-59h-143v-186c0 -52.667 -26.333 -79 -79 -79h-89c-52.667 0 -79 26.333 -79 79v119h-293c-13.333 0 -21.833 -2 -25.5 -6s-5.5 -12.333 -5.5 -25v-107c0 -13.333 1.83301 -21.833 5.5 -25.5s12.167 -5.5 25.5 -5.5h76
c15.333 0 26 2.83301 32 8.5s9 15.834 9 30.501v45h69v-221h-69v93c-6.66699 -10 -19 -15 -37 -15h-101c-52.667 0 -79 26.333 -79 79v125c0 48 19.667 74.667 59 80c-6 5.33301 -9 14.333 -9 27v159c0 52.667 26.333 79 79 79h82c52.667 0 79 -26.333 79 -79v-159
c0 -12 -2.66699 -20.667 -8 -26h111c3.33301 46 29.666 69 78.999 69h99v131h-233v59h445v-59zM251.001 393.999v143c0 12.667 -1.83301 21 -5.5 25s-12.167 6 -25.5 6h-40c-13.333 0 -21.833 -2 -25.5 -6s-5.5 -12.333 -5.5 -25v-143c0 -12.667 2 -21 6 -25
s12.667 -6 26 -6h39c13.333 0 21.833 1.83301 25.5 5.5s5.5 12.167 5.5 25.5zM601.001 197.999v175h-78c-12.667 0 -21 -1.83301 -25 -5.5s-6 -12.167 -6 -25.5v-144c0 -13.333 2 -21.833 6 -25.5s12.333 -5.5 25 -5.5h47c13.333 0 21.833 1.83301 25.5 5.5
s5.5 12.167 5.5 25.5z" />
    <glyph glyph-name="uni0915094D0937094D092E094D092F" horiz-adv-x="1134" 
d="M1154 622l0.000976562 -59.001h-75v-563h-69v87c-6.66699 -6 -17.334 -9 -32.001 -9h-158c-52.667 0 -79 26.333 -79 79v209h-91v-209c0 -52.667 -26.333 -79 -79 -79h-71c-52.667 0 -79 26.333 -79 79v149h-291c-13.333 0 -21.833 -2 -25.5 -6s-5.5 -12.333 -5.5 -25
v-107c0 -13.333 1.83301 -21.833 5.5 -25.5s12.167 -5.5 25.5 -5.5h76c15.333 0 26 2.83301 32 8.5s9 15.834 9 30.501v45h69v-221h-69v93c-6.66699 -10 -19 -15 -37 -15h-101c-52.667 0 -79 26.333 -79 79v125c0 48 19.667 74.667 59 80c-6 5.33301 -9 14.333 -9 27v159
c0 52.667 26.333 79 79 79h82c52.667 0 79 -26.333 79 -79v-159c0 -12 -2.66699 -20.667 -8 -26h110c4.66699 41.333 30.667 62 78 62h81v138h-215v59h788zM251.001 393.999v143c0 12.667 -1.83301 21 -5.5 25s-12.167 6 -25.5 6h-40c-13.333 0 -21.833 -2 -25.5 -6
s-5.5 -12.333 -5.5 -25v-143c0 -12.667 2 -21 6 -25s12.667 -6 26 -6h39c13.333 0 21.833 1.83301 25.5 5.5s5.5 12.167 5.5 25.5zM581.001 167.999v198h-60c-12.667 0 -21 -2 -25 -6s-6 -12.333 -6 -25v-167c0 -13.333 2 -21.833 6 -25.5s12.333 -5.5 25 -5.5h29
c13.333 0 21.833 1.83301 25.5 5.5s5.5 12.167 5.5 25.5zM650.001 424.999h171c12.667 0 21 1.83301 25 5.5s6 12.167 6 25.5v75c0 14.667 -2.33301 23.667 -7 27s-17.667 5 -39 5h-156v-138zM1010 170.999v392h-97c5.33301 -5.33301 8 -14.333 8 -27v-91
c0 -52.667 -26.333 -79 -79 -79h-32v-198c0 -13.333 2 -21.833 6 -25.5s12.333 -5.5 25 -5.5h135c13.333 0 22.333 2.5 27 7.5s7 13.833 7 26.5z" />
    <glyph glyph-name="uni0915094D0937094D092F" horiz-adv-x="814" 
d="M834 622l0.000976562 -59h-75v-563h-69v87c-6.66699 -6 -17.334 -9 -32.001 -9h-158c-52.667 0 -79 26.333 -79 79v160h-291c-13.333 0 -21.833 -2.5 -25.5 -7.5s-5.5 -16.5 -5.5 -34.5v-107c0 -13.333 1.83301 -21.833 5.5 -25.5s12.167 -5.5 25.5 -5.5h76
c15.333 0 26 2.83301 32 8.5s9 15.834 9 30.501v45h69v-221h-69v93c-6.66699 -10 -19 -15 -37 -15h-101c-52.667 0 -79 26.333 -79 79v125c0 55.333 19.667 85.666 59 90.999c-6 4.66699 -9 13.667 -9 27v148c0 52.667 26.333 79 79 79h82c52.667 0 79 -26.333 79 -79v-148
c0 -12 -2.66699 -20.667 -8 -26h189c12.667 0 21 2 25 6s6 12.333 6 25v126c0 14.667 -2.33301 23.667 -7 27s-17.667 5 -39 5h-94v59h442zM251.001 405v132c0 12.667 -1.83301 21 -5.5 25s-12.167 6 -25.5 6h-40c-13.333 0 -21.833 -2 -25.5 -6s-5.5 -12.333 -5.5 -25v-132
c0 -12.667 2 -21 6 -25s12.667 -6 26 -6h39c13.333 0 21.833 2 25.5 6s5.5 12.333 5.5 25zM690.001 171v392h-97c5.33301 -5.33301 8 -14.333 8 -27v-142c0 -52.667 -26.333 -79 -79 -79h-32v-147c0 -13.333 2 -21.833 6 -25.5s12.333 -5.5 25 -5.5h135
c13.333 0 22.333 2.5 27 7.5s7 13.833 7 26.5z" />
    <glyph glyph-name="uni0915094D0937094D0935" horiz-adv-x="719" 
d="M739 622v-59.001h-75v-563h-69v87c-7.33301 -6 -18 -9 -32 -9h-63c-52.667 0 -79 26.333 -79 79v149h-291c-13.333 0 -21.833 -2 -25.5 -6s-5.5 -12.333 -5.5 -25v-107c0 -13.333 1.83301 -21.833 5.5 -25.5s12.167 -5.5 25.5 -5.5h76c15.333 0 26 2.83301 32 8.5
s9 15.834 9 30.501v45h69v-221h-69v93c-6.66699 -10 -19 -15 -37 -15h-101c-52.667 0 -79 26.333 -79 79v125c0 48 19.667 74.667 59 80c-6 5.33301 -9 14.333 -9 27v159c0 52.667 26.333 79 79 79h82c52.667 0 79 -26.333 79 -79v-159c0 -12 -2.66699 -20.667 -8 -26h109
v43c0 52.667 26.333 79 79 79h55v-59h-34c-12.667 0 -21 -2 -25 -6s-6 -12.333 -6 -25v-227c0 -13.333 2 -21.833 6 -25.5s12.333 -5.5 25 -5.5h40c12.667 0 21.5 2.5 26.5 7.5s7.5 13.833 7.5 26.5v392h-202v59h346zM251 393.999v143c0 12.667 -1.83301 21 -5.5 25
s-12.167 6 -25.5 6h-40c-13.333 0 -21.833 -2 -25.5 -6s-5.5 -12.333 -5.5 -25v-143c0 -12.667 2 -21 6 -25s12.667 -6 26 -6h39c13.333 0 21.833 1.83301 25.5 5.5s5.5 12.167 5.5 25.5z" />
    <glyph glyph-name="uni091C094D091E" horiz-adv-x="491" 
d="M511 622v-59h-76v-563h-69v426h-95c5.33301 -5.33301 8 -14 8 -26v-243c0 -52.667 -26.333 -79 -79 -79h-83v-78h-69v220h69v-83h62c12.667 0 21 1.83301 25 5.5s6 12.167 6 25.5v227c0 12.667 -2 21 -6 25s-12.333 6 -25 6h-111v59h298v78h-386v59h531z" />
    <glyph glyph-name="uni091C094D091E094D" horiz-adv-x="311" 
d="M-20 622h420v-59h-420v59zM68 426v59h332v-59h-129c5.33301 -5.33301 8 -14 8 -26v-243c0 -52.667 -26.333 -79 -79 -79h-83v-78h-69v220h69v-83h62c12.667 0 21 1.83301 25 5.5s6 12.167 6 25.5v227c0 12.667 -2 21 -6 25s-12.333 6 -25 6h-111z" />
    <glyph glyph-name="uni091C094D091E094D092F" horiz-adv-x="759" 
d="M779 622v-59h-75v-563h-69v87c-7.33301 -6 -18 -9 -32 -9h-158c-52.667 0 -79 26.333 -79 79v208h-95c5.33301 -5.33301 8 -14 8 -26v-182c0 -52.667 -26.333 -79 -79 -79h-83v-78h-69v220h69v-83h62c12.667 0 21 1.83301 25 5.5s6 12.167 6 25.5v166
c0 13.333 -2 21.833 -6 25.5s-12.333 5.5 -25 5.5h-111v59h378c13.333 0 21.833 2 25.5 6s5.5 12.333 5.5 25v76c0 14.667 -2.33301 23.667 -7 27s-17.667 5 -39 5h-451v59h799zM635 171v392h-97c5.33301 -5.33301 8 -14.333 8 -27v-92c0 -52.667 -26.333 -79 -79 -79h-32
v-197c0 -13.333 1.83301 -21.833 5.5 -25.5s12.167 -5.5 25.5 -5.5h135c12.667 0 21.5 2.5 26.5 7.5s7.5 13.833 7.5 26.5z" />
    <glyph glyph-name="uni0915094D0928" horiz-adv-x="834" 
d="M854 622v-59h-75v-563h-69v396h-88v-239c0 -52.667 -26.333 -79 -79 -79h-71c-52.667 0 -79 26.333 -79 79v219c0 9.33301 0.333008 16 1 20h-72c-13.333 0 -22.333 -2.33301 -27 -7s-7 -13.667 -7 -27v-362h-69v87c-7.33301 -6 -18 -9 -32 -9h-63
c-52.667 0 -79 26.333 -79 79v249c0 52.667 26.333 79 79 79h55v-59h-34c-12.667 0 -21 -2 -25 -6s-6 -12.333 -6 -25v-227c0 -13.333 2 -21.833 6 -25.5s12.333 -5.5 25 -5.5h40c12.667 0 21.5 2.5 26.5 7.5s7.5 13.833 7.5 26.5v392h-239v59h874zM553 168v228h-60
c-12.667 0 -21 -2 -25 -6s-6 -12.333 -6 -25v-197c0 -13.333 2 -21.833 6 -25.5s12.333 -5.5 25 -5.5h29c13.333 0 21.833 1.83301 25.5 5.5s5.5 12.167 5.5 25.5zM710 455l-0.000976562 108h-422v-117c6.66699 6 17.334 9 32.001 9h390z" />
    <glyph glyph-name="uni0916094D0928" horiz-adv-x="905" 
d="M925 622v-59.001h-75v-563h-69v426h-88v-269c0 -52.667 -26.333 -79 -79 -79h-71c-45.333 0 -71 19.333 -77 58c-6.66699 -11.333 -19.667 -17 -39 -17h-52c-52.667 0 -79 26.333 -79 79v208c0 52.667 26.333 79 79 79h59v-59h-42c-13.333 0 -21.833 -2 -25.5 -6
s-5.5 -12.333 -5.5 -25v-186c0 -12.667 1.83301 -21 5.5 -25s12.167 -6 25.5 -6h31c15.333 0 26 2.83301 32 8.5s9 15.834 9 30.501v189c0 52.667 26.333 79 79 79h238v78h-537c5.33301 -5.33301 8 -14 8 -26v-212c0 -52.667 -26.333 -79 -79 -79h-56v-153
c0 -12.667 1.83301 -21 5.5 -25s12.167 -6 25.5 -6h213v-62h-234c-52.667 -0 -79 26.333 -79 79v392h69v-166h35c13.333 0 21.833 1.83301 25.5 5.5s5.5 12.167 5.5 25.5v196c0 13.333 -1.83301 21.833 -5.5 25.5s-12.167 5.5 -25.5 5.5h-172v59h945zM624 167.999v258h-60
c-13.333 0 -21.833 -2 -25.5 -6s-5.5 -12.333 -5.5 -25v-227c0 -13.333 1.83301 -21.833 5.5 -25.5s12.167 -5.5 25.5 -5.5h29c12.667 0 21 1.83301 25 5.5s6 12.167 6 25.5z" />
    <glyph glyph-name="uni0917094D0928" horiz-adv-x="816" 
d="M836 622v-59h-75v-563h-69v426h-88v-269c0 -52.667 -26.333 -79 -79 -79h-71c-52.667 0 -79 26.333 -79 79v249c0 52.667 26.333 79 79 79h238v78h-408v-406c0 -52.667 -26.333 -79 -79 -79h-91c-52.667 0 -79 26.333 -79 79v190c0 52.667 26.333 79 79 79h101v137h-235
v59h856zM135 137h49c13.333 0 21.833 1.83301 25.5 5.5s5.5 12.167 5.5 25.5v199h-80c-12.667 0 -21 -1.83301 -25 -5.5s-6 -12.167 -6 -25.5v-168c0 -13.333 2 -21.833 6 -25.5s12.333 -5.5 25 -5.5zM535 168v258h-60c-12.667 0 -21 -2 -25 -6s-6 -12.333 -6 -25v-227
c0 -13.333 2 -21.833 6 -25.5s12.333 -5.5 25 -5.5h29c13.333 0 21.833 1.83301 25.5 5.5s5.5 12.167 5.5 25.5z" />
    <glyph glyph-name="uni0918094D0928" horiz-adv-x="727" 
d="M737 622l0.000976562 -59h-75v-563h-69v426h-88v-269c0 -52.667 -26.333 -79 -79 -79h-71c-24.667 0 -43.334 5.33301 -56.001 16c-10 -10.667 -27.667 -16 -53 -16h-119c-52.667 0 -79 26.333 -79 79v144c0 28.667 12.333 44 37 46v2c-24.667 2 -37 17.667 -37 47v141
c0 12 2.66699 20.667 8 26h-76v59h757zM436.001 168v258h-60c-13.333 0 -21.833 -2 -25.5 -6s-5.5 -12.333 -5.5 -25v-227c0 -13.333 1.83301 -21.833 5.5 -25.5s12.167 -5.5 25.5 -5.5h29c12.667 0 21 1.83301 25 5.5s6 12.167 6 25.5zM593.001 485v78h-445
c-13.333 0 -21.833 -1.83301 -25.5 -5.5s-5.5 -12.167 -5.5 -25.5v-122c0 -13.333 1.83301 -21.833 5.5 -25.5s12.167 -5.5 25.5 -5.5h68v-59h-68c-13.333 0 -21.833 -2 -25.5 -6s-5.5 -12.333 -5.5 -25v-121c0 -13.333 1.83301 -21.833 5.5 -25.5s12.167 -5.5 25.5 -5.5h94
c12.667 0 21.5 2.5 26.5 7.5s7.5 13.5 7.5 25.5v236c0 52.667 26.333 79 79 79h238z" />
    <glyph glyph-name="uni091A094D0928" horiz-adv-x="703" 
d="M723 622l0.000976562 -59h-75v-563h-69v426h-88v-269c0 -52.667 -26.333 -79 -79 -79h-71c-28.667 0 -49.334 7.33301 -62.001 22c-10 -14.667 -29.333 -22 -58 -22h-74c-52.667 0 -79 26.333 -79 79v243c0 12 2.66699 20.667 8 26h-71v59h204v-59h-41
c-13.333 0 -21.833 -2 -25.5 -6s-5.5 -12.333 -5.5 -25v-227c0 -13.333 1.83301 -21.833 5.5 -25.5s12.167 -5.5 25.5 -5.5h60c12.667 0 21.5 2.5 26.5 7.5s7.5 13.5 7.5 25.5v236c0 52.667 26.333 79 79 79h238v78h-599v59h743zM422.001 168v258h-60
c-13.333 0 -21.833 -2 -25.5 -6s-5.5 -12.333 -5.5 -25v-227c0 -13.333 1.83301 -21.833 5.5 -25.5s12.167 -5.5 25.5 -5.5h29c12.667 0 21 1.83301 25 5.5s6 12.167 6 25.5z" />
    <glyph glyph-name="uni091B094D0928" horiz-adv-x="501" 
d="M521 563h-139v-78c47.333 -2.66699 71 -29 71 -79v-327c0 -52.667 -26.333 -79 -79 -79h-15v-215h-69v99h-59c-12.667 0 -21 -2 -25 -6s-6 -12.333 -6 -25v-26h-69v37c0 52.667 26.333 79 79 79h80v57h-156c-52.667 -0 -79 26.333 -79 79v181c0 28.667 12.333 44 37 46v2
c-24.667 2 -37 17.667 -37 47v182c0 12 2.66699 20.667 8 26h-83v59h541v-59zM318 563l-144 0.000976562l11 -1c-28.667 1.33301 -46 0.666016 -52 -2.00098s-9 -12 -9 -28v-163c0 -12.667 2 -21 6 -25s12.333 -6 25 -6h37v-59h-37c-12.667 0 -21 -1.83301 -25 -5.5
s-6 -12.167 -6 -25.5v-158c0 -13.333 2 -21.833 6 -25.5s12.333 -5.5 25 -5.5h203c13.333 0 21.833 1.83301 25.5 5.5s5.5 12.167 5.5 25.5v305c0 12.667 -1.83301 21 -5.5 25s-12.167 6 -25.5 6h-20c-13.333 0 -21.833 -2 -25.5 -6s-5.5 -12.333 -5.5 -25v-132
c0 -12.667 1.83301 -21 5.5 -25s12.167 -6 25.5 -6h20v-59h-36c-52.667 0 -79 26.333 -79 79v154c0 52 25 78.333 75 79v78z" />
    <glyph glyph-name="uni091C094D0928" horiz-adv-x="816" 
d="M836 622v-59h-75v-563h-69v426h-88v-269c0 -52.667 -26.333 -79 -79 -79h-71c-52.667 0 -79 26.333 -79 79v249c0 9.33301 0.333008 16 1 20h-97v-269c0 -52.667 -26.333 -79 -79 -79h-76c-52.667 0 -79 26.333 -79 79v328h69v-317c0 -13.333 2 -21.833 6 -25.5
s12.333 -5.5 25 -5.5h34c12.667 0 21 1.83301 25 5.5s6 12.167 6 25.5v317h482v78h-712v59h856zM535 168v258h-60c-12.667 0 -21 -2 -25 -6s-6 -12.333 -6 -25v-227c0 -13.333 2 -21.833 6 -25.5s12.333 -5.5 25 -5.5h29c13.333 0 21.833 1.83301 25.5 5.5
s5.5 12.167 5.5 25.5z" />
    <glyph glyph-name="uni091D094D0928" horiz-adv-x="832" 
d="M852 622v-59h-75v-563h-69v426h-88v-269c0 -52.667 -26.333 -79 -79 -79h-71c-52.667 0 -79 26.333 -79 79v108h-92c0.666992 -4 1 -10.667 1 -20v-88c0 -52.667 -26.333 -79 -79 -79h-104v-78h-69v190h69v-53h83c13.333 0 21.833 1.83301 25.5 5.5s5.5 12.167 5.5 25.5
v66c0 13.333 -1.83301 21.833 -5.5 25.5s-12.167 5.5 -25.5 5.5h-75c-52.667 0 -79 26.333 -79 79v62c0 52.667 26.333 79 79 79h98v78h-243v59h872zM551 168v258h-60c-12.667 0 -21 -2 -25 -6s-6 -12.333 -6 -25v-227c0 -13.333 2 -21.833 6 -25.5s12.333 -5.5 25 -5.5h29
c13.333 0 21.833 1.83301 25.5 5.5s5.5 12.167 5.5 25.5zM708 485v78h-416v-137h-146c-13.333 0 -21.833 -2 -25.5 -6s-5.5 -12.333 -5.5 -25v-40c0 -12.667 1.83301 -21 5.5 -25s12.167 -6 25.5 -6h245v82c0 52.667 26.333 79 79 79h238z" />
    <glyph glyph-name="uni091F094D0928" horiz-adv-x="334" 
d="M282 426h-127c-12.667 0 -21 -2 -25 -6s-6 -12.333 -6 -25v-305c0 -13.333 2 -21.833 6 -25.5s12.333 -5.5 25 -5.5h34c12.667 0 21 1.83301 25 5.5s6 12.167 6 25.5v104h69v-115c0 -26.667 -6.66699 -46.667 -20 -60v-234h-69v99h-26c-13.333 0 -21.833 -2 -25.5 -6
s-5.5 -12.333 -5.5 -25v-26h-69v37c0 52.667 26.333 79 79 79h47v57h-66c-52.667 -0 -79 26.333 -79 79v327c0 52.667 26.333 79 79 79h79v78h-233v59h374v-59h-72v-137z" />
    <glyph glyph-name="uni0920094D0928" horiz-adv-x="368" 
d="M388 563l-166 -0.000976562v-78h19c52.667 0 79 -26.333 79 -79v-327c0 -37.333 -13.667 -61.666 -41 -72.999v-221h-69v99h-26c-13.333 0 -21.833 -2 -25.5 -6s-5.5 -12.333 -5.5 -25v-26h-69v37c0 52.667 26.333 79 79 79h47v57h-76c-52.667 -0 -79 26.333 -79 79v327
c0 52.667 26.333 79 79 79h19v78h-173v59h408v-59zM251 89.999v305c0 12.667 -1.83301 21 -5.5 25s-12.167 6 -25.5 6h-65c-12.667 0 -21 -2 -25 -6s-6 -12.333 -6 -25v-305c0 -13.333 2 -21.833 6 -25.5s12.333 -5.5 25 -5.5h65c13.333 0 21.833 1.83301 25.5 5.5
s5.5 12.167 5.5 25.5z" />
    <glyph glyph-name="uni0921094D0928" horiz-adv-x="351" 
d="M281 426l-121 -0.000976562c-13.333 0 -21.833 -2 -25.5 -6s-5.5 -12.333 -5.5 -25v-70c0 -12.667 1.83301 -21 5.5 -25s12.167 -6 25.5 -6h52c52.667 0 79 -26.333 79 -79v-136c0 -31.333 -9.66699 -53.666 -29 -66.999v-227h-69v99h-26c-12.667 0 -21 -2 -25 -6
s-6 -12.333 -6 -25v-26h-69v37c0 52.667 26.333 79 79 79h47v57h-66c-52.667 -0 -79 26.333 -79 79v86h69v-75c0 -13.333 1.83301 -21.833 5.5 -25.5s12.167 -5.5 25.5 -5.5h43c12.667 0 21 1.83301 25 5.5s6 12.167 6 25.5v114c0 13.333 -2 21.833 -6 25.5
s-12.333 5.5 -25 5.5h-52c-52.667 0 -79 26.333 -79 79v92c0 52.667 26.333 79 79 79h73v78h-232v59h391v-59h-90v-137z" />
    <glyph glyph-name="uni0924094D0928" horiz-adv-x="690" 
d="M710 622v-59h-75v-563h-69v426h-88v-269c0 -52.667 -26.333 -79 -79 -79h-71c-52.667 0 -79 26.333 -79 79v249c0 9.33301 0.333008 16 1 20h-105c-12.667 0 -21 -2 -25 -6s-6 -12.333 -6 -25v-302c0 -12.667 2 -21 6 -25s12.333 -6 25 -6h34v-62h-55
c-52.667 -0 -79 26.333 -79 79v327c0 52.667 26.333 79 79 79h442v78h-586v59h730zM409 168v258h-60c-12.667 0 -21 -2 -25 -6s-6 -12.333 -6 -25v-227c0 -13.333 2 -21.833 6 -25.5s12.333 -5.5 25 -5.5h29c13.333 0 21.833 1.83301 25.5 5.5s5.5 12.167 5.5 25.5z" />
    <glyph glyph-name="uni0925094D0928" horiz-adv-x="747" 
d="M767 622v-59h-75v-563h-69v426h-88v-269c0 -52.667 -26.333 -79 -79 -79h-71c-26 0 -45.667 6.33301 -59 19c-5.33301 -12.667 -18 -19 -38 -19h-163c-52.667 0 -79 26.333 -79 79v195h95c12.667 0 21 2 25 6s6 12.333 6 25v154c0 12.667 -2 21 -6 25s-12.333 6 -25 6h-5
c-13.333 0 -21.833 -2 -25.5 -6s-5.5 -12.333 -5.5 -25v-45h-52v56c0 52.667 25.333 79 76 79h33c52.667 0 79 -26.333 79 -79v-176c0 -52.667 -26.333 -79 -79 -79h-47v-125c0 -13.333 1.83301 -21.833 5.5 -25.5s12.167 -5.5 25.5 -5.5h126c13.333 0 22.333 2.5 27 7.5
s7 13.833 7 26.5v235c0 52.667 26.333 79 79 79h238v78h-317v59h461zM466 168v258h-60c-13.333 0 -21.833 -2 -25.5 -6s-5.5 -12.333 -5.5 -25v-227c0 -13.333 1.83301 -21.833 5.5 -25.5s12.167 -5.5 25.5 -5.5h29c12.667 0 21 1.83301 25 5.5s6 12.167 6 25.5z" />
    <glyph glyph-name="uni0926094D0928" horiz-adv-x="347" 
d="M292 426h-136.999c-12.667 0 -21 -2 -25 -6s-6 -12.333 -6 -25v-227c0 -13.333 2 -21.833 6 -25.5s12.333 -5.5 25 -5.5h41c13.333 0 22.333 2.5 27 7.5s7 13.833 7 26.5v95h69v-404h-69v99h-43c-12.667 0 -21 -1.83301 -25 -5.5s-6 -12.167 -6 -25.5v-26h-69v37
c0 52.667 26.333 79 79 79h64v67c-6.66699 -6 -17.334 -9 -32.001 -9h-64c-52.667 0 -79 26.333 -79 79v249c0 52.667 26.333 79 79 79h89v78h-243v59h387v-59h-75v-137z" />
    </font>
</defs>
</svg>
